%TF.GenerationSoftware,KiCad,Pcbnew,8.0.1*%
%TF.CreationDate,2024-04-26T12:21:13-07:00*%
%TF.ProjectId,Sendes,53656e64-6573-42e6-9b69-6361645f7063,rev?*%
%TF.SameCoordinates,Original*%
%TF.FileFunction,Paste,Top*%
%TF.FilePolarity,Positive*%
%FSLAX46Y46*%
G04 Gerber Fmt 4.6, Leading zero omitted, Abs format (unit mm)*
G04 Created by KiCad (PCBNEW 8.0.1) date 2024-04-26 12:21:13*
%MOMM*%
%LPD*%
G01*
G04 APERTURE LIST*
G04 Aperture macros list*
%AMRoundRect*
0 Rectangle with rounded corners*
0 $1 Rounding radius*
0 $2 $3 $4 $5 $6 $7 $8 $9 X,Y pos of 4 corners*
0 Add a 4 corners polygon primitive as box body*
4,1,4,$2,$3,$4,$5,$6,$7,$8,$9,$2,$3,0*
0 Add four circle primitives for the rounded corners*
1,1,$1+$1,$2,$3*
1,1,$1+$1,$4,$5*
1,1,$1+$1,$6,$7*
1,1,$1+$1,$8,$9*
0 Add four rect primitives between the rounded corners*
20,1,$1+$1,$2,$3,$4,$5,0*
20,1,$1+$1,$4,$5,$6,$7,0*
20,1,$1+$1,$6,$7,$8,$9,0*
20,1,$1+$1,$8,$9,$2,$3,0*%
G04 Aperture macros list end*
%ADD10RoundRect,0.237500X0.250000X0.237500X-0.250000X0.237500X-0.250000X-0.237500X0.250000X-0.237500X0*%
%ADD11R,1.168400X0.355600*%
%ADD12RoundRect,0.237500X0.237500X-0.250000X0.237500X0.250000X-0.237500X0.250000X-0.237500X-0.250000X0*%
%ADD13RoundRect,0.237500X-0.237500X0.250000X-0.237500X-0.250000X0.237500X-0.250000X0.237500X0.250000X0*%
%ADD14RoundRect,0.237500X-0.250000X-0.237500X0.250000X-0.237500X0.250000X0.237500X-0.250000X0.237500X0*%
%ADD15RoundRect,0.250000X-0.475000X0.337500X-0.475000X-0.337500X0.475000X-0.337500X0.475000X0.337500X0*%
%ADD16RoundRect,0.250000X-0.625000X0.375000X-0.625000X-0.375000X0.625000X-0.375000X0.625000X0.375000X0*%
%ADD17RoundRect,0.250000X-1.425000X0.362500X-1.425000X-0.362500X1.425000X-0.362500X1.425000X0.362500X0*%
%ADD18RoundRect,0.150000X-0.587500X-0.150000X0.587500X-0.150000X0.587500X0.150000X-0.587500X0.150000X0*%
%ADD19RoundRect,0.150000X0.587500X0.150000X-0.587500X0.150000X-0.587500X-0.150000X0.587500X-0.150000X0*%
%ADD20RoundRect,0.250000X0.625000X-0.375000X0.625000X0.375000X-0.625000X0.375000X-0.625000X-0.375000X0*%
G04 APERTURE END LIST*
D10*
%TO.C,JP11*%
X83812500Y-64800000D03*
X81987500Y-64800000D03*
%TD*%
%TO.C,JP10*%
X83912500Y-62300000D03*
X82087500Y-62300000D03*
%TD*%
D11*
%TO.C,U2*%
X84400000Y-99600002D03*
X84400000Y-100250001D03*
X84400000Y-100900000D03*
X86482800Y-100900000D03*
X86482800Y-99600002D03*
%TD*%
D12*
%TO.C,R6*%
X84200000Y-97512500D03*
X84200000Y-95687500D03*
%TD*%
D13*
%TO.C,R3*%
X84400000Y-103087500D03*
X84400000Y-104912500D03*
%TD*%
%TO.C,R1*%
X89000000Y-101287500D03*
X89000000Y-103112500D03*
%TD*%
D10*
%TO.C,JP9*%
X87912500Y-69400000D03*
X86087500Y-69400000D03*
%TD*%
D14*
%TO.C,JP8*%
X104887500Y-96600000D03*
X106712500Y-96600000D03*
%TD*%
D10*
%TO.C,JP7*%
X104264479Y-103895350D03*
X102439479Y-103895350D03*
%TD*%
D13*
%TO.C,JP6*%
X75000000Y-95812500D03*
X75000000Y-93987500D03*
%TD*%
D10*
%TO.C,JP5*%
X77787500Y-103100000D03*
X79612500Y-103100000D03*
%TD*%
D14*
%TO.C,JP4*%
X79612500Y-100100000D03*
X77787500Y-100100000D03*
%TD*%
D10*
%TO.C,JP3*%
X106712500Y-98900000D03*
X104887500Y-98900000D03*
%TD*%
%TO.C,JP2*%
X106712500Y-94300000D03*
X104887500Y-94300000D03*
%TD*%
D12*
%TO.C,JP1*%
X100251979Y-103907850D03*
X100251979Y-102082850D03*
%TD*%
D15*
%TO.C,C2*%
X89100000Y-107762500D03*
X89100000Y-109837500D03*
%TD*%
%TO.C,C1*%
X100300000Y-82762500D03*
X100300000Y-84837500D03*
%TD*%
D16*
%TO.C,D3*%
X105200000Y-129500000D03*
X105200000Y-132300000D03*
%TD*%
D17*
%TO.C,R5*%
X83300000Y-132937500D03*
X83300000Y-138862500D03*
%TD*%
D18*
%TO.C,Q2*%
X104337500Y-108200000D03*
X102462500Y-109150000D03*
X102462500Y-107250000D03*
%TD*%
D19*
%TO.C,Q1*%
X89462500Y-130200000D03*
X91337500Y-129250000D03*
X91337500Y-131150000D03*
%TD*%
D16*
%TO.C,D2*%
X107900000Y-121600000D03*
X107900000Y-124400000D03*
%TD*%
D20*
%TO.C,D4*%
X77900000Y-129100000D03*
X77900000Y-126300000D03*
%TD*%
D16*
%TO.C,D5*%
X77900000Y-133000000D03*
X77900000Y-135800000D03*
%TD*%
D17*
%TO.C,R4*%
X93900000Y-107237500D03*
X93900000Y-113162500D03*
%TD*%
%TO.C,R2*%
X99900000Y-129437500D03*
X99900000Y-135362500D03*
%TD*%
M02*
