%TF.GenerationSoftware,KiCad,Pcbnew,8.0.1*%
%TF.CreationDate,2024-04-26T12:21:13-07:00*%
%TF.ProjectId,Sendes,53656e64-6573-42e6-9b69-6361645f7063,rev?*%
%TF.SameCoordinates,Original*%
%TF.FileFunction,Soldermask,Top*%
%TF.FilePolarity,Negative*%
%FSLAX46Y46*%
G04 Gerber Fmt 4.6, Leading zero omitted, Abs format (unit mm)*
G04 Created by KiCad (PCBNEW 8.0.1) date 2024-04-26 12:21:13*
%MOMM*%
%LPD*%
G01*
G04 APERTURE LIST*
G04 Aperture macros list*
%AMRoundRect*
0 Rectangle with rounded corners*
0 $1 Rounding radius*
0 $2 $3 $4 $5 $6 $7 $8 $9 X,Y pos of 4 corners*
0 Add a 4 corners polygon primitive as box body*
4,1,4,$2,$3,$4,$5,$6,$7,$8,$9,$2,$3,0*
0 Add four circle primitives for the rounded corners*
1,1,$1+$1,$2,$3*
1,1,$1+$1,$4,$5*
1,1,$1+$1,$6,$7*
1,1,$1+$1,$8,$9*
0 Add four rect primitives between the rounded corners*
20,1,$1+$1,$2,$3,$4,$5,0*
20,1,$1+$1,$4,$5,$6,$7,0*
20,1,$1+$1,$6,$7,$8,$9,0*
20,1,$1+$1,$8,$9,$2,$3,0*%
G04 Aperture macros list end*
%ADD10R,1.700000X1.700000*%
%ADD11O,1.700000X1.700000*%
%ADD12C,2.200000*%
%ADD13RoundRect,0.237500X0.250000X0.237500X-0.250000X0.237500X-0.250000X-0.237500X0.250000X-0.237500X0*%
%ADD14R,1.168400X0.355600*%
%ADD15RoundRect,0.237500X0.237500X-0.250000X0.237500X0.250000X-0.237500X0.250000X-0.237500X-0.250000X0*%
%ADD16RoundRect,0.237500X-0.237500X0.250000X-0.237500X-0.250000X0.237500X-0.250000X0.237500X0.250000X0*%
%ADD17RoundRect,0.237500X-0.250000X-0.237500X0.250000X-0.237500X0.250000X0.237500X-0.250000X0.237500X0*%
%ADD18RoundRect,0.250000X-0.475000X0.337500X-0.475000X-0.337500X0.475000X-0.337500X0.475000X0.337500X0*%
%ADD19C,2.600000*%
%ADD20RoundRect,0.250000X-0.625000X0.375000X-0.625000X-0.375000X0.625000X-0.375000X0.625000X0.375000X0*%
%ADD21RoundRect,0.250000X-1.425000X0.362500X-1.425000X-0.362500X1.425000X-0.362500X1.425000X0.362500X0*%
%ADD22RoundRect,0.150000X-0.587500X-0.150000X0.587500X-0.150000X0.587500X0.150000X-0.587500X0.150000X0*%
%ADD23RoundRect,0.150000X0.587500X0.150000X-0.587500X0.150000X-0.587500X-0.150000X0.587500X-0.150000X0*%
%ADD24RoundRect,0.250000X0.625000X-0.375000X0.625000X0.375000X-0.625000X0.375000X-0.625000X-0.375000X0*%
G04 APERTURE END LIST*
D10*
%TO.C,J6*%
X110200000Y-106560000D03*
D11*
X110200000Y-109100000D03*
%TD*%
D12*
%TO.C,H4*%
X110200000Y-139700000D03*
%TD*%
%TO.C,H3*%
X72400000Y-139700000D03*
%TD*%
%TO.C,H2*%
X110200000Y-43900000D03*
%TD*%
%TO.C,H1*%
X72400000Y-43900000D03*
%TD*%
D13*
%TO.C,JP11*%
X83812500Y-64800000D03*
X81987500Y-64800000D03*
%TD*%
%TO.C,JP10*%
X83912500Y-62300000D03*
X82087500Y-62300000D03*
%TD*%
D14*
%TO.C,U2*%
X84400000Y-99600002D03*
X84400000Y-100250001D03*
X84400000Y-100900000D03*
X86482800Y-100900000D03*
X86482800Y-99600002D03*
%TD*%
D15*
%TO.C,R6*%
X84200000Y-97512500D03*
X84200000Y-95687500D03*
%TD*%
D16*
%TO.C,R3*%
X84400000Y-103087500D03*
X84400000Y-104912500D03*
%TD*%
%TO.C,R1*%
X89000000Y-101287500D03*
X89000000Y-103112500D03*
%TD*%
D13*
%TO.C,JP9*%
X87912500Y-69400000D03*
X86087500Y-69400000D03*
%TD*%
D17*
%TO.C,JP8*%
X104887500Y-96600000D03*
X106712500Y-96600000D03*
%TD*%
D13*
%TO.C,JP7*%
X104264479Y-103895350D03*
X102439479Y-103895350D03*
%TD*%
D16*
%TO.C,JP6*%
X75000000Y-95812500D03*
X75000000Y-93987500D03*
%TD*%
D13*
%TO.C,JP5*%
X77787500Y-103100000D03*
X79612500Y-103100000D03*
%TD*%
D17*
%TO.C,JP4*%
X79612500Y-100100000D03*
X77787500Y-100100000D03*
%TD*%
D13*
%TO.C,JP3*%
X106712500Y-98900000D03*
X104887500Y-98900000D03*
%TD*%
%TO.C,JP2*%
X106712500Y-94300000D03*
X104887500Y-94300000D03*
%TD*%
D15*
%TO.C,JP1*%
X100251979Y-103907850D03*
X100251979Y-102082850D03*
%TD*%
D11*
%TO.C,J11*%
X72380880Y-87698597D03*
X72380880Y-85158597D03*
X72380880Y-82618597D03*
X72380880Y-80078597D03*
X72380880Y-77538597D03*
X72380880Y-74998597D03*
X72380880Y-72458597D03*
X72380880Y-69918597D03*
X72380880Y-67378597D03*
X72380880Y-64838597D03*
X72380880Y-62298597D03*
X72380880Y-59758597D03*
X72380880Y-57218597D03*
X72380880Y-54678597D03*
X72380880Y-52138597D03*
D10*
X72380880Y-49598597D03*
%TD*%
%TO.C,J10*%
X110300000Y-49600000D03*
D11*
X110300000Y-52140000D03*
X110300000Y-54680000D03*
X110300000Y-57220000D03*
X110300000Y-59760000D03*
X110300000Y-62300000D03*
X110300000Y-64840000D03*
X110300000Y-67380000D03*
X110300000Y-69920000D03*
X110300000Y-72460000D03*
X110300000Y-75000000D03*
X110300000Y-77540000D03*
X110300000Y-80080000D03*
X110300000Y-82620000D03*
X110300000Y-85160000D03*
X110300000Y-87700000D03*
%TD*%
D10*
%TO.C,J9*%
X73100000Y-115200000D03*
D11*
X73100000Y-112660000D03*
X73100000Y-110120000D03*
%TD*%
%TO.C,J5*%
X73000000Y-102565000D03*
D10*
X73000000Y-100025000D03*
%TD*%
%TO.C,J4*%
X73400000Y-130425000D03*
D11*
X73400000Y-132965000D03*
%TD*%
D10*
%TO.C,J3*%
X110200000Y-98200000D03*
D11*
X110200000Y-95660000D03*
%TD*%
D10*
%TO.C,J2*%
X103939978Y-49602958D03*
D11*
X103939978Y-52142958D03*
X103939978Y-54682958D03*
X103939978Y-57222958D03*
X103939978Y-59762958D03*
X103939978Y-62302958D03*
X103939978Y-64842958D03*
X103939978Y-67382958D03*
X103939978Y-69922958D03*
X103939978Y-72462958D03*
X103939978Y-75002958D03*
X103939978Y-77542958D03*
X103939978Y-80082958D03*
X103939978Y-82622958D03*
X103939978Y-85162958D03*
X103939978Y-87702958D03*
%TD*%
D10*
%TO.C,J1*%
X78520577Y-49602958D03*
D11*
X78520577Y-52142958D03*
X78520577Y-54682958D03*
X78520577Y-57222958D03*
X78520577Y-59762958D03*
X78520577Y-62302958D03*
X78520577Y-64842958D03*
X78520577Y-67382958D03*
X78520577Y-69922958D03*
X78520577Y-72462958D03*
X78520577Y-75002958D03*
X78520577Y-77542958D03*
X78520577Y-80082958D03*
X78520577Y-82622958D03*
X78520577Y-85162958D03*
X78520577Y-87702958D03*
%TD*%
D18*
%TO.C,C2*%
X89100000Y-107762500D03*
X89100000Y-109837500D03*
%TD*%
%TO.C,C1*%
X100300000Y-82762500D03*
X100300000Y-84837500D03*
%TD*%
D19*
%TO.C,L2*%
X102300000Y-121600000D03*
X97300000Y-121600000D03*
%TD*%
D20*
%TO.C,D3*%
X105200000Y-129500000D03*
X105200000Y-132300000D03*
%TD*%
D21*
%TO.C,R5*%
X83300000Y-132937500D03*
X83300000Y-138862500D03*
%TD*%
D22*
%TO.C,Q2*%
X104337500Y-108200000D03*
X102462500Y-109150000D03*
X102462500Y-107250000D03*
%TD*%
D23*
%TO.C,Q1*%
X89462500Y-130200000D03*
X91337500Y-129250000D03*
X91337500Y-131150000D03*
%TD*%
D20*
%TO.C,D2*%
X107900000Y-121600000D03*
X107900000Y-124400000D03*
%TD*%
D24*
%TO.C,D4*%
X77900000Y-129100000D03*
X77900000Y-126300000D03*
%TD*%
D20*
%TO.C,D5*%
X77900000Y-133000000D03*
X77900000Y-135800000D03*
%TD*%
D19*
%TO.C,L3*%
X91700000Y-121600000D03*
X86700000Y-121600000D03*
%TD*%
D21*
%TO.C,R4*%
X93900000Y-107237500D03*
X93900000Y-113162500D03*
%TD*%
%TO.C,R2*%
X99900000Y-129437500D03*
X99900000Y-135362500D03*
%TD*%
M02*
