%TF.GenerationSoftware,KiCad,Pcbnew,8.0.1*%
%TF.CreationDate,2024-04-26T12:21:13-07:00*%
%TF.ProjectId,Sendes,53656e64-6573-42e6-9b69-6361645f7063,rev?*%
%TF.SameCoordinates,Original*%
%TF.FileFunction,Copper,L1,Top*%
%TF.FilePolarity,Positive*%
%FSLAX46Y46*%
G04 Gerber Fmt 4.6, Leading zero omitted, Abs format (unit mm)*
G04 Created by KiCad (PCBNEW 8.0.1) date 2024-04-26 12:21:13*
%MOMM*%
%LPD*%
G01*
G04 APERTURE LIST*
G04 Aperture macros list*
%AMRoundRect*
0 Rectangle with rounded corners*
0 $1 Rounding radius*
0 $2 $3 $4 $5 $6 $7 $8 $9 X,Y pos of 4 corners*
0 Add a 4 corners polygon primitive as box body*
4,1,4,$2,$3,$4,$5,$6,$7,$8,$9,$2,$3,0*
0 Add four circle primitives for the rounded corners*
1,1,$1+$1,$2,$3*
1,1,$1+$1,$4,$5*
1,1,$1+$1,$6,$7*
1,1,$1+$1,$8,$9*
0 Add four rect primitives between the rounded corners*
20,1,$1+$1,$2,$3,$4,$5,0*
20,1,$1+$1,$4,$5,$6,$7,0*
20,1,$1+$1,$6,$7,$8,$9,0*
20,1,$1+$1,$8,$9,$2,$3,0*%
G04 Aperture macros list end*
%TA.AperFunction,ComponentPad*%
%ADD10R,1.700000X1.700000*%
%TD*%
%TA.AperFunction,ComponentPad*%
%ADD11O,1.700000X1.700000*%
%TD*%
%TA.AperFunction,SMDPad,CuDef*%
%ADD12RoundRect,0.237500X0.250000X0.237500X-0.250000X0.237500X-0.250000X-0.237500X0.250000X-0.237500X0*%
%TD*%
%TA.AperFunction,SMDPad,CuDef*%
%ADD13R,1.168400X0.355600*%
%TD*%
%TA.AperFunction,SMDPad,CuDef*%
%ADD14RoundRect,0.237500X0.237500X-0.250000X0.237500X0.250000X-0.237500X0.250000X-0.237500X-0.250000X0*%
%TD*%
%TA.AperFunction,SMDPad,CuDef*%
%ADD15RoundRect,0.237500X-0.237500X0.250000X-0.237500X-0.250000X0.237500X-0.250000X0.237500X0.250000X0*%
%TD*%
%TA.AperFunction,SMDPad,CuDef*%
%ADD16RoundRect,0.237500X-0.250000X-0.237500X0.250000X-0.237500X0.250000X0.237500X-0.250000X0.237500X0*%
%TD*%
%TA.AperFunction,SMDPad,CuDef*%
%ADD17RoundRect,0.250000X-0.475000X0.337500X-0.475000X-0.337500X0.475000X-0.337500X0.475000X0.337500X0*%
%TD*%
%TA.AperFunction,ComponentPad*%
%ADD18C,2.600000*%
%TD*%
%TA.AperFunction,SMDPad,CuDef*%
%ADD19RoundRect,0.250000X-0.625000X0.375000X-0.625000X-0.375000X0.625000X-0.375000X0.625000X0.375000X0*%
%TD*%
%TA.AperFunction,SMDPad,CuDef*%
%ADD20RoundRect,0.250000X-1.425000X0.362500X-1.425000X-0.362500X1.425000X-0.362500X1.425000X0.362500X0*%
%TD*%
%TA.AperFunction,SMDPad,CuDef*%
%ADD21RoundRect,0.150000X-0.587500X-0.150000X0.587500X-0.150000X0.587500X0.150000X-0.587500X0.150000X0*%
%TD*%
%TA.AperFunction,SMDPad,CuDef*%
%ADD22RoundRect,0.150000X0.587500X0.150000X-0.587500X0.150000X-0.587500X-0.150000X0.587500X-0.150000X0*%
%TD*%
%TA.AperFunction,SMDPad,CuDef*%
%ADD23RoundRect,0.250000X0.625000X-0.375000X0.625000X0.375000X-0.625000X0.375000X-0.625000X-0.375000X0*%
%TD*%
%TA.AperFunction,ViaPad*%
%ADD24C,0.700000*%
%TD*%
%TA.AperFunction,ViaPad*%
%ADD25C,0.600000*%
%TD*%
%TA.AperFunction,Conductor*%
%ADD26C,0.500000*%
%TD*%
%TA.AperFunction,Conductor*%
%ADD27C,0.381000*%
%TD*%
%TA.AperFunction,Conductor*%
%ADD28C,0.200000*%
%TD*%
G04 APERTURE END LIST*
D10*
%TO.P,J6,1,Pin_1*%
%TO.N,Pulse*%
X110200000Y-106560000D03*
D11*
%TO.P,J6,2,Pin_2*%
%TO.N,GND*%
X110200000Y-109100000D03*
%TD*%
D12*
%TO.P,JP11,1,A*%
%TO.N,/OP_OUT*%
X83812500Y-64800000D03*
%TO.P,JP11,2,B*%
%TO.N,/D33*%
X81987500Y-64800000D03*
%TD*%
%TO.P,JP10,1,A*%
%TO.N,/OP_OUT*%
X83912500Y-62300000D03*
%TO.P,JP10,2,B*%
%TO.N,/D32*%
X82087500Y-62300000D03*
%TD*%
D13*
%TO.P,U2,1,1IN+*%
%TO.N,/Rx_sig_to_opamp*%
X84400000Y-99600002D03*
%TO.P,U2,2,GND*%
%TO.N,GND*%
X84400000Y-100250001D03*
%TO.P,U2,3,1IN-*%
%TO.N,Net-(U2-1IN-)*%
X84400000Y-100900000D03*
%TO.P,U2,4,OUT*%
%TO.N,/OP_OUT*%
X86482800Y-100900000D03*
%TO.P,U2,5,VCC+*%
%TO.N,/3V3*%
X86482800Y-99600002D03*
%TD*%
D14*
%TO.P,R6,1*%
%TO.N,/Rx_sig_to_opamp*%
X84200000Y-97512500D03*
%TO.P,R6,2*%
%TO.N,GND*%
X84200000Y-95687500D03*
%TD*%
D15*
%TO.P,R3,1*%
%TO.N,Net-(U2-1IN-)*%
X84400000Y-103087500D03*
%TO.P,R3,2*%
%TO.N,GND*%
X84400000Y-104912500D03*
%TD*%
%TO.P,R1,1*%
%TO.N,/OP_OUT*%
X89000000Y-101287500D03*
%TO.P,R1,2*%
%TO.N,Net-(U2-1IN-)*%
X89000000Y-103112500D03*
%TD*%
D12*
%TO.P,JP9,1,A*%
%TO.N,GND*%
X87912500Y-69400000D03*
%TO.P,JP9,2,B*%
%TO.N,/OP_OUT*%
X86087500Y-69400000D03*
%TD*%
D16*
%TO.P,JP8,1,A*%
%TO.N,GND*%
X104887500Y-96600000D03*
%TO.P,JP8,2,B*%
%TO.N,/Vibr_sig*%
X106712500Y-96600000D03*
%TD*%
D12*
%TO.P,JP7,1,A*%
%TO.N,GND*%
X104264479Y-103895350D03*
%TO.P,JP7,2,B*%
%TO.N,Pulse*%
X102439479Y-103895350D03*
%TD*%
D15*
%TO.P,JP6,2,B*%
%TO.N,/Rx_sig_to_opamp*%
X75000000Y-95812500D03*
%TO.P,JP6,1,A*%
%TO.N,/D32*%
X75000000Y-93987500D03*
%TD*%
D12*
%TO.P,JP5,2,B*%
%TO.N,/Rx_gnd*%
X77787500Y-103100000D03*
%TO.P,JP5,1,A*%
%TO.N,GND*%
X79612500Y-103100000D03*
%TD*%
D16*
%TO.P,JP4,2,B*%
%TO.N,/Rx_sig_to_opamp*%
X79612500Y-100100000D03*
%TO.P,JP4,1,A*%
%TO.N,/Rx_sig*%
X77787500Y-100100000D03*
%TD*%
D12*
%TO.P,JP3,1,A*%
%TO.N,/Vibr_gnd*%
X106712500Y-98900000D03*
%TO.P,JP3,2,B*%
%TO.N,GND*%
X104887500Y-98900000D03*
%TD*%
%TO.P,JP2,1,A*%
%TO.N,/Vibr_sig*%
X106712500Y-94300000D03*
%TO.P,JP2,2,B*%
%TO.N,/TX2*%
X104887500Y-94300000D03*
%TD*%
D14*
%TO.P,JP1,1,A*%
%TO.N,Pulse*%
X100251979Y-103907850D03*
%TO.P,JP1,2,B*%
%TO.N,/RX2*%
X100251979Y-102082850D03*
%TD*%
D11*
%TO.P,J11,16,Pin_16*%
%TO.N,unconnected-(J11-Pin_16-Pad16)*%
X72380880Y-87698597D03*
%TO.P,J11,15,Pin_15*%
%TO.N,/VIN*%
X72380880Y-85158597D03*
%TO.P,J11,14,Pin_14*%
%TO.N,GND*%
X72380880Y-82618597D03*
%TO.P,J11,13,Pin_13*%
%TO.N,/D13*%
X72380880Y-80078597D03*
%TO.P,J11,12,Pin_12*%
%TO.N,/D12*%
X72380880Y-77538597D03*
%TO.P,J11,11,Pin_11*%
%TO.N,/D14*%
X72380880Y-74998597D03*
%TO.P,J11,10,Pin_10*%
%TO.N,/D27*%
X72380880Y-72458597D03*
%TO.P,J11,9,Pin_9*%
%TO.N,/D26*%
X72380880Y-69918597D03*
%TO.P,J11,8,Pin_8*%
%TO.N,/D25*%
X72380880Y-67378597D03*
%TO.P,J11,7,Pin_7*%
%TO.N,/D33*%
X72380880Y-64838597D03*
%TO.P,J11,6,Pin_6*%
%TO.N,/D32*%
X72380880Y-62298597D03*
%TO.P,J11,5,Pin_5*%
%TO.N,/D35*%
X72380880Y-59758597D03*
%TO.P,J11,4,Pin_4*%
%TO.N,/D34*%
X72380880Y-57218597D03*
%TO.P,J11,3,Pin_3*%
%TO.N,/VN*%
X72380880Y-54678597D03*
%TO.P,J11,2,Pin_2*%
%TO.N,/VP*%
X72380880Y-52138597D03*
D10*
%TO.P,J11,1,Pin_1*%
%TO.N,/EN*%
X72380880Y-49598597D03*
%TD*%
%TO.P,J10,1,Pin_1*%
%TO.N,/D23*%
X110300000Y-49600000D03*
D11*
%TO.P,J10,2,Pin_2*%
%TO.N,/D22*%
X110300000Y-52140000D03*
%TO.P,J10,3,Pin_3*%
%TO.N,/TX0*%
X110300000Y-54680000D03*
%TO.P,J10,4,Pin_4*%
%TO.N,/RX0*%
X110300000Y-57220000D03*
%TO.P,J10,5,Pin_5*%
%TO.N,/D21*%
X110300000Y-59760000D03*
%TO.P,J10,6,Pin_6*%
%TO.N,/D19*%
X110300000Y-62300000D03*
%TO.P,J10,7,Pin_7*%
%TO.N,/D18*%
X110300000Y-64840000D03*
%TO.P,J10,8,Pin_8*%
%TO.N,/D5*%
X110300000Y-67380000D03*
%TO.P,J10,9,Pin_9*%
%TO.N,/TX2*%
X110300000Y-69920000D03*
%TO.P,J10,10,Pin_10*%
%TO.N,/RX2*%
X110300000Y-72460000D03*
%TO.P,J10,11,Pin_11*%
%TO.N,/D4*%
X110300000Y-75000000D03*
%TO.P,J10,12,Pin_12*%
%TO.N,/D2*%
X110300000Y-77540000D03*
%TO.P,J10,13,Pin_13*%
%TO.N,/D15*%
X110300000Y-80080000D03*
%TO.P,J10,14,Pin_14*%
%TO.N,GND*%
X110300000Y-82620000D03*
%TO.P,J10,15,Pin_15*%
%TO.N,/3V3*%
X110300000Y-85160000D03*
%TO.P,J10,16,Pin_16*%
%TO.N,unconnected-(J10-Pin_16-Pad16)*%
X110300000Y-87700000D03*
%TD*%
D10*
%TO.P,J9,1,Pin_1*%
%TO.N,/5V*%
X73100000Y-115200000D03*
D11*
%TO.P,J9,2,Pin_2*%
%TO.N,/3V3*%
X73100000Y-112660000D03*
%TO.P,J9,3,Pin_3*%
%TO.N,GND*%
X73100000Y-110120000D03*
%TD*%
%TO.P,J5,2,Pin_2*%
%TO.N,/Rx_gnd*%
X73000000Y-102565000D03*
D10*
%TO.P,J5,1,Pin_1*%
%TO.N,/Rx_sig*%
X73000000Y-100025000D03*
%TD*%
%TO.P,J4,1,Pin_1*%
%TO.N,TX_COIL_POS*%
X73400000Y-130425000D03*
D11*
%TO.P,J4,2,Pin_2*%
%TO.N,TX_COIL_NEG*%
X73400000Y-132965000D03*
%TD*%
D10*
%TO.P,J3,1,Pin_1*%
%TO.N,/Vibr_gnd*%
X110200000Y-98200000D03*
D11*
%TO.P,J3,2,Pin_2*%
%TO.N,/Vibr_sig*%
X110200000Y-95660000D03*
%TD*%
D10*
%TO.P,J2,1,Pin_1*%
%TO.N,/D23*%
X103939978Y-49602958D03*
D11*
%TO.P,J2,2,Pin_2*%
%TO.N,/D22*%
X103939978Y-52142958D03*
%TO.P,J2,3,Pin_3*%
%TO.N,/TX0*%
X103939978Y-54682958D03*
%TO.P,J2,4,Pin_4*%
%TO.N,/RX0*%
X103939978Y-57222958D03*
%TO.P,J2,5,Pin_5*%
%TO.N,/D21*%
X103939978Y-59762958D03*
%TO.P,J2,6,Pin_6*%
%TO.N,/D19*%
X103939978Y-62302958D03*
%TO.P,J2,7,Pin_7*%
%TO.N,/D18*%
X103939978Y-64842958D03*
%TO.P,J2,8,Pin_8*%
%TO.N,/D5*%
X103939978Y-67382958D03*
%TO.P,J2,9,Pin_9*%
%TO.N,/TX2*%
X103939978Y-69922958D03*
%TO.P,J2,10,Pin_10*%
%TO.N,/RX2*%
X103939978Y-72462958D03*
%TO.P,J2,11,Pin_11*%
%TO.N,/D4*%
X103939978Y-75002958D03*
%TO.P,J2,12,Pin_12*%
%TO.N,/D2*%
X103939978Y-77542958D03*
%TO.P,J2,13,Pin_13*%
%TO.N,/D15*%
X103939978Y-80082958D03*
%TO.P,J2,14,Pin_14*%
%TO.N,GND*%
X103939978Y-82622958D03*
%TO.P,J2,15,Pin_15*%
%TO.N,/3V3*%
X103939978Y-85162958D03*
%TO.P,J2,16,Pin_16*%
%TO.N,unconnected-(J2-Pin_16-Pad16)*%
X103939978Y-87702958D03*
%TD*%
D10*
%TO.P,J1,1,Pin_1*%
%TO.N,/EN*%
X78520577Y-49602958D03*
D11*
%TO.P,J1,2,Pin_2*%
%TO.N,/VP*%
X78520577Y-52142958D03*
%TO.P,J1,3,Pin_3*%
%TO.N,/VN*%
X78520577Y-54682958D03*
%TO.P,J1,4,Pin_4*%
%TO.N,/D34*%
X78520577Y-57222958D03*
%TO.P,J1,5,Pin_5*%
%TO.N,/D35*%
X78520577Y-59762958D03*
%TO.P,J1,6,Pin_6*%
%TO.N,/D32*%
X78520577Y-62302958D03*
%TO.P,J1,7,Pin_7*%
%TO.N,/D33*%
X78520577Y-64842958D03*
%TO.P,J1,8,Pin_8*%
%TO.N,/D25*%
X78520577Y-67382958D03*
%TO.P,J1,9,Pin_9*%
%TO.N,/D26*%
X78520577Y-69922958D03*
%TO.P,J1,10,Pin_10*%
%TO.N,/D27*%
X78520577Y-72462958D03*
%TO.P,J1,11,Pin_11*%
%TO.N,/D14*%
X78520577Y-75002958D03*
%TO.P,J1,12,Pin_12*%
%TO.N,/D12*%
X78520577Y-77542958D03*
%TO.P,J1,13,Pin_13*%
%TO.N,/D13*%
X78520577Y-80082958D03*
%TO.P,J1,14,Pin_14*%
%TO.N,GND*%
X78520577Y-82622958D03*
%TO.P,J1,15,Pin_15*%
%TO.N,/VIN*%
X78520577Y-85162958D03*
%TO.P,J1,16,Pin_16*%
%TO.N,unconnected-(J1-Pin_16-Pad16)*%
X78520577Y-87702958D03*
%TD*%
D17*
%TO.P,C2,1*%
%TO.N,/5V*%
X89100000Y-107762500D03*
%TO.P,C2,2*%
%TO.N,GND*%
X89100000Y-109837500D03*
%TD*%
%TO.P,C1,1*%
%TO.N,GND*%
X100300000Y-82762500D03*
%TO.P,C1,2*%
%TO.N,/3V3*%
X100300000Y-84837500D03*
%TD*%
D18*
%TO.P,L2,1,1*%
%TO.N,Net-(D2-K)*%
X102300000Y-121600000D03*
%TO.P,L2,2,2*%
%TO.N,Net-(L2-Pad2)*%
X97300000Y-121600000D03*
%TD*%
D19*
%TO.P,D3,1,K*%
%TO.N,Net-(D3-K)*%
X105200000Y-129500000D03*
%TO.P,D3,2,A*%
%TO.N,GND*%
X105200000Y-132300000D03*
%TD*%
D20*
%TO.P,R5,1*%
%TO.N,TX_COIL_NEG*%
X83300000Y-132937500D03*
%TO.P,R5,2*%
%TO.N,GND*%
X83300000Y-138862500D03*
%TD*%
D21*
%TO.P,Q2,3,S*%
%TO.N,Net-(D2-K)*%
X104337500Y-108200000D03*
%TO.P,Q2,2,G*%
%TO.N,Pulse*%
X102462500Y-109150000D03*
%TO.P,Q2,1,D*%
%TO.N,/5V*%
X102462500Y-107250000D03*
%TD*%
D22*
%TO.P,Q1,3,E*%
%TO.N,TX_COIL_POS*%
X89462500Y-130200000D03*
%TO.P,Q1,2,B*%
%TO.N,Net-(D3-K)*%
X91337500Y-129250000D03*
%TO.P,Q1,1,C*%
%TO.N,Net-(Q1-C)*%
X91337500Y-131150000D03*
%TD*%
D19*
%TO.P,D2,1,K*%
%TO.N,Net-(D2-K)*%
X107900000Y-121600000D03*
%TO.P,D2,2,A*%
%TO.N,GND*%
X107900000Y-124400000D03*
%TD*%
D23*
%TO.P,D4,1,K*%
%TO.N,TX_COIL_POS*%
X77900000Y-129100000D03*
%TO.P,D4,2,A*%
%TO.N,GND*%
X77900000Y-126300000D03*
%TD*%
D19*
%TO.P,D5,1,K*%
%TO.N,TX_COIL_NEG*%
X77900000Y-133000000D03*
%TO.P,D5,2,A*%
%TO.N,GND*%
X77900000Y-135800000D03*
%TD*%
D18*
%TO.P,L3,1,1*%
%TO.N,Net-(L2-Pad2)*%
X91700000Y-121600000D03*
%TO.P,L3,2,2*%
%TO.N,Net-(D3-K)*%
X86700000Y-121600000D03*
%TD*%
D20*
%TO.P,R4,1*%
%TO.N,/5V*%
X93900000Y-107237500D03*
%TO.P,R4,2*%
%TO.N,Net-(Q1-C)*%
X93900000Y-113162500D03*
%TD*%
%TO.P,R2,1*%
%TO.N,Net-(D3-K)*%
X99900000Y-129437500D03*
%TO.P,R2,2*%
%TO.N,GND*%
X99900000Y-135362500D03*
%TD*%
D24*
%TO.N,Pulse*%
X106200000Y-110600000D03*
X106300000Y-107200000D03*
%TO.N,/RX2*%
X99400000Y-98300000D03*
X98500000Y-95600000D03*
%TO.N,/OP_OUT*%
X89000000Y-98300000D03*
X90600000Y-99900000D03*
%TO.N,GND*%
X89900000Y-68300000D03*
X81300000Y-101400000D03*
X82100000Y-94600000D03*
X80400000Y-105600000D03*
X106700000Y-102600000D03*
X78800000Y-123600000D03*
X108800000Y-126400000D03*
X100200000Y-137700000D03*
X78600000Y-139100000D03*
X88100000Y-112300000D03*
D25*
%TO.N,Pulse*%
X100100000Y-106100000D03*
X100000000Y-108400000D03*
%TO.N,Net-(Q1-C)*%
X95300000Y-131200000D03*
%TO.N,/TX2*%
X107100000Y-71300000D03*
X106000000Y-92100000D03*
%TO.N,/D32*%
X76000000Y-63600000D03*
X75400000Y-90600000D03*
%TO.N,Net-(Q1-C)*%
X96000000Y-116000000D03*
%TD*%
D26*
%TO.N,GND*%
X99900000Y-137400000D02*
X100200000Y-137700000D01*
X99900000Y-135362500D02*
X99900000Y-137400000D01*
D27*
%TO.N,Pulse*%
X100900000Y-109300000D02*
X100750000Y-109150000D01*
X100900000Y-109550000D02*
X100900000Y-109300000D01*
X100900000Y-109550000D02*
X101300000Y-109150000D01*
X100900000Y-110400000D02*
X100900000Y-109550000D01*
X101300000Y-109150000D02*
X100750000Y-109150000D01*
X102462500Y-109150000D02*
X101300000Y-109150000D01*
X101100000Y-110600000D02*
X100900000Y-110400000D01*
X106200000Y-110600000D02*
X101100000Y-110600000D01*
X106900000Y-106600000D02*
X106300000Y-107200000D01*
X110200000Y-106600000D02*
X106900000Y-106600000D01*
X110200000Y-106560000D02*
X110200000Y-106600000D01*
%TO.N,/RX2*%
X102037042Y-72462958D02*
X103939978Y-72462958D01*
X98500000Y-76000000D02*
X102037042Y-72462958D01*
X98500000Y-95600000D02*
X98500000Y-76000000D01*
X99400000Y-98400000D02*
X99400000Y-98300000D01*
X100251979Y-99251979D02*
X99400000Y-98400000D01*
%TO.N,/OP_OUT*%
X84300000Y-93600000D02*
X84300000Y-73100000D01*
X89000000Y-98300000D02*
X84300000Y-93600000D01*
X90700000Y-100000000D02*
X90600000Y-99900000D01*
X90700000Y-100400000D02*
X90700000Y-100000000D01*
D26*
%TO.N,/3V3*%
X95150000Y-100050000D02*
X95050000Y-99950000D01*
X95850000Y-99950000D02*
X95750000Y-100050000D01*
X95850000Y-99950000D02*
X95450000Y-100350000D01*
X95750000Y-100050000D02*
X95150000Y-100050000D01*
X100300000Y-95500000D02*
X95850000Y-99950000D01*
X95000000Y-100800000D02*
X95150000Y-100650000D01*
X95050000Y-99950000D02*
X93500000Y-98400000D01*
X95150000Y-100650000D02*
X95150000Y-100050000D01*
X95450000Y-100350000D02*
X95050000Y-99950000D01*
X95000000Y-100800000D02*
X90000000Y-105800000D01*
X95450000Y-100350000D02*
X95000000Y-100800000D01*
D27*
%TO.N,Net-(D3-K)*%
X94250000Y-129250000D02*
X94700000Y-128800000D01*
X94200000Y-129250000D02*
X94250000Y-129250000D01*
X94200000Y-129250000D02*
X94700000Y-129250000D01*
X91337500Y-129250000D02*
X94200000Y-129250000D01*
X95150000Y-129250000D02*
X94700000Y-128800000D01*
X94700000Y-128800000D02*
X94700000Y-128100000D01*
X94700000Y-129250000D02*
X94700000Y-128800000D01*
X95200000Y-129250000D02*
X99712500Y-129250000D01*
X95200000Y-129250000D02*
X95150000Y-129250000D01*
X94700000Y-129250000D02*
X95200000Y-129250000D01*
%TO.N,GND*%
X88800000Y-69400000D02*
X89900000Y-68300000D01*
X87912500Y-69400000D02*
X88800000Y-69400000D01*
D26*
%TO.N,Net-(L2-Pad2)*%
X91700000Y-121600000D02*
X97300000Y-121600000D01*
D27*
%TO.N,GND*%
X82449999Y-100250001D02*
X81300000Y-101400000D01*
X84400000Y-100250001D02*
X82449999Y-100250001D01*
D26*
X83187500Y-95687500D02*
X82100000Y-94600000D01*
X84200000Y-95687500D02*
X83187500Y-95687500D01*
X80737500Y-105600000D02*
X80400000Y-105600000D01*
X81425000Y-104912500D02*
X80737500Y-105600000D01*
X81425000Y-104912500D02*
X79612500Y-103100000D01*
X84400000Y-104912500D02*
X81425000Y-104912500D01*
X104887500Y-100787500D02*
X106700000Y-102600000D01*
X104887500Y-98900000D02*
X104887500Y-100787500D01*
X104887500Y-96600000D02*
X104887500Y-98900000D01*
X105404650Y-103895350D02*
X106700000Y-102600000D01*
X104264479Y-103895350D02*
X105404650Y-103895350D01*
X77900000Y-124500000D02*
X78800000Y-123600000D01*
X77900000Y-126300000D02*
X77900000Y-124500000D01*
X107900000Y-125500000D02*
X108800000Y-126400000D01*
X107900000Y-124400000D02*
X107900000Y-125500000D01*
X102137500Y-135362500D02*
X105200000Y-132300000D01*
X99900000Y-135362500D02*
X102137500Y-135362500D01*
X78837500Y-138862500D02*
X78600000Y-139100000D01*
X79762500Y-138862500D02*
X78837500Y-138862500D01*
X77900000Y-135800000D02*
X77900000Y-137000000D01*
X77900000Y-137000000D02*
X79762500Y-138862500D01*
X79762500Y-138862500D02*
X83300000Y-138862500D01*
X89100000Y-111300000D02*
X88100000Y-112300000D01*
X89100000Y-109837500D02*
X89100000Y-111300000D01*
D27*
%TO.N,/RX2*%
X100251979Y-102082850D02*
X100251979Y-99251979D01*
%TO.N,Pulse*%
X102426979Y-103907850D02*
X102439479Y-103895350D01*
X100251979Y-103907850D02*
X102426979Y-103907850D01*
X100100000Y-104059829D02*
X100251979Y-103907850D01*
X100100000Y-106100000D02*
X100100000Y-104059829D01*
X100750000Y-109150000D02*
X100000000Y-108400000D01*
D26*
%TO.N,/3V3*%
X88699998Y-99600002D02*
X86482800Y-99600002D01*
X88700000Y-99600000D02*
X88699998Y-99600002D01*
X89100000Y-99600000D02*
X88700000Y-99600000D01*
X90300000Y-98400000D02*
X89100000Y-99600000D01*
X93500000Y-98400000D02*
X90300000Y-98400000D01*
X78640000Y-112660000D02*
X73100000Y-112660000D01*
X86000000Y-106500000D02*
X84800000Y-106500000D01*
X84800000Y-106500000D02*
X78640000Y-112660000D01*
X86700000Y-105800000D02*
X86000000Y-106500000D01*
X100300000Y-84837500D02*
X100300000Y-95500000D01*
X90000000Y-105800000D02*
X86700000Y-105800000D01*
D27*
%TO.N,Net-(Q1-C)*%
X95000000Y-116000000D02*
X96000000Y-116000000D01*
X93900000Y-114900000D02*
X95000000Y-116000000D01*
D26*
%TO.N,/5V*%
X90962500Y-107237500D02*
X93900000Y-107237500D01*
X90437500Y-107762500D02*
X90962500Y-107237500D01*
X89100000Y-107762500D02*
X90437500Y-107762500D01*
X86237500Y-107762500D02*
X89100000Y-107762500D01*
X84700000Y-109300000D02*
X86237500Y-107762500D01*
X81200000Y-115200000D02*
X84700000Y-111700000D01*
X73100000Y-115200000D02*
X81200000Y-115200000D01*
X84700000Y-111700000D02*
X84700000Y-109300000D01*
D27*
%TO.N,TX_COIL_NEG*%
X83237500Y-133000000D02*
X83300000Y-132937500D01*
X77900000Y-133000000D02*
X83237500Y-133000000D01*
X77865000Y-132965000D02*
X77900000Y-133000000D01*
X73400000Y-132965000D02*
X77865000Y-132965000D01*
%TO.N,TX_COIL_POS*%
X86500000Y-130200000D02*
X89462500Y-130200000D01*
X85400000Y-129100000D02*
X86500000Y-130200000D01*
X77900000Y-129100000D02*
X85400000Y-129100000D01*
X76575000Y-130425000D02*
X77900000Y-129100000D01*
X73400000Y-130425000D02*
X76575000Y-130425000D01*
%TO.N,Net-(D3-K)*%
X83500000Y-125600000D02*
X83500000Y-122500000D01*
X84800000Y-126900000D02*
X83500000Y-125600000D01*
X84400000Y-121600000D02*
X86700000Y-121600000D01*
X93500000Y-126900000D02*
X84800000Y-126900000D01*
X94700000Y-128100000D02*
X93500000Y-126900000D01*
X83500000Y-122500000D02*
X84400000Y-121600000D01*
X105137500Y-129437500D02*
X105200000Y-129500000D01*
X99900000Y-129437500D02*
X105137500Y-129437500D01*
X99712500Y-129250000D02*
X99900000Y-129437500D01*
%TO.N,Net-(Q1-C)*%
X95250000Y-131150000D02*
X91337500Y-131150000D01*
X95300000Y-131200000D02*
X95250000Y-131150000D01*
%TO.N,Net-(D2-K)*%
X107900000Y-121600000D02*
X102300000Y-121600000D01*
X106300000Y-108200000D02*
X107900000Y-109800000D01*
X107900000Y-109800000D02*
X107900000Y-121600000D01*
X104337500Y-108200000D02*
X106300000Y-108200000D01*
%TO.N,/TX2*%
X104817020Y-70800000D02*
X103939978Y-69922958D01*
X106200000Y-71300000D02*
X105700000Y-70800000D01*
X107100000Y-71300000D02*
X106200000Y-71300000D01*
X104887500Y-93212500D02*
X106000000Y-92100000D01*
X104887500Y-94300000D02*
X104887500Y-93212500D01*
X105700000Y-70800000D02*
X104817020Y-70800000D01*
D26*
%TO.N,/3V3*%
X103939978Y-85162958D02*
X110297042Y-85162958D01*
X110297042Y-85162958D02*
X110300000Y-85160000D01*
D27*
%TO.N,/D15*%
X110297042Y-80082958D02*
X110300000Y-80080000D01*
X103939978Y-80082958D02*
X110297042Y-80082958D01*
%TO.N,/D2*%
X110297042Y-77542958D02*
X110300000Y-77540000D01*
X103939978Y-77542958D02*
X110297042Y-77542958D01*
%TO.N,/D4*%
X110297042Y-75002958D02*
X110300000Y-75000000D01*
X103939978Y-75002958D02*
X110297042Y-75002958D01*
%TO.N,/RX2*%
X110297042Y-72462958D02*
X110300000Y-72460000D01*
X103939978Y-72462958D02*
X110297042Y-72462958D01*
%TO.N,/TX2*%
X103939978Y-69922958D02*
X110297042Y-69922958D01*
X110297042Y-69922958D02*
X110300000Y-69920000D01*
%TO.N,/D5*%
X110297042Y-67382958D02*
X110300000Y-67380000D01*
X103939978Y-67382958D02*
X110297042Y-67382958D01*
%TO.N,/D18*%
X110297042Y-64842958D02*
X110300000Y-64840000D01*
X103939978Y-64842958D02*
X110297042Y-64842958D01*
%TO.N,/D19*%
X103939978Y-62302958D02*
X110297042Y-62302958D01*
X110297042Y-62302958D02*
X110300000Y-62300000D01*
%TO.N,/D21*%
X110297042Y-59762958D02*
X110300000Y-59760000D01*
X103939978Y-59762958D02*
X110297042Y-59762958D01*
%TO.N,/RX0*%
X110297042Y-57222958D02*
X110300000Y-57220000D01*
X103939978Y-57222958D02*
X110297042Y-57222958D01*
%TO.N,/TX0*%
X110297042Y-54682958D02*
X110300000Y-54680000D01*
X103939978Y-54682958D02*
X110297042Y-54682958D01*
%TO.N,/D22*%
X110297042Y-52142958D02*
X110300000Y-52140000D01*
X103939978Y-52142958D02*
X110297042Y-52142958D01*
%TO.N,/D23*%
X103939978Y-49602958D02*
X110297042Y-49602958D01*
X110297042Y-49602958D02*
X110300000Y-49600000D01*
%TO.N,/Vibr_sig*%
X106712500Y-96600000D02*
X106712500Y-94300000D01*
X109260000Y-96600000D02*
X110200000Y-95660000D01*
X106712500Y-96600000D02*
X109260000Y-96600000D01*
%TO.N,/Vibr_gnd*%
X109500000Y-98900000D02*
X110200000Y-98200000D01*
X106712500Y-98900000D02*
X109500000Y-98900000D01*
%TO.N,/OP_OUT*%
X86087500Y-71312500D02*
X86087500Y-69400000D01*
X84300000Y-73100000D02*
X86087500Y-71312500D01*
X89812500Y-101287500D02*
X90700000Y-100400000D01*
X89000000Y-101287500D02*
X89812500Y-101287500D01*
X87587500Y-101287500D02*
X89000000Y-101287500D01*
X87200000Y-100900000D02*
X87587500Y-101287500D01*
X86482800Y-100900000D02*
X87200000Y-100900000D01*
%TO.N,/Rx_sig_to_opamp*%
X82600000Y-97700000D02*
X82787500Y-97512500D01*
X82300000Y-97700000D02*
X82600000Y-97700000D01*
X81799998Y-98200002D02*
X82300000Y-97700000D01*
X81799998Y-99600002D02*
X81799998Y-98200002D01*
X82787500Y-97512500D02*
X84200000Y-97512500D01*
X81300000Y-100100000D02*
X79612500Y-100100000D01*
X81799998Y-99600002D02*
X81300000Y-100100000D01*
X84400000Y-99600002D02*
X81799998Y-99600002D01*
%TO.N,Net-(U2-1IN-)*%
X82987500Y-103087500D02*
X84400000Y-103087500D01*
X82500000Y-102600000D02*
X82987500Y-103087500D01*
X82500000Y-101500000D02*
X82500000Y-102600000D01*
X83100000Y-100900000D02*
X82500000Y-101500000D01*
X84400000Y-100900000D02*
X83100000Y-100900000D01*
X88987500Y-103087500D02*
X84400000Y-103087500D01*
X89000000Y-103100000D02*
X88987500Y-103087500D01*
X89000000Y-103112500D02*
X89000000Y-103100000D01*
%TO.N,/D32*%
X77223535Y-63600000D02*
X78520577Y-62302958D01*
X75000000Y-91000000D02*
X75400000Y-90600000D01*
X76000000Y-63600000D02*
X77223535Y-63600000D01*
X75000000Y-93987500D02*
X75000000Y-91000000D01*
%TO.N,/Rx_sig_to_opamp*%
X76712500Y-95812500D02*
X75000000Y-95812500D01*
X79612500Y-98712500D02*
X76712500Y-95812500D01*
X79612500Y-100100000D02*
X79612500Y-98712500D01*
%TO.N,/Rx_gnd*%
X77252500Y-102565000D02*
X77787500Y-103100000D01*
X73000000Y-102565000D02*
X77252500Y-102565000D01*
%TO.N,/Rx_sig*%
X77712500Y-100025000D02*
X77787500Y-100100000D01*
X73000000Y-100025000D02*
X77712500Y-100025000D01*
%TO.N,/OP_OUT*%
X83812500Y-67125000D02*
X86087500Y-69400000D01*
X83812500Y-64800000D02*
X83812500Y-67125000D01*
X83912500Y-64700000D02*
X83812500Y-64800000D01*
X83912500Y-62300000D02*
X83912500Y-64700000D01*
D28*
%TO.N,/D33*%
X78800000Y-64800000D02*
X81987500Y-64800000D01*
X78757042Y-64842958D02*
X78800000Y-64800000D01*
X78520577Y-64842958D02*
X78757042Y-64842958D01*
%TO.N,/D32*%
X78800000Y-62300000D02*
X82087500Y-62300000D01*
X78797042Y-62302958D02*
X78800000Y-62300000D01*
X78520577Y-62302958D02*
X78797042Y-62302958D01*
D26*
%TO.N,GND*%
X100439542Y-82622958D02*
X100300000Y-82762500D01*
X103939978Y-82622958D02*
X100439542Y-82622958D01*
%TO.N,/3V3*%
X100625458Y-85162958D02*
X100300000Y-84837500D01*
X103939978Y-85162958D02*
X100625458Y-85162958D01*
D28*
%TO.N,/VIN*%
X78516216Y-85158597D02*
X78520577Y-85162958D01*
X72380880Y-85158597D02*
X78516216Y-85158597D01*
%TO.N,/D13*%
X78516216Y-80078597D02*
X78520577Y-80082958D01*
X72380880Y-80078597D02*
X78516216Y-80078597D01*
%TO.N,/D12*%
X78516216Y-77538597D02*
X78520577Y-77542958D01*
X72380880Y-77538597D02*
X78516216Y-77538597D01*
%TO.N,/D14*%
X78516216Y-74998597D02*
X78520577Y-75002958D01*
X72380880Y-74998597D02*
X78516216Y-74998597D01*
%TO.N,/D27*%
X78516216Y-72458597D02*
X78520577Y-72462958D01*
X72380880Y-72458597D02*
X78516216Y-72458597D01*
%TO.N,/D26*%
X78516216Y-69918597D02*
X78520577Y-69922958D01*
X72380880Y-69918597D02*
X78516216Y-69918597D01*
%TO.N,/D25*%
X78516216Y-67378597D02*
X78520577Y-67382958D01*
X72380880Y-67378597D02*
X78516216Y-67378597D01*
%TO.N,/D33*%
X72380880Y-64838597D02*
X78516216Y-64838597D01*
X78516216Y-64838597D02*
X78520577Y-64842958D01*
%TO.N,/D32*%
X78516216Y-62298597D02*
X78520577Y-62302958D01*
X72380880Y-62298597D02*
X78516216Y-62298597D01*
%TO.N,/D35*%
X78516216Y-59758597D02*
X78520577Y-59762958D01*
X72380880Y-59758597D02*
X78516216Y-59758597D01*
%TO.N,/D34*%
X72380880Y-57218597D02*
X78516216Y-57218597D01*
X78516216Y-57218597D02*
X78520577Y-57222958D01*
%TO.N,/VN*%
X78516216Y-54678597D02*
X78520577Y-54682958D01*
X72380880Y-54678597D02*
X78516216Y-54678597D01*
%TO.N,/VP*%
X78516216Y-52138597D02*
X78520577Y-52142958D01*
X72380880Y-52138597D02*
X78516216Y-52138597D01*
%TO.N,/EN*%
X78516216Y-49598597D02*
X78520577Y-49602958D01*
X72380880Y-49598597D02*
X78516216Y-49598597D01*
D27*
%TO.N,/D33*%
X81944542Y-64842958D02*
X81987500Y-64800000D01*
%TO.N,/D32*%
X82084542Y-62302958D02*
X82087500Y-62300000D01*
%TO.N,/VIN*%
X78517619Y-85160000D02*
X78520577Y-85162958D01*
%TO.N,GND*%
X78517619Y-82620000D02*
X78520577Y-82622958D01*
%TO.N,/D13*%
X78517619Y-80080000D02*
X78520577Y-80082958D01*
%TO.N,/D12*%
X78517619Y-77540000D02*
X78520577Y-77542958D01*
%TO.N,/D14*%
X78517619Y-75000000D02*
X78520577Y-75002958D01*
%TO.N,/D27*%
X78517619Y-72460000D02*
X78520577Y-72462958D01*
%TO.N,/D26*%
X78517619Y-69920000D02*
X78520577Y-69922958D01*
%TO.N,/D25*%
X78517619Y-67380000D02*
X78520577Y-67382958D01*
%TO.N,/D33*%
X78517619Y-64840000D02*
X78520577Y-64842958D01*
%TO.N,/D32*%
X78517619Y-62300000D02*
X78520577Y-62302958D01*
%TO.N,/D35*%
X78517619Y-59760000D02*
X78520577Y-59762958D01*
%TO.N,/D34*%
X78517619Y-57220000D02*
X78520577Y-57222958D01*
%TO.N,/VN*%
X78517619Y-54680000D02*
X78520577Y-54682958D01*
%TO.N,/VP*%
X78517619Y-52140000D02*
X78520577Y-52142958D01*
%TO.N,/EN*%
X78517619Y-49600000D02*
X78520577Y-49602958D01*
%TO.N,Net-(Q1-C)*%
X93900000Y-114900000D02*
X93900000Y-113162500D01*
%TO.N,/5V*%
X102450000Y-107237500D02*
X102462500Y-107250000D01*
D26*
X93900000Y-107237500D02*
X102450000Y-107237500D01*
%TD*%
%TA.AperFunction,Conductor*%
%TO.N,GND*%
G36*
X100153087Y-137127691D02*
G01*
X100153483Y-137128107D01*
X100440021Y-137444275D01*
X100443038Y-137452706D01*
X100439642Y-137460388D01*
X100201662Y-137699330D01*
X100197821Y-137701895D01*
X99888376Y-137829114D01*
X99879421Y-137829091D01*
X99873106Y-137822742D01*
X99872782Y-137821852D01*
X99654873Y-137139523D01*
X99655620Y-137130600D01*
X99662459Y-137124819D01*
X99666018Y-137124264D01*
X100144814Y-137124264D01*
X100153087Y-137127691D01*
G37*
%TD.AperFunction*%
%TD*%
%TA.AperFunction,Conductor*%
%TO.N,GND*%
G36*
X99908265Y-135369778D02*
G01*
X100506091Y-135968580D01*
X100509511Y-135976856D01*
X100507880Y-135982805D01*
X100153398Y-136581759D01*
X100146235Y-136587133D01*
X100143329Y-136587500D01*
X99656671Y-136587500D01*
X99648398Y-136584073D01*
X99646602Y-136581759D01*
X99292119Y-135982805D01*
X99290855Y-135973940D01*
X99293905Y-135968583D01*
X99891720Y-135369792D01*
X99899990Y-135366359D01*
X99908265Y-135369778D01*
G37*
%TD.AperFunction*%
%TD*%
%TA.AperFunction,Conductor*%
%TO.N,Pulse*%
G36*
X101821286Y-108863066D02*
G01*
X102439591Y-109139318D01*
X102445746Y-109145821D01*
X102445500Y-109154773D01*
X102439591Y-109160682D01*
X101821286Y-109436933D01*
X101813677Y-109437602D01*
X101433864Y-109342714D01*
X101426668Y-109337384D01*
X101425000Y-109331363D01*
X101425000Y-108968636D01*
X101428427Y-108960363D01*
X101433862Y-108957285D01*
X101813677Y-108862397D01*
X101821286Y-108863066D01*
G37*
%TD.AperFunction*%
%TD*%
%TA.AperFunction,Conductor*%
%TO.N,Pulse*%
G36*
X106065245Y-110280352D02*
G01*
X106069879Y-110285791D01*
X106199119Y-110595494D01*
X106199142Y-110604449D01*
X106199119Y-110604506D01*
X106069879Y-110914208D01*
X106063530Y-110920523D01*
X106056408Y-110921092D01*
X105509027Y-110792618D01*
X105501755Y-110787392D01*
X105500000Y-110781228D01*
X105500000Y-110418771D01*
X105503427Y-110410498D01*
X105509026Y-110407381D01*
X106056409Y-110278907D01*
X106065245Y-110280352D01*
G37*
%TD.AperFunction*%
%TD*%
%TA.AperFunction,Conductor*%
%TO.N,Pulse*%
G36*
X106666826Y-106576878D02*
G01*
X106923121Y-106833173D01*
X106926548Y-106841446D01*
X106924793Y-106847610D01*
X106628581Y-107325511D01*
X106621309Y-107330737D01*
X106614187Y-107330168D01*
X106303808Y-107202563D01*
X106297460Y-107196249D01*
X106169831Y-106885811D01*
X106169854Y-106876857D01*
X106174486Y-106871419D01*
X106652390Y-106575205D01*
X106661226Y-106573761D01*
X106666826Y-106576878D01*
G37*
%TD.AperFunction*%
%TD*%
%TA.AperFunction,Conductor*%
%TO.N,Pulse*%
G36*
X109357401Y-105736996D02*
G01*
X110192516Y-106551723D01*
X110196045Y-106559953D01*
X110192721Y-106568268D01*
X110192614Y-106568376D01*
X109357076Y-107402932D01*
X109348801Y-107406354D01*
X109341917Y-107404109D01*
X108504809Y-106794004D01*
X108500141Y-106786362D01*
X108500000Y-106784549D01*
X108500000Y-106415125D01*
X108503427Y-106406852D01*
X108504393Y-106405987D01*
X109341926Y-105736232D01*
X109350525Y-105733743D01*
X109357401Y-105736996D01*
G37*
%TD.AperFunction*%
%TD*%
%TA.AperFunction,Conductor*%
%TO.N,/RX2*%
G36*
X103619185Y-71688466D02*
G01*
X103619252Y-71688623D01*
X103939112Y-72458469D01*
X103939121Y-72467424D01*
X103939112Y-72467447D01*
X103619252Y-73237292D01*
X103612913Y-73243617D01*
X103603958Y-73243608D01*
X103603801Y-73243541D01*
X102247032Y-72656510D01*
X102240800Y-72650080D01*
X102239978Y-72645772D01*
X102239978Y-72280143D01*
X102243405Y-72271870D01*
X102247028Y-72269407D01*
X103603801Y-71682373D01*
X103612755Y-71682234D01*
X103619185Y-71688466D01*
G37*
%TD.AperFunction*%
%TD*%
%TA.AperFunction,Conductor*%
%TO.N,/RX2*%
G36*
X98689502Y-94903427D02*
G01*
X98692619Y-94909027D01*
X98821092Y-95456408D01*
X98819647Y-95465245D01*
X98814208Y-95469879D01*
X98504506Y-95599119D01*
X98495551Y-95599142D01*
X98495494Y-95599119D01*
X98185791Y-95469879D01*
X98179476Y-95463530D01*
X98178907Y-95456409D01*
X98307381Y-94909026D01*
X98312607Y-94901755D01*
X98318771Y-94900000D01*
X98681229Y-94900000D01*
X98689502Y-94903427D01*
G37*
%TD.AperFunction*%
%TD*%
%TA.AperFunction,Conductor*%
%TO.N,/RX2*%
G36*
X99721936Y-98170349D02*
G01*
X99728055Y-98176247D01*
X99966317Y-98692919D01*
X99966669Y-98701867D01*
X99963965Y-98706092D01*
X99707596Y-98962461D01*
X99699323Y-98965888D01*
X99692180Y-98963455D01*
X99163026Y-98555590D01*
X99158566Y-98547825D01*
X99160902Y-98539180D01*
X99161872Y-98538074D01*
X99397629Y-98300965D01*
X99401474Y-98298396D01*
X99712984Y-98170326D01*
X99721936Y-98170349D01*
G37*
%TD.AperFunction*%
%TD*%
%TA.AperFunction,Conductor*%
%TO.N,/OP_OUT*%
G36*
X88647609Y-97675205D02*
G01*
X89125511Y-97971418D01*
X89130737Y-97978690D01*
X89130168Y-97985812D01*
X89002563Y-98296191D01*
X88996248Y-98302540D01*
X88996191Y-98302563D01*
X88685812Y-98430168D01*
X88676857Y-98430145D01*
X88671418Y-98425511D01*
X88375206Y-97947610D01*
X88373761Y-97938773D01*
X88376876Y-97933175D01*
X88633174Y-97676877D01*
X88641446Y-97673451D01*
X88647609Y-97675205D01*
G37*
%TD.AperFunction*%
%TD*%
%TA.AperFunction,Conductor*%
%TO.N,/OP_OUT*%
G36*
X90605189Y-99901163D02*
G01*
X90811753Y-99987365D01*
X90913231Y-100029713D01*
X90919546Y-100036062D01*
X90919789Y-100044316D01*
X90713438Y-100644346D01*
X90707507Y-100651055D01*
X90698569Y-100651605D01*
X90694101Y-100648814D01*
X90439458Y-100394171D01*
X90437060Y-100390696D01*
X90281580Y-100044921D01*
X90281313Y-100035970D01*
X90287453Y-100029452D01*
X90287721Y-100029335D01*
X90596208Y-99901161D01*
X90605163Y-99901153D01*
X90605189Y-99901163D01*
G37*
%TD.AperFunction*%
%TD*%
%TA.AperFunction,Conductor*%
%TO.N,Net-(D3-K)*%
G36*
X92366137Y-129057285D02*
G01*
X92373332Y-129062615D01*
X92375000Y-129068636D01*
X92375000Y-129431363D01*
X92371573Y-129439636D01*
X92366136Y-129442714D01*
X91986322Y-129537602D01*
X91978713Y-129536933D01*
X91360408Y-129260682D01*
X91354253Y-129254179D01*
X91354499Y-129245227D01*
X91360408Y-129239318D01*
X91978714Y-128963065D01*
X91986322Y-128962397D01*
X92366137Y-129057285D01*
G37*
%TD.AperFunction*%
%TD*%
%TA.AperFunction,Conductor*%
%TO.N,Net-(D3-K)*%
G36*
X98382974Y-128845451D02*
G01*
X99868978Y-129425011D01*
X99875441Y-129431209D01*
X99875627Y-129440162D01*
X99869429Y-129446625D01*
X99868009Y-129447141D01*
X98264174Y-129915862D01*
X98255272Y-129914894D01*
X98253943Y-129914045D01*
X97617251Y-129444007D01*
X97612630Y-129436336D01*
X97612500Y-129434594D01*
X97612500Y-129068365D01*
X97615927Y-129060092D01*
X97621032Y-129057102D01*
X98375563Y-128845088D01*
X98382974Y-128845451D01*
G37*
%TD.AperFunction*%
%TD*%
%TA.AperFunction,Conductor*%
%TO.N,GND*%
G36*
X89585811Y-68169830D02*
G01*
X89896191Y-68297436D01*
X89902540Y-68303751D01*
X89902563Y-68303808D01*
X90030168Y-68614187D01*
X90030145Y-68623142D01*
X90025511Y-68628581D01*
X89547610Y-68924793D01*
X89538773Y-68926238D01*
X89533173Y-68923121D01*
X89276878Y-68666826D01*
X89273451Y-68658553D01*
X89275205Y-68652391D01*
X89571419Y-68174486D01*
X89578690Y-68169262D01*
X89585811Y-68169830D01*
G37*
%TD.AperFunction*%
%TD*%
%TA.AperFunction,Conductor*%
%TO.N,GND*%
G36*
X88262395Y-68948294D02*
G01*
X88267796Y-68951421D01*
X88717002Y-69211495D01*
X88719413Y-69213347D01*
X88976362Y-69470296D01*
X88979789Y-69478569D01*
X88976362Y-69486842D01*
X88973413Y-69488988D01*
X88262167Y-69852434D01*
X88253241Y-69853147D01*
X88247477Y-69849028D01*
X87917035Y-69407708D01*
X87914820Y-69399031D01*
X87917023Y-69393699D01*
X88247161Y-68951419D01*
X88254854Y-68946841D01*
X88262395Y-68948294D01*
G37*
%TD.AperFunction*%
%TD*%
%TA.AperFunction,Conductor*%
%TO.N,Net-(L2-Pad2)*%
G36*
X92508416Y-120604227D02*
G01*
X93993532Y-121346766D01*
X93999400Y-121353531D01*
X94000000Y-121357231D01*
X94000000Y-121842768D01*
X93996573Y-121851041D01*
X93993532Y-121853233D01*
X92508416Y-122595772D01*
X92499484Y-122596407D01*
X92494052Y-122592621D01*
X91704858Y-121607314D01*
X91702361Y-121598715D01*
X91704858Y-121592686D01*
X92494052Y-120607377D01*
X92501899Y-120603063D01*
X92508416Y-120604227D01*
G37*
%TD.AperFunction*%
%TD*%
%TA.AperFunction,Conductor*%
%TO.N,Net-(L2-Pad2)*%
G36*
X96505947Y-120607378D02*
G01*
X97295141Y-121592686D01*
X97297638Y-121601285D01*
X97295141Y-121607314D01*
X96505947Y-122592621D01*
X96498100Y-122596936D01*
X96491583Y-122595772D01*
X95006468Y-121853233D01*
X95000600Y-121846468D01*
X95000000Y-121842768D01*
X95000000Y-121357231D01*
X95003427Y-121348958D01*
X95006468Y-121346766D01*
X96491583Y-120604226D01*
X96500515Y-120603592D01*
X96505947Y-120607378D01*
G37*
%TD.AperFunction*%
%TD*%
%TA.AperFunction,Conductor*%
%TO.N,GND*%
G36*
X81666826Y-100776878D02*
G01*
X81923121Y-101033173D01*
X81926548Y-101041446D01*
X81924793Y-101047610D01*
X81628581Y-101525511D01*
X81621309Y-101530737D01*
X81614187Y-101530168D01*
X81303808Y-101402563D01*
X81297460Y-101396249D01*
X81169831Y-101085811D01*
X81169854Y-101076857D01*
X81174486Y-101071419D01*
X81652390Y-100775205D01*
X81661226Y-100773761D01*
X81666826Y-100776878D01*
G37*
%TD.AperFunction*%
%TD*%
%TA.AperFunction,Conductor*%
%TO.N,GND*%
G36*
X82354494Y-94362043D02*
G01*
X82355557Y-94363273D01*
X82765662Y-94910079D01*
X82767884Y-94918754D01*
X82764575Y-94925372D01*
X82425372Y-95264575D01*
X82417099Y-95268002D01*
X82410079Y-95265662D01*
X81863273Y-94855557D01*
X81858711Y-94847852D01*
X81860933Y-94839177D01*
X81861978Y-94837967D01*
X82099293Y-94599293D01*
X82337951Y-94361994D01*
X82346230Y-94358593D01*
X82354494Y-94362043D01*
G37*
%TD.AperFunction*%
%TD*%
%TA.AperFunction,Conductor*%
%TO.N,GND*%
G36*
X83872183Y-95221511D02*
G01*
X83876712Y-95225346D01*
X84196284Y-95680780D01*
X84198231Y-95689520D01*
X84196284Y-95694220D01*
X83876712Y-96149653D01*
X83869155Y-96154457D01*
X83863241Y-96153966D01*
X83663600Y-96083495D01*
X83257806Y-95940255D01*
X83251145Y-95934270D01*
X83250000Y-95929222D01*
X83250000Y-95445777D01*
X83253427Y-95437504D01*
X83257803Y-95434745D01*
X83863243Y-95221033D01*
X83872183Y-95221511D01*
G37*
%TD.AperFunction*%
%TD*%
%TA.AperFunction,Conductor*%
%TO.N,GND*%
G36*
X80821274Y-105168274D02*
G01*
X80823071Y-105169745D01*
X81161856Y-105508530D01*
X81165283Y-105516803D01*
X81161856Y-105525076D01*
X81159846Y-105526686D01*
X80545657Y-105915931D01*
X80536835Y-105917465D01*
X80529511Y-105912311D01*
X80528596Y-105910554D01*
X80399293Y-105600707D01*
X80399270Y-105600650D01*
X80271454Y-105289759D01*
X80271477Y-105280804D01*
X80277826Y-105274489D01*
X80279955Y-105273842D01*
X80812489Y-105166548D01*
X80821274Y-105168274D01*
G37*
%TD.AperFunction*%
%TD*%
%TA.AperFunction,Conductor*%
%TO.N,GND*%
G36*
X80099665Y-102919535D02*
G01*
X80104962Y-102924336D01*
X80531103Y-103661767D01*
X80532276Y-103670645D01*
X80529246Y-103675894D01*
X80188428Y-104016712D01*
X80180155Y-104020139D01*
X80174249Y-104018539D01*
X80171125Y-104016712D01*
X79424538Y-103580140D01*
X79419127Y-103573007D01*
X79419627Y-103565585D01*
X79609855Y-103103994D01*
X79616174Y-103097653D01*
X79616504Y-103097521D01*
X80090716Y-102919238D01*
X80099665Y-102919535D01*
G37*
%TD.AperFunction*%
%TD*%
%TA.AperFunction,Conductor*%
%TO.N,GND*%
G36*
X84072183Y-104446511D02*
G01*
X84076712Y-104450346D01*
X84396284Y-104905780D01*
X84398231Y-104914520D01*
X84396284Y-104919220D01*
X84076712Y-105374653D01*
X84069155Y-105379457D01*
X84063241Y-105378966D01*
X83863600Y-105308495D01*
X83457806Y-105165255D01*
X83451145Y-105159270D01*
X83450000Y-105154222D01*
X83450000Y-104670777D01*
X83453427Y-104662504D01*
X83457803Y-104659745D01*
X84063243Y-104446033D01*
X84072183Y-104446511D01*
G37*
%TD.AperFunction*%
%TD*%
%TA.AperFunction,Conductor*%
%TO.N,GND*%
G36*
X106389920Y-101934337D02*
G01*
X106936726Y-102344442D01*
X106941288Y-102352147D01*
X106939066Y-102360822D01*
X106938003Y-102362051D01*
X106700755Y-102600659D01*
X106700707Y-102600707D01*
X106462051Y-102838003D01*
X106453769Y-102841406D01*
X106445505Y-102837955D01*
X106444442Y-102836726D01*
X106034337Y-102289920D01*
X106032115Y-102281245D01*
X106035423Y-102274629D01*
X106374628Y-101935423D01*
X106382900Y-101931997D01*
X106389920Y-101934337D01*
G37*
%TD.AperFunction*%
%TD*%
%TA.AperFunction,Conductor*%
%TO.N,GND*%
G36*
X104894220Y-98903715D02*
G01*
X105349653Y-99223287D01*
X105354457Y-99230844D01*
X105353966Y-99236758D01*
X105140255Y-99842194D01*
X105134270Y-99848855D01*
X105129222Y-99850000D01*
X104645778Y-99850000D01*
X104637505Y-99846573D01*
X104634745Y-99842194D01*
X104564902Y-99644333D01*
X104421033Y-99236755D01*
X104421511Y-99227816D01*
X104425344Y-99223289D01*
X104880780Y-98903714D01*
X104889520Y-98901768D01*
X104894220Y-98903715D01*
G37*
%TD.AperFunction*%
%TD*%
%TA.AperFunction,Conductor*%
%TO.N,GND*%
G36*
X104894220Y-96603715D02*
G01*
X105349653Y-96923287D01*
X105354457Y-96930844D01*
X105353966Y-96936758D01*
X105140255Y-97542194D01*
X105134270Y-97548855D01*
X105129222Y-97550000D01*
X104645778Y-97550000D01*
X104637505Y-97546573D01*
X104634745Y-97542194D01*
X104564902Y-97344333D01*
X104421033Y-96936755D01*
X104421511Y-96927816D01*
X104425344Y-96923289D01*
X104880780Y-96603714D01*
X104889520Y-96601768D01*
X104894220Y-96603715D01*
G37*
%TD.AperFunction*%
%TD*%
%TA.AperFunction,Conductor*%
%TO.N,GND*%
G36*
X105137495Y-97953427D02*
G01*
X105140255Y-97957806D01*
X105353966Y-98563241D01*
X105353488Y-98572183D01*
X105349653Y-98576712D01*
X104894220Y-98896284D01*
X104885480Y-98898231D01*
X104880780Y-98896284D01*
X104425346Y-98576712D01*
X104420542Y-98569155D01*
X104421032Y-98563245D01*
X104634745Y-97957806D01*
X104640730Y-97951145D01*
X104645778Y-97950000D01*
X105129222Y-97950000D01*
X105137495Y-97953427D01*
G37*
%TD.AperFunction*%
%TD*%
%TA.AperFunction,Conductor*%
%TO.N,GND*%
G36*
X106460822Y-102360933D02*
G01*
X106462045Y-102361991D01*
X106700707Y-102599293D01*
X106938003Y-102837949D01*
X106941406Y-102846230D01*
X106937955Y-102854494D01*
X106936726Y-102855557D01*
X106389920Y-103265662D01*
X106381245Y-103267884D01*
X106374627Y-103264575D01*
X106035424Y-102925372D01*
X106031997Y-102917099D01*
X106034336Y-102910080D01*
X106444443Y-102363271D01*
X106452147Y-102358711D01*
X106460822Y-102360933D01*
G37*
%TD.AperFunction*%
%TD*%
%TA.AperFunction,Conductor*%
%TO.N,GND*%
G36*
X104613371Y-103441093D02*
G01*
X105218974Y-103642685D01*
X105225742Y-103648549D01*
X105226979Y-103653786D01*
X105226979Y-104136913D01*
X105223552Y-104145186D01*
X105218974Y-104148014D01*
X104613372Y-104349605D01*
X104604440Y-104348967D01*
X104600309Y-104345513D01*
X104268722Y-103902358D01*
X104266510Y-103893682D01*
X104268723Y-103888341D01*
X104600311Y-103445184D01*
X104608009Y-103440614D01*
X104613371Y-103441093D01*
G37*
%TD.AperFunction*%
%TD*%
%TA.AperFunction,Conductor*%
%TO.N,GND*%
G36*
X78560822Y-123360933D02*
G01*
X78562045Y-123361991D01*
X78800707Y-123599293D01*
X79038003Y-123837949D01*
X79041406Y-123846230D01*
X79037955Y-123854494D01*
X79036726Y-123855557D01*
X78489920Y-124265662D01*
X78481245Y-124267884D01*
X78474627Y-124264575D01*
X78135424Y-123925372D01*
X78131997Y-123917099D01*
X78134336Y-123910080D01*
X78544443Y-123363271D01*
X78552147Y-123358711D01*
X78560822Y-123360933D01*
G37*
%TD.AperFunction*%
%TD*%
%TA.AperFunction,Conductor*%
%TO.N,GND*%
G36*
X78151648Y-125053427D02*
G01*
X78153408Y-125055680D01*
X78520303Y-125667172D01*
X78521621Y-125676030D01*
X78518550Y-125681459D01*
X77908280Y-126292706D01*
X77900009Y-126296139D01*
X77891733Y-126292719D01*
X77891720Y-126292706D01*
X77281449Y-125681459D01*
X77278029Y-125673183D01*
X77279695Y-125667174D01*
X77646592Y-125055680D01*
X77653787Y-125050349D01*
X77656625Y-125050000D01*
X78143375Y-125050000D01*
X78151648Y-125053427D01*
G37*
%TD.AperFunction*%
%TD*%
%TA.AperFunction,Conductor*%
%TO.N,GND*%
G36*
X108489920Y-125734337D02*
G01*
X109036726Y-126144442D01*
X109041288Y-126152147D01*
X109039066Y-126160822D01*
X109038003Y-126162051D01*
X108800755Y-126400659D01*
X108800707Y-126400707D01*
X108562051Y-126638003D01*
X108553769Y-126641406D01*
X108545505Y-126637955D01*
X108544442Y-126636726D01*
X108134337Y-126089920D01*
X108132115Y-126081245D01*
X108135423Y-126074629D01*
X108474628Y-125735423D01*
X108482900Y-125731997D01*
X108489920Y-125734337D01*
G37*
%TD.AperFunction*%
%TD*%
%TA.AperFunction,Conductor*%
%TO.N,GND*%
G36*
X107907920Y-124407069D02*
G01*
X108572145Y-125005760D01*
X108575996Y-125013845D01*
X108573003Y-125022284D01*
X108572758Y-125022548D01*
X108182911Y-125429217D01*
X108182738Y-125429393D01*
X107839411Y-125772720D01*
X107831138Y-125776147D01*
X107822865Y-125772720D01*
X107821384Y-125770909D01*
X107332258Y-125032615D01*
X107330546Y-125023825D01*
X107333377Y-125018258D01*
X107344804Y-125005760D01*
X107891455Y-124407865D01*
X107899566Y-124404073D01*
X107907920Y-124407069D01*
G37*
%TD.AperFunction*%
%TD*%
%TA.AperFunction,Conductor*%
%TO.N,GND*%
G36*
X105192957Y-132299220D02*
G01*
X105201197Y-132302723D01*
X105203662Y-132306456D01*
X105454855Y-132915240D01*
X105454843Y-132924195D01*
X105449587Y-132930005D01*
X104317499Y-133539591D01*
X104308590Y-133540496D01*
X104303679Y-133537562D01*
X103961789Y-133195672D01*
X103958362Y-133187399D01*
X103959237Y-133182959D01*
X104321993Y-132298447D01*
X104328302Y-132292095D01*
X104332925Y-132291190D01*
X105192957Y-132299220D01*
G37*
%TD.AperFunction*%
%TD*%
%TA.AperFunction,Conductor*%
%TO.N,GND*%
G36*
X101423966Y-134771421D02*
G01*
X101425732Y-134772384D01*
X101995100Y-135149719D01*
X101996910Y-135151199D01*
X102338009Y-135492298D01*
X102341436Y-135500571D01*
X102338009Y-135508844D01*
X102334844Y-135511097D01*
X101431860Y-135949328D01*
X101422921Y-135949857D01*
X101422548Y-135949721D01*
X99927448Y-135374048D01*
X99920959Y-135367877D01*
X99920733Y-135358925D01*
X99926904Y-135352436D01*
X99927383Y-135352236D01*
X101415014Y-134771239D01*
X101423966Y-134771421D01*
G37*
%TD.AperFunction*%
%TD*%
%TA.AperFunction,Conductor*%
%TO.N,GND*%
G36*
X79198740Y-138617215D02*
G01*
X79203881Y-138624547D01*
X79204160Y-138627087D01*
X79204160Y-139106209D01*
X79200733Y-139114482D01*
X79198912Y-139115969D01*
X78745740Y-139415556D01*
X78736949Y-139417260D01*
X78729528Y-139412248D01*
X78728493Y-139410307D01*
X78599000Y-139100000D01*
X78471345Y-138789494D01*
X78471368Y-138780540D01*
X78477717Y-138774225D01*
X78479622Y-138773626D01*
X79189921Y-138615666D01*
X79198740Y-138617215D01*
G37*
%TD.AperFunction*%
%TD*%
%TA.AperFunction,Conductor*%
%TO.N,GND*%
G36*
X77907690Y-135807413D02*
G01*
X78534221Y-136413267D01*
X78537786Y-136421482D01*
X78534499Y-136429811D01*
X78534423Y-136429889D01*
X78112132Y-136858579D01*
X78112070Y-136858641D01*
X77769236Y-137201474D01*
X77760963Y-137204901D01*
X77752690Y-137201474D01*
X77750897Y-137199164D01*
X77296840Y-136432692D01*
X77295571Y-136423828D01*
X77298506Y-136418584D01*
X77891159Y-135807676D01*
X77899380Y-135804125D01*
X77907690Y-135807413D01*
G37*
%TD.AperFunction*%
%TD*%
%TA.AperFunction,Conductor*%
%TO.N,GND*%
G36*
X81783893Y-138270810D02*
G01*
X83273052Y-138851600D01*
X83279515Y-138857798D01*
X83279701Y-138866751D01*
X83273503Y-138873214D01*
X83273052Y-138873400D01*
X81783893Y-139454189D01*
X81774940Y-139454003D01*
X81774859Y-139453967D01*
X81019417Y-139115598D01*
X81013268Y-139109088D01*
X81012500Y-139104920D01*
X81012500Y-138620079D01*
X81015927Y-138611806D01*
X81019413Y-138609403D01*
X81774859Y-138271031D01*
X81783810Y-138270778D01*
X81783893Y-138270810D01*
G37*
%TD.AperFunction*%
%TD*%
%TA.AperFunction,Conductor*%
%TO.N,GND*%
G36*
X88425372Y-111635424D02*
G01*
X88764575Y-111974627D01*
X88768002Y-111982900D01*
X88765662Y-111989920D01*
X88355557Y-112536726D01*
X88347852Y-112541288D01*
X88339177Y-112539066D01*
X88337953Y-112538007D01*
X88099293Y-112300707D01*
X87861995Y-112062049D01*
X87858593Y-112053769D01*
X87862044Y-112045505D01*
X87863264Y-112044449D01*
X88410080Y-111634336D01*
X88418754Y-111632115D01*
X88425372Y-111635424D01*
G37*
%TD.AperFunction*%
%TD*%
%TA.AperFunction,Conductor*%
%TO.N,GND*%
G36*
X89108059Y-109844157D02*
G01*
X89680978Y-110388528D01*
X89684615Y-110396711D01*
X89683187Y-110402619D01*
X89353328Y-111006409D01*
X89346354Y-111012027D01*
X89343060Y-111012500D01*
X88856940Y-111012500D01*
X88848667Y-111009073D01*
X88846672Y-111006409D01*
X88516811Y-110402617D01*
X88515853Y-110393716D01*
X88519019Y-110388530D01*
X89091941Y-109844156D01*
X89100299Y-109840943D01*
X89108059Y-109844157D01*
G37*
%TD.AperFunction*%
%TD*%
%TA.AperFunction,Conductor*%
%TO.N,/RX2*%
G36*
X100443037Y-101123777D02*
G01*
X100445518Y-101127441D01*
X100705273Y-101733501D01*
X100705382Y-101742455D01*
X100701528Y-101747478D01*
X100258988Y-102078605D01*
X100250311Y-102080818D01*
X100244970Y-102078605D01*
X99802429Y-101747478D01*
X99797857Y-101739778D01*
X99798683Y-101733503D01*
X100058440Y-101127441D01*
X100064849Y-101121187D01*
X100069194Y-101120350D01*
X100434764Y-101120350D01*
X100443037Y-101123777D01*
G37*
%TD.AperFunction*%
%TD*%
%TA.AperFunction,Conductor*%
%TO.N,Pulse*%
G36*
X102104204Y-103445929D02*
G01*
X102435234Y-103888341D01*
X102437447Y-103897018D01*
X102435234Y-103902359D01*
X102104010Y-104345028D01*
X102096310Y-104349600D01*
X102090218Y-104348850D01*
X101484255Y-104101322D01*
X101477892Y-104095021D01*
X101476979Y-104090491D01*
X101476979Y-103724924D01*
X101480406Y-103716651D01*
X101483887Y-103714250D01*
X102090047Y-103442262D01*
X102098997Y-103442003D01*
X102104204Y-103445929D01*
G37*
%TD.AperFunction*%
%TD*%
%TA.AperFunction,Conductor*%
%TO.N,Pulse*%
G36*
X100589179Y-103442383D02*
G01*
X101195069Y-103714249D01*
X101201214Y-103720763D01*
X101201979Y-103724924D01*
X101201979Y-104090775D01*
X101198552Y-104099048D01*
X101195069Y-104101450D01*
X100589182Y-104373315D01*
X100580231Y-104373575D01*
X100574815Y-104369360D01*
X100385140Y-104099048D01*
X100255693Y-103914569D01*
X100253747Y-103905830D01*
X100255694Y-103901130D01*
X100574816Y-103446338D01*
X100582372Y-103441535D01*
X100589179Y-103442383D01*
G37*
%TD.AperFunction*%
%TD*%
%TA.AperFunction,Conductor*%
%TO.N,Pulse*%
G36*
X100258086Y-103913160D02*
G01*
X100494602Y-104157552D01*
X100650824Y-104318975D01*
X100654114Y-104327304D01*
X100652119Y-104333650D01*
X100293978Y-104865188D01*
X100286513Y-104870134D01*
X100284275Y-104870350D01*
X99919225Y-104870350D01*
X99910952Y-104866923D01*
X99907722Y-104860789D01*
X99875635Y-104688279D01*
X99778552Y-104166309D01*
X99780409Y-104157552D01*
X99784587Y-104153829D01*
X100244214Y-103910952D01*
X100253128Y-103910118D01*
X100258086Y-103913160D01*
G37*
%TD.AperFunction*%
%TD*%
%TA.AperFunction,Conductor*%
%TO.N,Pulse*%
G36*
X100289015Y-105503427D02*
G01*
X100292252Y-105509599D01*
X100397489Y-106086245D01*
X100395603Y-106094999D01*
X100388080Y-106099856D01*
X100386018Y-106100046D01*
X100100039Y-106100999D01*
X100099961Y-106100999D01*
X99813981Y-106100046D01*
X99805719Y-106096592D01*
X99802320Y-106088307D01*
X99802510Y-106086245D01*
X99907748Y-105509599D01*
X99912605Y-105502076D01*
X99919258Y-105500000D01*
X100280742Y-105500000D01*
X100289015Y-105503427D01*
G37*
%TD.AperFunction*%
%TD*%
%TA.AperFunction,Conductor*%
%TO.N,Pulse*%
G36*
X100218760Y-108197776D02*
G01*
X100220082Y-108199368D01*
X100510935Y-108620083D01*
X100553418Y-108681533D01*
X100555304Y-108690287D01*
X100552067Y-108696459D01*
X100296459Y-108952067D01*
X100288186Y-108955494D01*
X100281533Y-108953418D01*
X99899866Y-108689560D01*
X99799368Y-108620082D01*
X99794512Y-108612560D01*
X99796398Y-108603806D01*
X99797721Y-108602213D01*
X99999238Y-108399348D01*
X99999293Y-108399293D01*
X100202213Y-108197721D01*
X100210498Y-108194322D01*
X100218760Y-108197776D01*
G37*
%TD.AperFunction*%
%TD*%
%TA.AperFunction,Conductor*%
%TO.N,/3V3*%
G36*
X74792545Y-112407097D02*
G01*
X74799011Y-112413293D01*
X74800000Y-112418000D01*
X74800000Y-112901999D01*
X74796573Y-112910272D01*
X74792545Y-112912902D01*
X73435941Y-113441146D01*
X73426989Y-113440954D01*
X73420891Y-113434732D01*
X73100865Y-112664489D01*
X73100856Y-112655534D01*
X73100865Y-112655511D01*
X73199548Y-112418000D01*
X73420891Y-111885266D01*
X73427230Y-111878942D01*
X73435941Y-111878853D01*
X74792545Y-112407097D01*
G37*
%TD.AperFunction*%
%TD*%
%TA.AperFunction,Conductor*%
%TO.N,/3V3*%
G36*
X100308059Y-84844157D02*
G01*
X100880978Y-85388528D01*
X100884615Y-85396711D01*
X100883187Y-85402619D01*
X100553328Y-86006409D01*
X100546354Y-86012027D01*
X100543060Y-86012500D01*
X100056940Y-86012500D01*
X100048667Y-86009073D01*
X100046672Y-86006409D01*
X99716811Y-85402617D01*
X99715853Y-85393716D01*
X99719019Y-85388530D01*
X100291941Y-84844156D01*
X100300299Y-84840943D01*
X100308059Y-84844157D01*
G37*
%TD.AperFunction*%
%TD*%
%TA.AperFunction,Conductor*%
%TO.N,Net-(Q1-C)*%
G36*
X95994999Y-115704396D02*
G01*
X95999856Y-115711919D01*
X96000046Y-115713981D01*
X96001000Y-116000000D01*
X96001000Y-116000078D01*
X96000046Y-116286018D01*
X95996592Y-116294280D01*
X95988307Y-116297679D01*
X95986245Y-116297489D01*
X95409599Y-116192251D01*
X95402076Y-116187394D01*
X95400000Y-116180741D01*
X95400000Y-115819258D01*
X95403427Y-115810985D01*
X95409598Y-115807748D01*
X95986245Y-115702510D01*
X95994999Y-115704396D01*
G37*
%TD.AperFunction*%
%TD*%
%TA.AperFunction,Conductor*%
%TO.N,/5V*%
G36*
X92383893Y-106645810D02*
G01*
X93873052Y-107226600D01*
X93879515Y-107232798D01*
X93879701Y-107241751D01*
X93873503Y-107248214D01*
X93873052Y-107248400D01*
X92383893Y-107829189D01*
X92374940Y-107829003D01*
X92374859Y-107828967D01*
X91619417Y-107490598D01*
X91613268Y-107484088D01*
X91612500Y-107479920D01*
X91612500Y-106995079D01*
X91615927Y-106986806D01*
X91619413Y-106984403D01*
X92374859Y-106646031D01*
X92383810Y-106645778D01*
X92383893Y-106645810D01*
G37*
%TD.AperFunction*%
%TD*%
%TA.AperFunction,Conductor*%
%TO.N,/5V*%
G36*
X89677930Y-107197146D02*
G01*
X90405417Y-107509459D01*
X90411666Y-107515870D01*
X90412500Y-107520209D01*
X90412500Y-108004790D01*
X90409073Y-108013063D01*
X90405416Y-108015541D01*
X89677933Y-108327852D01*
X89668978Y-108327967D01*
X89665067Y-108325397D01*
X89350974Y-108013063D01*
X89107341Y-107770794D01*
X89103892Y-107762533D01*
X89107296Y-107754250D01*
X89665068Y-107199601D01*
X89673350Y-107196198D01*
X89677930Y-107197146D01*
G37*
%TD.AperFunction*%
%TD*%
%TA.AperFunction,Conductor*%
%TO.N,/5V*%
G36*
X88534932Y-107199602D02*
G01*
X89092657Y-107754204D01*
X89096107Y-107762467D01*
X89092703Y-107770750D01*
X89092657Y-107770796D01*
X88534932Y-108325397D01*
X88526649Y-108328801D01*
X88522066Y-108327852D01*
X88516347Y-108325397D01*
X87794584Y-108015541D01*
X87788334Y-108009129D01*
X87787500Y-108004790D01*
X87787500Y-107520209D01*
X87790927Y-107511936D01*
X87794580Y-107509460D01*
X88522068Y-107197146D01*
X88531021Y-107197032D01*
X88534932Y-107199602D01*
G37*
%TD.AperFunction*%
%TD*%
%TA.AperFunction,Conductor*%
%TO.N,/5V*%
G36*
X73958044Y-114355678D02*
G01*
X74795047Y-114946504D01*
X74799830Y-114954074D01*
X74800000Y-114956062D01*
X74800000Y-115443937D01*
X74796573Y-115452210D01*
X74795047Y-115453496D01*
X73958046Y-116044320D01*
X73949311Y-116046291D01*
X73943031Y-116043039D01*
X73352794Y-115453496D01*
X73107286Y-115208276D01*
X73103855Y-115200007D01*
X73107276Y-115191733D01*
X73943032Y-114356959D01*
X73951306Y-114353538D01*
X73958044Y-114355678D01*
G37*
%TD.AperFunction*%
%TD*%
%TA.AperFunction,Conductor*%
%TO.N,TX_COIL_NEG*%
G36*
X81749803Y-132369209D02*
G01*
X83271947Y-132926856D01*
X83278536Y-132932920D01*
X83278908Y-132941867D01*
X83272844Y-132948456D01*
X83272173Y-132948742D01*
X81783871Y-133529198D01*
X81774919Y-133529012D01*
X81774872Y-133528991D01*
X81019452Y-133193586D01*
X81013281Y-133187097D01*
X81012500Y-133182893D01*
X81012500Y-132816101D01*
X81015927Y-132807828D01*
X81018145Y-132806089D01*
X81739730Y-132370180D01*
X81748584Y-132368837D01*
X81749803Y-132369209D01*
G37*
%TD.AperFunction*%
%TD*%
%TA.AperFunction,Conductor*%
%TO.N,TX_COIL_NEG*%
G36*
X78627644Y-132397747D02*
G01*
X79393805Y-132806197D01*
X79399492Y-132813111D01*
X79400000Y-132816520D01*
X79400000Y-133183479D01*
X79396573Y-133191752D01*
X79393804Y-133193803D01*
X78627646Y-133602251D01*
X78618733Y-133603119D01*
X78614618Y-133600887D01*
X78331330Y-133363017D01*
X77909669Y-133008958D01*
X77905538Y-133001016D01*
X77908234Y-132992476D01*
X77909665Y-132991044D01*
X78614619Y-132399111D01*
X78623158Y-132396416D01*
X78627644Y-132397747D01*
G37*
%TD.AperFunction*%
%TD*%
%TA.AperFunction,Conductor*%
%TO.N,TX_COIL_NEG*%
G36*
X73736019Y-132184349D02*
G01*
X73736176Y-132184416D01*
X75092947Y-132771448D01*
X75099178Y-132777877D01*
X75100000Y-132782185D01*
X75100000Y-133147814D01*
X75096573Y-133156087D01*
X75092946Y-133158552D01*
X73736176Y-133745583D01*
X73727222Y-133745723D01*
X73720792Y-133739491D01*
X73720747Y-133739387D01*
X73400864Y-132969488D01*
X73400856Y-132960534D01*
X73400865Y-132960511D01*
X73478150Y-132774500D01*
X73720726Y-132190663D01*
X73727064Y-132184340D01*
X73736019Y-132184349D01*
G37*
%TD.AperFunction*%
%TD*%
%TA.AperFunction,Conductor*%
%TO.N,TX_COIL_NEG*%
G36*
X77185152Y-132398920D02*
G01*
X77890329Y-132991040D01*
X77894461Y-132998984D01*
X77891765Y-133007524D01*
X77890329Y-133008960D01*
X77185609Y-133600696D01*
X77177069Y-133603392D01*
X77172230Y-133601866D01*
X76405845Y-133158878D01*
X76400397Y-133151770D01*
X76400000Y-133148748D01*
X76400000Y-132781807D01*
X76403427Y-132773534D01*
X76406562Y-132771296D01*
X77172495Y-132397365D01*
X77181433Y-132396816D01*
X77185152Y-132398920D01*
G37*
%TD.AperFunction*%
%TD*%
%TA.AperFunction,Conductor*%
%TO.N,TX_COIL_POS*%
G36*
X88821286Y-129913066D02*
G01*
X89439591Y-130189318D01*
X89445746Y-130195821D01*
X89445500Y-130204773D01*
X89439591Y-130210682D01*
X88821286Y-130486933D01*
X88813677Y-130487602D01*
X88433864Y-130392714D01*
X88426668Y-130387384D01*
X88425000Y-130381363D01*
X88425000Y-130018636D01*
X88428427Y-130010363D01*
X88433862Y-130007285D01*
X88813677Y-129912397D01*
X88821286Y-129913066D01*
G37*
%TD.AperFunction*%
%TD*%
%TA.AperFunction,Conductor*%
%TO.N,TX_COIL_POS*%
G36*
X78627644Y-128497747D02*
G01*
X79393805Y-128906197D01*
X79399492Y-128913111D01*
X79400000Y-128916520D01*
X79400000Y-129283479D01*
X79396573Y-129291752D01*
X79393804Y-129293803D01*
X78627646Y-129702251D01*
X78618733Y-129703119D01*
X78614618Y-129700887D01*
X78331330Y-129463017D01*
X77909669Y-129108958D01*
X77905538Y-129101016D01*
X77908234Y-129092476D01*
X77909665Y-129091044D01*
X78614619Y-128499111D01*
X78623158Y-128496416D01*
X78627644Y-128497747D01*
G37*
%TD.AperFunction*%
%TD*%
%TA.AperFunction,Conductor*%
%TO.N,TX_COIL_POS*%
G36*
X77892957Y-129099220D02*
G01*
X77901197Y-129102723D01*
X77903662Y-129106456D01*
X78154679Y-129714809D01*
X78154667Y-129723764D01*
X78148962Y-129729803D01*
X76975250Y-130298019D01*
X76966311Y-130298539D01*
X76961879Y-130295761D01*
X76703538Y-130037420D01*
X76700111Y-130029147D01*
X76700757Y-130025315D01*
X77022244Y-129099055D01*
X77028193Y-129092365D01*
X77033402Y-129091194D01*
X77892957Y-129099220D01*
G37*
%TD.AperFunction*%
%TD*%
%TA.AperFunction,Conductor*%
%TO.N,TX_COIL_POS*%
G36*
X74258143Y-129581318D02*
G01*
X75095472Y-130230987D01*
X75099908Y-130238765D01*
X75100000Y-130240230D01*
X75100000Y-130609769D01*
X75096573Y-130618042D01*
X75095472Y-130619013D01*
X74258145Y-131268680D01*
X74249508Y-131271044D01*
X74242705Y-131267714D01*
X73593241Y-130619013D01*
X73407286Y-130433276D01*
X73403855Y-130425007D01*
X73407276Y-130416733D01*
X74242707Y-129582283D01*
X74250980Y-129578863D01*
X74258143Y-129581318D01*
G37*
%TD.AperFunction*%
%TD*%
%TA.AperFunction,Conductor*%
%TO.N,Net-(D3-K)*%
G36*
X85906138Y-120607616D02*
G01*
X86695141Y-121592686D01*
X86697638Y-121601285D01*
X86695141Y-121607314D01*
X85906138Y-122592383D01*
X85898291Y-122596698D01*
X85891450Y-122595365D01*
X84406144Y-121793815D01*
X84400490Y-121786871D01*
X84400000Y-121783519D01*
X84400000Y-121416480D01*
X84403427Y-121408207D01*
X84406142Y-121406185D01*
X85891451Y-120604633D01*
X85900358Y-120603720D01*
X85906138Y-120607616D01*
G37*
%TD.AperFunction*%
%TD*%
%TA.AperFunction,Conductor*%
%TO.N,Net-(D3-K)*%
G36*
X104484967Y-128898764D02*
G01*
X104908679Y-129254545D01*
X105190105Y-129490852D01*
X105194237Y-129498796D01*
X105191541Y-129507336D01*
X105189921Y-129508924D01*
X104469023Y-130089625D01*
X104460430Y-130092146D01*
X104455575Y-130090492D01*
X103705592Y-129631422D01*
X103700325Y-129624180D01*
X103700000Y-129621443D01*
X103700000Y-129254545D01*
X103703427Y-129246272D01*
X103706873Y-129243887D01*
X104472621Y-128897067D01*
X104481569Y-128896777D01*
X104484967Y-128898764D01*
G37*
%TD.AperFunction*%
%TD*%
%TA.AperFunction,Conductor*%
%TO.N,Net-(D3-K)*%
G36*
X101424652Y-128846154D02*
G01*
X101425383Y-128846506D01*
X102181244Y-129243712D01*
X102186972Y-129250593D01*
X102187500Y-129254068D01*
X102187500Y-129620931D01*
X102184073Y-129629204D01*
X102181243Y-129631288D01*
X101425393Y-130028488D01*
X101416475Y-130029303D01*
X101415699Y-130029031D01*
X101414307Y-130028488D01*
X99926946Y-129448399D01*
X99920484Y-129442202D01*
X99920298Y-129433249D01*
X99926496Y-129426786D01*
X99926932Y-129426606D01*
X101415701Y-128845968D01*
X101424652Y-128846154D01*
G37*
%TD.AperFunction*%
%TD*%
%TA.AperFunction,Conductor*%
%TO.N,Net-(Q1-C)*%
G36*
X92366137Y-130957285D02*
G01*
X92373332Y-130962615D01*
X92375000Y-130968636D01*
X92375000Y-131331363D01*
X92371573Y-131339636D01*
X92366136Y-131342714D01*
X91986322Y-131437602D01*
X91978713Y-131436933D01*
X91360408Y-131160682D01*
X91354253Y-131154179D01*
X91354499Y-131145227D01*
X91360408Y-131139318D01*
X91978714Y-130863065D01*
X91986322Y-130862397D01*
X92366137Y-130957285D01*
G37*
%TD.AperFunction*%
%TD*%
%TA.AperFunction,Conductor*%
%TO.N,Net-(Q1-C)*%
G36*
X95295743Y-130903873D02*
G01*
X95299983Y-130911760D01*
X95300042Y-130912895D01*
X95300992Y-131197632D01*
X95300088Y-131202182D01*
X95189211Y-131467551D01*
X95182859Y-131473863D01*
X95175182Y-131474284D01*
X94718413Y-131342934D01*
X94711409Y-131337355D01*
X94709946Y-131331690D01*
X94709946Y-130970079D01*
X94713373Y-130961806D01*
X94720470Y-130958438D01*
X95287170Y-130901293D01*
X95295743Y-130903873D01*
G37*
%TD.AperFunction*%
%TD*%
%TA.AperFunction,Conductor*%
%TO.N,Net-(D2-K)*%
G36*
X103108548Y-120604633D02*
G01*
X104593856Y-121406184D01*
X104599510Y-121413128D01*
X104600000Y-121416480D01*
X104600000Y-121783519D01*
X104596573Y-121791792D01*
X104593856Y-121793815D01*
X103108549Y-122595365D01*
X103099641Y-122596279D01*
X103093861Y-122592383D01*
X102304858Y-121607314D01*
X102302361Y-121598715D01*
X102304858Y-121592686D01*
X103093862Y-120607615D01*
X103101708Y-120603301D01*
X103108548Y-120604633D01*
G37*
%TD.AperFunction*%
%TD*%
%TA.AperFunction,Conductor*%
%TO.N,Net-(D2-K)*%
G36*
X107185381Y-120999112D02*
G01*
X107890329Y-121591040D01*
X107894461Y-121598984D01*
X107891765Y-121607524D01*
X107890329Y-121608960D01*
X107185381Y-122200887D01*
X107176841Y-122203583D01*
X107172353Y-122202251D01*
X106406196Y-121793803D01*
X106400508Y-121786888D01*
X106400000Y-121783479D01*
X106400000Y-121416520D01*
X106403427Y-121408247D01*
X106406191Y-121406198D01*
X107172355Y-120997747D01*
X107181266Y-120996880D01*
X107185381Y-120999112D01*
G37*
%TD.AperFunction*%
%TD*%
%TA.AperFunction,Conductor*%
%TO.N,Net-(D2-K)*%
G36*
X108092657Y-120353427D02*
G01*
X108093991Y-120355021D01*
X108519419Y-120966972D01*
X108521327Y-120975721D01*
X108518092Y-120981918D01*
X107908280Y-121592706D01*
X107900009Y-121596139D01*
X107891733Y-121592719D01*
X107891720Y-121592706D01*
X107281907Y-120981918D01*
X107278487Y-120973642D01*
X107280579Y-120966974D01*
X107706009Y-120355020D01*
X107713546Y-120350185D01*
X107715616Y-120350000D01*
X108084384Y-120350000D01*
X108092657Y-120353427D01*
G37*
%TD.AperFunction*%
%TD*%
%TA.AperFunction,Conductor*%
%TO.N,Net-(D2-K)*%
G36*
X105366137Y-108007285D02*
G01*
X105373332Y-108012615D01*
X105375000Y-108018636D01*
X105375000Y-108381363D01*
X105371573Y-108389636D01*
X105366136Y-108392714D01*
X104986322Y-108487602D01*
X104978713Y-108486933D01*
X104360408Y-108210682D01*
X104354253Y-108204179D01*
X104354499Y-108195227D01*
X104360408Y-108189318D01*
X104978714Y-107913065D01*
X104986322Y-107912397D01*
X105366137Y-108007285D01*
G37*
%TD.AperFunction*%
%TD*%
%TA.AperFunction,Conductor*%
%TO.N,/TX2*%
G36*
X104724515Y-69601700D02*
G01*
X104730306Y-69606908D01*
X105275269Y-70606881D01*
X105276696Y-70612480D01*
X105276696Y-70976742D01*
X105273269Y-70985015D01*
X105264996Y-70988442D01*
X105263117Y-70988290D01*
X103949787Y-70774554D01*
X103942171Y-70769843D01*
X103939966Y-70763020D01*
X103939785Y-70609500D01*
X103938987Y-69930788D01*
X103942404Y-69922512D01*
X103946211Y-69919965D01*
X104715560Y-69601696D01*
X104724515Y-69601700D01*
G37*
%TD.AperFunction*%
%TD*%
%TA.AperFunction,Conductor*%
%TO.N,/TX2*%
G36*
X107094999Y-71004396D02*
G01*
X107099856Y-71011919D01*
X107100046Y-71013981D01*
X107101000Y-71300000D01*
X107101000Y-71300078D01*
X107100046Y-71586018D01*
X107096592Y-71594280D01*
X107088307Y-71597679D01*
X107086245Y-71597489D01*
X106509599Y-71492251D01*
X106502076Y-71487394D01*
X106500000Y-71480741D01*
X106500000Y-71119258D01*
X106503427Y-71110985D01*
X106509598Y-71107748D01*
X107086245Y-71002510D01*
X107094999Y-71004396D01*
G37*
%TD.AperFunction*%
%TD*%
%TA.AperFunction,Conductor*%
%TO.N,/TX2*%
G36*
X105796193Y-91896398D02*
G01*
X105797786Y-91897721D01*
X106000707Y-92099293D01*
X106000762Y-92099348D01*
X106202278Y-92302213D01*
X106205677Y-92310498D01*
X106202223Y-92318760D01*
X106200630Y-92320083D01*
X105718466Y-92653418D01*
X105709712Y-92655304D01*
X105703540Y-92652067D01*
X105447932Y-92396459D01*
X105444505Y-92388186D01*
X105446579Y-92381536D01*
X105779917Y-91899367D01*
X105787439Y-91894512D01*
X105796193Y-91896398D01*
G37*
%TD.AperFunction*%
%TD*%
%TA.AperFunction,Conductor*%
%TO.N,/TX2*%
G36*
X105078699Y-93353427D02*
G01*
X105081101Y-93356910D01*
X105352965Y-93962796D01*
X105353225Y-93971747D01*
X105349010Y-93977163D01*
X104894220Y-94296284D01*
X104885480Y-94298231D01*
X104880780Y-94296284D01*
X104425989Y-93977163D01*
X104421185Y-93969606D01*
X104422033Y-93962799D01*
X104693899Y-93356909D01*
X104700413Y-93350765D01*
X104704574Y-93350000D01*
X105070426Y-93350000D01*
X105078699Y-93353427D01*
G37*
%TD.AperFunction*%
%TD*%
%TA.AperFunction,Conductor*%
%TO.N,/3V3*%
G36*
X105632523Y-84910055D02*
G01*
X105638989Y-84916251D01*
X105639978Y-84920958D01*
X105639978Y-85404957D01*
X105636551Y-85413230D01*
X105632523Y-85415860D01*
X104275919Y-85944104D01*
X104266967Y-85943912D01*
X104260869Y-85937690D01*
X103940843Y-85167447D01*
X103940834Y-85158492D01*
X103940843Y-85158469D01*
X104039526Y-84920958D01*
X104260869Y-84388224D01*
X104267208Y-84381900D01*
X104275919Y-84381811D01*
X105632523Y-84910055D01*
G37*
%TD.AperFunction*%
%TD*%
%TA.AperFunction,Conductor*%
%TO.N,/3V3*%
G36*
X109972998Y-84379055D02*
G01*
X109979117Y-84385287D01*
X110299134Y-85155511D01*
X110299143Y-85164466D01*
X110299134Y-85164489D01*
X109979101Y-85934751D01*
X109972762Y-85941076D01*
X109964069Y-85941172D01*
X108608061Y-85415853D01*
X108601585Y-85409669D01*
X108600588Y-85404943D01*
X108600588Y-84920940D01*
X108604015Y-84912667D01*
X108608019Y-84910047D01*
X109964047Y-84378882D01*
X109972998Y-84379055D01*
G37*
%TD.AperFunction*%
%TD*%
%TA.AperFunction,Conductor*%
%TO.N,/D15*%
G36*
X104275997Y-79302307D02*
G01*
X104276154Y-79302374D01*
X105632925Y-79889406D01*
X105639156Y-79895835D01*
X105639978Y-79900143D01*
X105639978Y-80265772D01*
X105636551Y-80274045D01*
X105632924Y-80276510D01*
X104276154Y-80863541D01*
X104267200Y-80863681D01*
X104260770Y-80857449D01*
X104260725Y-80857345D01*
X103940842Y-80087446D01*
X103940834Y-80078492D01*
X103940843Y-80078469D01*
X104018128Y-79892458D01*
X104260704Y-79308621D01*
X104267042Y-79302298D01*
X104275997Y-79302307D01*
G37*
%TD.AperFunction*%
%TD*%
%TA.AperFunction,Conductor*%
%TO.N,/D15*%
G36*
X109979207Y-79305508D02*
G01*
X109979283Y-79305686D01*
X110299134Y-80075511D01*
X110299143Y-80084466D01*
X110299134Y-80084489D01*
X109979266Y-80854352D01*
X109972927Y-80860677D01*
X109963972Y-80860668D01*
X109963833Y-80860609D01*
X108607660Y-80276503D01*
X108601417Y-80270083D01*
X108600588Y-80265757D01*
X108600588Y-79900127D01*
X108604015Y-79891854D01*
X108607618Y-79889399D01*
X109963813Y-79299445D01*
X109972764Y-79299288D01*
X109979207Y-79305508D01*
G37*
%TD.AperFunction*%
%TD*%
%TA.AperFunction,Conductor*%
%TO.N,/D2*%
G36*
X109979207Y-76765508D02*
G01*
X109979283Y-76765686D01*
X110299134Y-77535511D01*
X110299143Y-77544466D01*
X110299134Y-77544489D01*
X109979266Y-78314352D01*
X109972927Y-78320677D01*
X109963972Y-78320668D01*
X109963833Y-78320609D01*
X108607660Y-77736503D01*
X108601417Y-77730083D01*
X108600588Y-77725757D01*
X108600588Y-77360127D01*
X108604015Y-77351854D01*
X108607618Y-77349399D01*
X109963813Y-76759445D01*
X109972764Y-76759288D01*
X109979207Y-76765508D01*
G37*
%TD.AperFunction*%
%TD*%
%TA.AperFunction,Conductor*%
%TO.N,/D2*%
G36*
X104275997Y-76762307D02*
G01*
X104276154Y-76762374D01*
X105632925Y-77349406D01*
X105639156Y-77355835D01*
X105639978Y-77360143D01*
X105639978Y-77725772D01*
X105636551Y-77734045D01*
X105632924Y-77736510D01*
X104276154Y-78323541D01*
X104267200Y-78323681D01*
X104260770Y-78317449D01*
X104260725Y-78317345D01*
X103940842Y-77547446D01*
X103940834Y-77538492D01*
X103940843Y-77538469D01*
X104018128Y-77352458D01*
X104260704Y-76768621D01*
X104267042Y-76762298D01*
X104275997Y-76762307D01*
G37*
%TD.AperFunction*%
%TD*%
%TA.AperFunction,Conductor*%
%TO.N,/D4*%
G36*
X109979207Y-74225508D02*
G01*
X109979283Y-74225686D01*
X110299134Y-74995511D01*
X110299143Y-75004466D01*
X110299134Y-75004489D01*
X109979266Y-75774352D01*
X109972927Y-75780677D01*
X109963972Y-75780668D01*
X109963833Y-75780609D01*
X108607660Y-75196503D01*
X108601417Y-75190083D01*
X108600588Y-75185757D01*
X108600588Y-74820127D01*
X108604015Y-74811854D01*
X108607618Y-74809399D01*
X109963813Y-74219445D01*
X109972764Y-74219288D01*
X109979207Y-74225508D01*
G37*
%TD.AperFunction*%
%TD*%
%TA.AperFunction,Conductor*%
%TO.N,/D4*%
G36*
X104275997Y-74222307D02*
G01*
X104276154Y-74222374D01*
X105632925Y-74809406D01*
X105639156Y-74815835D01*
X105639978Y-74820143D01*
X105639978Y-75185772D01*
X105636551Y-75194045D01*
X105632924Y-75196510D01*
X104276154Y-75783541D01*
X104267200Y-75783681D01*
X104260770Y-75777449D01*
X104260725Y-75777345D01*
X103940842Y-75007446D01*
X103940834Y-74998492D01*
X103940843Y-74998469D01*
X104018128Y-74812458D01*
X104260704Y-74228621D01*
X104267042Y-74222298D01*
X104275997Y-74222307D01*
G37*
%TD.AperFunction*%
%TD*%
%TA.AperFunction,Conductor*%
%TO.N,/RX2*%
G36*
X104275997Y-71682307D02*
G01*
X104276154Y-71682374D01*
X105632925Y-72269406D01*
X105639156Y-72275835D01*
X105639978Y-72280143D01*
X105639978Y-72645772D01*
X105636551Y-72654045D01*
X105632924Y-72656510D01*
X104276154Y-73243541D01*
X104267200Y-73243681D01*
X104260770Y-73237449D01*
X104260725Y-73237345D01*
X103940842Y-72467446D01*
X103940834Y-72458492D01*
X103940843Y-72458469D01*
X104018128Y-72272458D01*
X104260704Y-71688621D01*
X104267042Y-71682298D01*
X104275997Y-71682307D01*
G37*
%TD.AperFunction*%
%TD*%
%TA.AperFunction,Conductor*%
%TO.N,/RX2*%
G36*
X109979207Y-71685508D02*
G01*
X109979283Y-71685686D01*
X110299134Y-72455511D01*
X110299143Y-72464466D01*
X110299134Y-72464489D01*
X109979266Y-73234352D01*
X109972927Y-73240677D01*
X109963972Y-73240668D01*
X109963833Y-73240609D01*
X108607660Y-72656503D01*
X108601417Y-72650083D01*
X108600588Y-72645757D01*
X108600588Y-72280127D01*
X108604015Y-72271854D01*
X108607618Y-72269399D01*
X109963813Y-71679445D01*
X109972764Y-71679288D01*
X109979207Y-71685508D01*
G37*
%TD.AperFunction*%
%TD*%
%TA.AperFunction,Conductor*%
%TO.N,/TX2*%
G36*
X109979207Y-69145508D02*
G01*
X109979283Y-69145686D01*
X110299134Y-69915511D01*
X110299143Y-69924466D01*
X110299134Y-69924489D01*
X109979266Y-70694352D01*
X109972927Y-70700677D01*
X109963972Y-70700668D01*
X109963833Y-70700609D01*
X108607660Y-70116503D01*
X108601417Y-70110083D01*
X108600588Y-70105757D01*
X108600588Y-69740127D01*
X108604015Y-69731854D01*
X108607618Y-69729399D01*
X109963813Y-69139445D01*
X109972764Y-69139288D01*
X109979207Y-69145508D01*
G37*
%TD.AperFunction*%
%TD*%
%TA.AperFunction,Conductor*%
%TO.N,/TX2*%
G36*
X104275997Y-69142307D02*
G01*
X104276154Y-69142374D01*
X105632925Y-69729406D01*
X105639156Y-69735835D01*
X105639978Y-69740143D01*
X105639978Y-70105772D01*
X105636551Y-70114045D01*
X105632924Y-70116510D01*
X104276154Y-70703541D01*
X104267200Y-70703681D01*
X104260770Y-70697449D01*
X104260725Y-70697345D01*
X103940842Y-69927446D01*
X103940834Y-69918492D01*
X103940843Y-69918469D01*
X104018128Y-69732458D01*
X104260704Y-69148621D01*
X104267042Y-69142298D01*
X104275997Y-69142307D01*
G37*
%TD.AperFunction*%
%TD*%
%TA.AperFunction,Conductor*%
%TO.N,/D5*%
G36*
X104275997Y-66602307D02*
G01*
X104276154Y-66602374D01*
X105632925Y-67189406D01*
X105639156Y-67195835D01*
X105639978Y-67200143D01*
X105639978Y-67565772D01*
X105636551Y-67574045D01*
X105632924Y-67576510D01*
X104276154Y-68163541D01*
X104267200Y-68163681D01*
X104260770Y-68157449D01*
X104260725Y-68157345D01*
X103940842Y-67387446D01*
X103940834Y-67378492D01*
X103940843Y-67378469D01*
X104018128Y-67192458D01*
X104260704Y-66608621D01*
X104267042Y-66602298D01*
X104275997Y-66602307D01*
G37*
%TD.AperFunction*%
%TD*%
%TA.AperFunction,Conductor*%
%TO.N,/D5*%
G36*
X109979207Y-66605508D02*
G01*
X109979283Y-66605686D01*
X110299134Y-67375511D01*
X110299143Y-67384466D01*
X110299134Y-67384489D01*
X109979266Y-68154352D01*
X109972927Y-68160677D01*
X109963972Y-68160668D01*
X109963833Y-68160609D01*
X108607660Y-67576503D01*
X108601417Y-67570083D01*
X108600588Y-67565757D01*
X108600588Y-67200127D01*
X108604015Y-67191854D01*
X108607618Y-67189399D01*
X109963813Y-66599445D01*
X109972764Y-66599288D01*
X109979207Y-66605508D01*
G37*
%TD.AperFunction*%
%TD*%
%TA.AperFunction,Conductor*%
%TO.N,/D18*%
G36*
X104275997Y-64062307D02*
G01*
X104276154Y-64062374D01*
X105632925Y-64649406D01*
X105639156Y-64655835D01*
X105639978Y-64660143D01*
X105639978Y-65025772D01*
X105636551Y-65034045D01*
X105632924Y-65036510D01*
X104276154Y-65623541D01*
X104267200Y-65623681D01*
X104260770Y-65617449D01*
X104260725Y-65617345D01*
X103940842Y-64847446D01*
X103940834Y-64838492D01*
X103940843Y-64838469D01*
X104018128Y-64652458D01*
X104260704Y-64068621D01*
X104267042Y-64062298D01*
X104275997Y-64062307D01*
G37*
%TD.AperFunction*%
%TD*%
%TA.AperFunction,Conductor*%
%TO.N,/D18*%
G36*
X109979207Y-64065508D02*
G01*
X109979283Y-64065686D01*
X110299134Y-64835511D01*
X110299143Y-64844466D01*
X110299134Y-64844489D01*
X109979266Y-65614352D01*
X109972927Y-65620677D01*
X109963972Y-65620668D01*
X109963833Y-65620609D01*
X108607660Y-65036503D01*
X108601417Y-65030083D01*
X108600588Y-65025757D01*
X108600588Y-64660127D01*
X108604015Y-64651854D01*
X108607618Y-64649399D01*
X109963813Y-64059445D01*
X109972764Y-64059288D01*
X109979207Y-64065508D01*
G37*
%TD.AperFunction*%
%TD*%
%TA.AperFunction,Conductor*%
%TO.N,/D19*%
G36*
X104275997Y-61522307D02*
G01*
X104276154Y-61522374D01*
X105632925Y-62109406D01*
X105639156Y-62115835D01*
X105639978Y-62120143D01*
X105639978Y-62485772D01*
X105636551Y-62494045D01*
X105632924Y-62496510D01*
X104276154Y-63083541D01*
X104267200Y-63083681D01*
X104260770Y-63077449D01*
X104260725Y-63077345D01*
X103940842Y-62307446D01*
X103940834Y-62298492D01*
X103940843Y-62298469D01*
X104018128Y-62112458D01*
X104260704Y-61528621D01*
X104267042Y-61522298D01*
X104275997Y-61522307D01*
G37*
%TD.AperFunction*%
%TD*%
%TA.AperFunction,Conductor*%
%TO.N,/D19*%
G36*
X109979207Y-61525508D02*
G01*
X109979283Y-61525686D01*
X110299134Y-62295511D01*
X110299143Y-62304466D01*
X110299134Y-62304489D01*
X109979266Y-63074352D01*
X109972927Y-63080677D01*
X109963972Y-63080668D01*
X109963833Y-63080609D01*
X108607660Y-62496503D01*
X108601417Y-62490083D01*
X108600588Y-62485757D01*
X108600588Y-62120127D01*
X108604015Y-62111854D01*
X108607618Y-62109399D01*
X109963813Y-61519445D01*
X109972764Y-61519288D01*
X109979207Y-61525508D01*
G37*
%TD.AperFunction*%
%TD*%
%TA.AperFunction,Conductor*%
%TO.N,/D21*%
G36*
X109979207Y-58985508D02*
G01*
X109979283Y-58985686D01*
X110299134Y-59755511D01*
X110299143Y-59764466D01*
X110299134Y-59764489D01*
X109979266Y-60534352D01*
X109972927Y-60540677D01*
X109963972Y-60540668D01*
X109963833Y-60540609D01*
X108607660Y-59956503D01*
X108601417Y-59950083D01*
X108600588Y-59945757D01*
X108600588Y-59580127D01*
X108604015Y-59571854D01*
X108607618Y-59569399D01*
X109963813Y-58979445D01*
X109972764Y-58979288D01*
X109979207Y-58985508D01*
G37*
%TD.AperFunction*%
%TD*%
%TA.AperFunction,Conductor*%
%TO.N,/D21*%
G36*
X104275997Y-58982307D02*
G01*
X104276154Y-58982374D01*
X105632925Y-59569406D01*
X105639156Y-59575835D01*
X105639978Y-59580143D01*
X105639978Y-59945772D01*
X105636551Y-59954045D01*
X105632924Y-59956510D01*
X104276154Y-60543541D01*
X104267200Y-60543681D01*
X104260770Y-60537449D01*
X104260725Y-60537345D01*
X103940842Y-59767446D01*
X103940834Y-59758492D01*
X103940843Y-59758469D01*
X104018128Y-59572458D01*
X104260704Y-58988621D01*
X104267042Y-58982298D01*
X104275997Y-58982307D01*
G37*
%TD.AperFunction*%
%TD*%
%TA.AperFunction,Conductor*%
%TO.N,/RX0*%
G36*
X109979207Y-56445508D02*
G01*
X109979283Y-56445686D01*
X110299134Y-57215511D01*
X110299143Y-57224466D01*
X110299134Y-57224489D01*
X109979266Y-57994352D01*
X109972927Y-58000677D01*
X109963972Y-58000668D01*
X109963833Y-58000609D01*
X108607660Y-57416503D01*
X108601417Y-57410083D01*
X108600588Y-57405757D01*
X108600588Y-57040127D01*
X108604015Y-57031854D01*
X108607618Y-57029399D01*
X109963813Y-56439445D01*
X109972764Y-56439288D01*
X109979207Y-56445508D01*
G37*
%TD.AperFunction*%
%TD*%
%TA.AperFunction,Conductor*%
%TO.N,/RX0*%
G36*
X104275997Y-56442307D02*
G01*
X104276154Y-56442374D01*
X105632925Y-57029406D01*
X105639156Y-57035835D01*
X105639978Y-57040143D01*
X105639978Y-57405772D01*
X105636551Y-57414045D01*
X105632924Y-57416510D01*
X104276154Y-58003541D01*
X104267200Y-58003681D01*
X104260770Y-57997449D01*
X104260725Y-57997345D01*
X103940842Y-57227446D01*
X103940834Y-57218492D01*
X103940843Y-57218469D01*
X104018128Y-57032458D01*
X104260704Y-56448621D01*
X104267042Y-56442298D01*
X104275997Y-56442307D01*
G37*
%TD.AperFunction*%
%TD*%
%TA.AperFunction,Conductor*%
%TO.N,/TX0*%
G36*
X109979207Y-53905508D02*
G01*
X109979283Y-53905686D01*
X110299134Y-54675511D01*
X110299143Y-54684466D01*
X110299134Y-54684489D01*
X109979266Y-55454352D01*
X109972927Y-55460677D01*
X109963972Y-55460668D01*
X109963833Y-55460609D01*
X108607660Y-54876503D01*
X108601417Y-54870083D01*
X108600588Y-54865757D01*
X108600588Y-54500127D01*
X108604015Y-54491854D01*
X108607618Y-54489399D01*
X109963813Y-53899445D01*
X109972764Y-53899288D01*
X109979207Y-53905508D01*
G37*
%TD.AperFunction*%
%TD*%
%TA.AperFunction,Conductor*%
%TO.N,/TX0*%
G36*
X104275997Y-53902307D02*
G01*
X104276154Y-53902374D01*
X105632925Y-54489406D01*
X105639156Y-54495835D01*
X105639978Y-54500143D01*
X105639978Y-54865772D01*
X105636551Y-54874045D01*
X105632924Y-54876510D01*
X104276154Y-55463541D01*
X104267200Y-55463681D01*
X104260770Y-55457449D01*
X104260725Y-55457345D01*
X103940842Y-54687446D01*
X103940834Y-54678492D01*
X103940843Y-54678469D01*
X104018128Y-54492458D01*
X104260704Y-53908621D01*
X104267042Y-53902298D01*
X104275997Y-53902307D01*
G37*
%TD.AperFunction*%
%TD*%
%TA.AperFunction,Conductor*%
%TO.N,/D22*%
G36*
X109979207Y-51365508D02*
G01*
X109979283Y-51365686D01*
X110299134Y-52135511D01*
X110299143Y-52144466D01*
X110299134Y-52144489D01*
X109979266Y-52914352D01*
X109972927Y-52920677D01*
X109963972Y-52920668D01*
X109963833Y-52920609D01*
X108607660Y-52336503D01*
X108601417Y-52330083D01*
X108600588Y-52325757D01*
X108600588Y-51960127D01*
X108604015Y-51951854D01*
X108607618Y-51949399D01*
X109963813Y-51359445D01*
X109972764Y-51359288D01*
X109979207Y-51365508D01*
G37*
%TD.AperFunction*%
%TD*%
%TA.AperFunction,Conductor*%
%TO.N,/D22*%
G36*
X104275997Y-51362307D02*
G01*
X104276154Y-51362374D01*
X105632925Y-51949406D01*
X105639156Y-51955835D01*
X105639978Y-51960143D01*
X105639978Y-52325772D01*
X105636551Y-52334045D01*
X105632924Y-52336510D01*
X104276154Y-52923541D01*
X104267200Y-52923681D01*
X104260770Y-52917449D01*
X104260725Y-52917345D01*
X103940842Y-52147446D01*
X103940834Y-52138492D01*
X103940843Y-52138469D01*
X104018128Y-51952458D01*
X104260704Y-51368621D01*
X104267042Y-51362298D01*
X104275997Y-51362307D01*
G37*
%TD.AperFunction*%
%TD*%
%TA.AperFunction,Conductor*%
%TO.N,/D23*%
G36*
X104798121Y-48759276D02*
G01*
X105635450Y-49408945D01*
X105639886Y-49416723D01*
X105639978Y-49418188D01*
X105639978Y-49787727D01*
X105636551Y-49796000D01*
X105635450Y-49796971D01*
X104798123Y-50446638D01*
X104789486Y-50449002D01*
X104782683Y-50445672D01*
X104133219Y-49796971D01*
X103947264Y-49611234D01*
X103943833Y-49602965D01*
X103947254Y-49594691D01*
X104782685Y-48760241D01*
X104790958Y-48756821D01*
X104798121Y-48759276D01*
G37*
%TD.AperFunction*%
%TD*%
%TA.AperFunction,Conductor*%
%TO.N,/D23*%
G36*
X109457302Y-48758759D02*
G01*
X110292698Y-49591722D01*
X110296137Y-49599990D01*
X110292722Y-49608268D01*
X110292705Y-49608285D01*
X109457278Y-50442730D01*
X109449003Y-50446152D01*
X109441858Y-50443711D01*
X108604548Y-49796970D01*
X108600095Y-49789201D01*
X108600000Y-49787711D01*
X108600000Y-49418180D01*
X108603427Y-49409907D01*
X108604511Y-49408949D01*
X109441860Y-48757807D01*
X109450493Y-48755434D01*
X109457302Y-48758759D01*
G37*
%TD.AperFunction*%
%TD*%
%TA.AperFunction,Conductor*%
%TO.N,/Vibr_sig*%
G36*
X106903699Y-95653427D02*
G01*
X106906101Y-95656910D01*
X107177965Y-96262796D01*
X107178225Y-96271747D01*
X107174010Y-96277163D01*
X106719220Y-96596284D01*
X106710480Y-96598231D01*
X106705780Y-96596284D01*
X106250989Y-96277163D01*
X106246185Y-96269606D01*
X106247033Y-96262799D01*
X106518899Y-95656909D01*
X106525413Y-95650765D01*
X106529574Y-95650000D01*
X106895426Y-95650000D01*
X106903699Y-95653427D01*
G37*
%TD.AperFunction*%
%TD*%
%TA.AperFunction,Conductor*%
%TO.N,/Vibr_sig*%
G36*
X106719220Y-94303715D02*
G01*
X107174010Y-94622836D01*
X107178814Y-94630393D01*
X107177965Y-94637203D01*
X106906101Y-95243090D01*
X106899587Y-95249235D01*
X106895426Y-95250000D01*
X106529574Y-95250000D01*
X106521301Y-95246573D01*
X106518899Y-95243090D01*
X106247033Y-94637201D01*
X106246774Y-94628252D01*
X106250987Y-94622837D01*
X106705780Y-94303714D01*
X106714520Y-94301768D01*
X106719220Y-94303715D01*
G37*
%TD.AperFunction*%
%TD*%
%TA.AperFunction,Conductor*%
%TO.N,/Vibr_sig*%
G36*
X109424859Y-95338920D02*
G01*
X110196512Y-95658143D01*
X110202846Y-95664472D01*
X110202853Y-95664488D01*
X110519909Y-96432289D01*
X110519900Y-96441244D01*
X110513561Y-96447569D01*
X110511511Y-96448203D01*
X108903476Y-96787521D01*
X108894673Y-96785876D01*
X108889612Y-96778489D01*
X108889360Y-96776073D01*
X108889360Y-96412207D01*
X108890548Y-96407069D01*
X109256616Y-95658143D01*
X109409875Y-95344593D01*
X109416587Y-95338666D01*
X109424859Y-95338920D01*
G37*
%TD.AperFunction*%
%TD*%
%TA.AperFunction,Conductor*%
%TO.N,/Vibr_sig*%
G36*
X107061846Y-96146704D02*
G01*
X107667910Y-96406461D01*
X107674163Y-96412869D01*
X107675000Y-96417214D01*
X107675000Y-96782785D01*
X107671573Y-96791058D01*
X107667909Y-96793539D01*
X107061848Y-97053294D01*
X107052894Y-97053403D01*
X107047871Y-97049549D01*
X106716744Y-96607009D01*
X106714531Y-96598332D01*
X106716744Y-96592991D01*
X107047872Y-96150449D01*
X107055571Y-96145878D01*
X107061846Y-96146704D01*
G37*
%TD.AperFunction*%
%TD*%
%TA.AperFunction,Conductor*%
%TO.N,/Vibr_gnd*%
G36*
X107061846Y-98446704D02*
G01*
X107667910Y-98706461D01*
X107674163Y-98712869D01*
X107675000Y-98717214D01*
X107675000Y-99082785D01*
X107671573Y-99091058D01*
X107667909Y-99093539D01*
X107061848Y-99353294D01*
X107052894Y-99353403D01*
X107047871Y-99349549D01*
X106716744Y-98907009D01*
X106714531Y-98898332D01*
X106716744Y-98892991D01*
X107047872Y-98450449D01*
X107055571Y-98445878D01*
X107061846Y-98446704D01*
G37*
%TD.AperFunction*%
%TD*%
%TA.AperFunction,Conductor*%
%TO.N,/Vibr_gnd*%
G36*
X109358994Y-97637058D02*
G01*
X110196966Y-98197303D01*
X110201939Y-98204750D01*
X110201941Y-98204760D01*
X110366357Y-99036335D01*
X110364600Y-99045115D01*
X110357148Y-99050082D01*
X110355132Y-99050301D01*
X108511953Y-99090240D01*
X108503608Y-99086993D01*
X108500003Y-99078796D01*
X108500000Y-99078543D01*
X108500000Y-98713556D01*
X108502511Y-98706314D01*
X108897826Y-98204750D01*
X109343303Y-97639541D01*
X109351115Y-97635165D01*
X109358994Y-97637058D01*
G37*
%TD.AperFunction*%
%TD*%
%TA.AperFunction,Conductor*%
%TO.N,/OP_OUT*%
G36*
X86094220Y-69403715D02*
G01*
X86549010Y-69722836D01*
X86553814Y-69730393D01*
X86552965Y-69737203D01*
X86281101Y-70343090D01*
X86274587Y-70349235D01*
X86270426Y-70350000D01*
X85904574Y-70350000D01*
X85896301Y-70346573D01*
X85893899Y-70343090D01*
X85622033Y-69737201D01*
X85621774Y-69728252D01*
X85625987Y-69722837D01*
X86080780Y-69403714D01*
X86089520Y-69401768D01*
X86094220Y-69403715D01*
G37*
%TD.AperFunction*%
%TD*%
%TA.AperFunction,Conductor*%
%TO.N,/OP_OUT*%
G36*
X89337526Y-100822938D02*
G01*
X89773480Y-101054748D01*
X89776260Y-101056805D01*
X90033823Y-101314368D01*
X90037250Y-101322641D01*
X90033823Y-101330914D01*
X90031560Y-101332680D01*
X89383886Y-101720425D01*
X89375027Y-101721734D01*
X89369006Y-101718016D01*
X89176532Y-101494257D01*
X89005220Y-101295098D01*
X89002424Y-101286592D01*
X89004505Y-101280760D01*
X89322451Y-100826557D01*
X89330002Y-100821747D01*
X89337526Y-100822938D01*
G37*
%TD.AperFunction*%
%TD*%
%TA.AperFunction,Conductor*%
%TO.N,/OP_OUT*%
G36*
X88677163Y-100825989D02*
G01*
X88996284Y-101280780D01*
X88998231Y-101289520D01*
X88996284Y-101294220D01*
X88677163Y-101749010D01*
X88669606Y-101753814D01*
X88662796Y-101752965D01*
X88482693Y-101672151D01*
X88056910Y-101481100D01*
X88050765Y-101474586D01*
X88050000Y-101470425D01*
X88050000Y-101104574D01*
X88053427Y-101096301D01*
X88056908Y-101093900D01*
X88662798Y-100822033D01*
X88671747Y-100821774D01*
X88677163Y-100825989D01*
G37*
%TD.AperFunction*%
%TD*%
%TA.AperFunction,Conductor*%
%TO.N,/Rx_sig_to_opamp*%
G36*
X83877163Y-97050989D02*
G01*
X84196284Y-97505780D01*
X84198231Y-97514520D01*
X84196284Y-97519220D01*
X83877163Y-97974010D01*
X83869606Y-97978814D01*
X83862796Y-97977965D01*
X83682693Y-97897151D01*
X83256910Y-97706100D01*
X83250765Y-97699586D01*
X83250000Y-97695425D01*
X83250000Y-97329574D01*
X83253427Y-97321301D01*
X83256908Y-97318900D01*
X83862798Y-97047033D01*
X83871747Y-97046774D01*
X83877163Y-97050989D01*
G37*
%TD.AperFunction*%
%TD*%
%TA.AperFunction,Conductor*%
%TO.N,/Rx_sig_to_opamp*%
G36*
X79961846Y-99646704D02*
G01*
X80567910Y-99906461D01*
X80574163Y-99912869D01*
X80575000Y-99917214D01*
X80575000Y-100282785D01*
X80571573Y-100291058D01*
X80567909Y-100293539D01*
X79961848Y-100553294D01*
X79952894Y-100553403D01*
X79947871Y-100549549D01*
X79616744Y-100107009D01*
X79614531Y-100098332D01*
X79616744Y-100092991D01*
X79947872Y-99650449D01*
X79955571Y-99645878D01*
X79961846Y-99646704D01*
G37*
%TD.AperFunction*%
%TD*%
%TA.AperFunction,Conductor*%
%TO.N,Net-(U2-1IN-)*%
G36*
X84077163Y-102625989D02*
G01*
X84396284Y-103080780D01*
X84398231Y-103089520D01*
X84396284Y-103094220D01*
X84077163Y-103549010D01*
X84069606Y-103553814D01*
X84062796Y-103552965D01*
X83882693Y-103472151D01*
X83456910Y-103281100D01*
X83450765Y-103274586D01*
X83450000Y-103270425D01*
X83450000Y-102904574D01*
X83453427Y-102896301D01*
X83456908Y-102893900D01*
X84062798Y-102622033D01*
X84071747Y-102621774D01*
X84077163Y-102625989D01*
G37*
%TD.AperFunction*%
%TD*%
%TA.AperFunction,Conductor*%
%TO.N,Net-(U2-1IN-)*%
G36*
X88671927Y-102646652D02*
G01*
X88676974Y-102650719D01*
X88996236Y-103105711D01*
X88998183Y-103114451D01*
X88996172Y-103119242D01*
X88672825Y-103570847D01*
X88665222Y-103575579D01*
X88658184Y-103574552D01*
X88056572Y-103281204D01*
X88050638Y-103274498D01*
X88050000Y-103270688D01*
X88050000Y-102904858D01*
X88053427Y-102896585D01*
X88057272Y-102894029D01*
X88662973Y-102646608D01*
X88671927Y-102646652D01*
G37*
%TD.AperFunction*%
%TD*%
%TA.AperFunction,Conductor*%
%TO.N,Net-(U2-1IN-)*%
G36*
X84737200Y-102622033D02*
G01*
X85343090Y-102893899D01*
X85349235Y-102900413D01*
X85350000Y-102904574D01*
X85350000Y-103270425D01*
X85346573Y-103278698D01*
X85343090Y-103281100D01*
X84737203Y-103552965D01*
X84728252Y-103553225D01*
X84722836Y-103549010D01*
X84533161Y-103278698D01*
X84403714Y-103094219D01*
X84401768Y-103085480D01*
X84403715Y-103080780D01*
X84722837Y-102625988D01*
X84730393Y-102621185D01*
X84737200Y-102622033D01*
G37*
%TD.AperFunction*%
%TD*%
%TA.AperFunction,Conductor*%
%TO.N,/D32*%
G36*
X77746225Y-61982197D02*
G01*
X78516792Y-62300396D01*
X78523129Y-62306719D01*
X78523139Y-62306743D01*
X78841326Y-63077282D01*
X78841317Y-63086237D01*
X78834978Y-63092562D01*
X78834820Y-63092626D01*
X77460346Y-63636913D01*
X77451392Y-63636773D01*
X77447765Y-63634308D01*
X77189226Y-63375769D01*
X77185799Y-63367496D01*
X77186619Y-63363193D01*
X77730908Y-61988713D01*
X77737140Y-61982284D01*
X77746094Y-61982144D01*
X77746225Y-61982197D01*
G37*
%TD.AperFunction*%
%TD*%
%TA.AperFunction,Conductor*%
%TO.N,/D32*%
G36*
X75132346Y-90489100D02*
G01*
X75395490Y-90597148D01*
X75401839Y-90603457D01*
X75401860Y-90603506D01*
X75510600Y-90866976D01*
X75510589Y-90875931D01*
X75504887Y-90881969D01*
X75248197Y-91006355D01*
X75197573Y-91030888D01*
X75192917Y-91033144D01*
X75187815Y-91034315D01*
X74829647Y-91034315D01*
X74821374Y-91030888D01*
X74817947Y-91022615D01*
X74819485Y-91016816D01*
X75117741Y-90494122D01*
X75124817Y-90488637D01*
X75132346Y-90489100D01*
G37*
%TD.AperFunction*%
%TD*%
%TA.AperFunction,Conductor*%
%TO.N,/D32*%
G36*
X76013752Y-63302509D02*
G01*
X76590401Y-63407748D01*
X76597924Y-63412605D01*
X76600000Y-63419258D01*
X76600000Y-63780741D01*
X76596573Y-63789014D01*
X76590401Y-63792251D01*
X76013754Y-63897489D01*
X76005000Y-63895603D01*
X76000143Y-63888080D01*
X75999953Y-63886018D01*
X75999640Y-63792251D01*
X75999000Y-63600000D01*
X75999953Y-63313980D01*
X76003407Y-63305719D01*
X76011692Y-63302320D01*
X76013752Y-63302509D01*
G37*
%TD.AperFunction*%
%TD*%
%TA.AperFunction,Conductor*%
%TO.N,/D32*%
G36*
X75191058Y-93028427D02*
G01*
X75193539Y-93032091D01*
X75453294Y-93638151D01*
X75453403Y-93647105D01*
X75449549Y-93652128D01*
X75007009Y-93983255D01*
X74998332Y-93985468D01*
X74992991Y-93983255D01*
X74550450Y-93652128D01*
X74545878Y-93644428D01*
X74546704Y-93638153D01*
X74806461Y-93032091D01*
X74812870Y-93025837D01*
X74817215Y-93025000D01*
X75182785Y-93025000D01*
X75191058Y-93028427D01*
G37*
%TD.AperFunction*%
%TD*%
%TA.AperFunction,Conductor*%
%TO.N,/Rx_sig_to_opamp*%
G36*
X75337200Y-95347033D02*
G01*
X75943090Y-95618899D01*
X75949235Y-95625413D01*
X75950000Y-95629574D01*
X75950000Y-95995425D01*
X75946573Y-96003698D01*
X75943090Y-96006100D01*
X75337203Y-96277965D01*
X75328252Y-96278225D01*
X75322836Y-96274010D01*
X75133161Y-96003698D01*
X75003714Y-95819219D01*
X75001768Y-95810480D01*
X75003715Y-95805780D01*
X75322837Y-95350988D01*
X75330393Y-95346185D01*
X75337200Y-95347033D01*
G37*
%TD.AperFunction*%
%TD*%
%TA.AperFunction,Conductor*%
%TO.N,/Rx_sig_to_opamp*%
G36*
X79803699Y-99153427D02*
G01*
X79806101Y-99156910D01*
X80077965Y-99762796D01*
X80078225Y-99771747D01*
X80074010Y-99777163D01*
X79619220Y-100096284D01*
X79610480Y-100098231D01*
X79605780Y-100096284D01*
X79150989Y-99777163D01*
X79146185Y-99769606D01*
X79147033Y-99762799D01*
X79418899Y-99156909D01*
X79425413Y-99150765D01*
X79429574Y-99150000D01*
X79795426Y-99150000D01*
X79803699Y-99153427D01*
G37*
%TD.AperFunction*%
%TD*%
%TA.AperFunction,Conductor*%
%TO.N,/Rx_gnd*%
G36*
X76968256Y-102378257D02*
G01*
X77915923Y-102621987D01*
X77923082Y-102627366D01*
X77924340Y-102636232D01*
X77924237Y-102636607D01*
X77789900Y-103095218D01*
X77784286Y-103102194D01*
X77784082Y-103102303D01*
X77312987Y-103347954D01*
X77304066Y-103348741D01*
X77297477Y-103343486D01*
X77156379Y-103102194D01*
X76955247Y-102758236D01*
X76953647Y-102752330D01*
X76953647Y-102389589D01*
X76957074Y-102381316D01*
X76965347Y-102377889D01*
X76968256Y-102378257D01*
G37*
%TD.AperFunction*%
%TD*%
%TA.AperFunction,Conductor*%
%TO.N,/Rx_gnd*%
G36*
X73336019Y-101784349D02*
G01*
X73336176Y-101784416D01*
X74692947Y-102371448D01*
X74699178Y-102377877D01*
X74700000Y-102382185D01*
X74700000Y-102747814D01*
X74696573Y-102756087D01*
X74692946Y-102758552D01*
X73336176Y-103345583D01*
X73327222Y-103345723D01*
X73320792Y-103339491D01*
X73320747Y-103339387D01*
X73000864Y-102569488D01*
X73000856Y-102560534D01*
X73000865Y-102560511D01*
X73078150Y-102374500D01*
X73320726Y-101790663D01*
X73327064Y-101784340D01*
X73336019Y-101784349D01*
G37*
%TD.AperFunction*%
%TD*%
%TA.AperFunction,Conductor*%
%TO.N,/Rx_sig*%
G36*
X77447653Y-99646343D02*
G01*
X77451549Y-99649676D01*
X77783115Y-100092804D01*
X77785328Y-100101481D01*
X77782935Y-100107057D01*
X77440713Y-100541119D01*
X77432900Y-100545494D01*
X77425911Y-100544140D01*
X76831086Y-100218828D01*
X76825472Y-100211852D01*
X76825000Y-100208563D01*
X76825000Y-99843139D01*
X76828427Y-99834866D01*
X76833255Y-99831957D01*
X77438740Y-99645503D01*
X77447653Y-99646343D01*
G37*
%TD.AperFunction*%
%TD*%
%TA.AperFunction,Conductor*%
%TO.N,/Rx_sig*%
G36*
X73858143Y-99181318D02*
G01*
X74695472Y-99830987D01*
X74699908Y-99838765D01*
X74700000Y-99840230D01*
X74700000Y-100209769D01*
X74696573Y-100218042D01*
X74695472Y-100219013D01*
X73858145Y-100868680D01*
X73849508Y-100871044D01*
X73842705Y-100867714D01*
X73193241Y-100219013D01*
X73007286Y-100033276D01*
X73003855Y-100025007D01*
X73007276Y-100016733D01*
X73842707Y-99182283D01*
X73850980Y-99178863D01*
X73858143Y-99181318D01*
G37*
%TD.AperFunction*%
%TD*%
%TA.AperFunction,Conductor*%
%TO.N,/OP_OUT*%
G36*
X85483433Y-68522768D02*
G01*
X86274547Y-68920126D01*
X86280402Y-68926901D01*
X86280113Y-68935039D01*
X86090145Y-69396003D01*
X86083825Y-69402346D01*
X86083445Y-69402497D01*
X85609911Y-69580524D01*
X85600961Y-69580227D01*
X85595306Y-69574758D01*
X85210196Y-68795907D01*
X85209601Y-68786972D01*
X85212409Y-68782450D01*
X85469910Y-68524949D01*
X85478182Y-68521523D01*
X85483433Y-68522768D01*
G37*
%TD.AperFunction*%
%TD*%
%TA.AperFunction,Conductor*%
%TO.N,/OP_OUT*%
G36*
X83819220Y-64803715D02*
G01*
X84274010Y-65122836D01*
X84278814Y-65130393D01*
X84277965Y-65137203D01*
X84006101Y-65743090D01*
X83999587Y-65749235D01*
X83995426Y-65750000D01*
X83629574Y-65750000D01*
X83621301Y-65746573D01*
X83618899Y-65743090D01*
X83347033Y-65137201D01*
X83346774Y-65128252D01*
X83350987Y-65122837D01*
X83805780Y-64803714D01*
X83814520Y-64801768D01*
X83819220Y-64803715D01*
G37*
%TD.AperFunction*%
%TD*%
%TA.AperFunction,Conductor*%
%TO.N,/OP_OUT*%
G36*
X83919220Y-62303715D02*
G01*
X84374010Y-62622836D01*
X84378814Y-62630393D01*
X84377965Y-62637203D01*
X84106101Y-63243090D01*
X84099587Y-63249235D01*
X84095426Y-63250000D01*
X83729574Y-63250000D01*
X83721301Y-63246573D01*
X83718899Y-63243090D01*
X83447033Y-62637201D01*
X83446774Y-62628252D01*
X83450987Y-62622837D01*
X83905780Y-62303714D01*
X83914520Y-62301768D01*
X83919220Y-62303715D01*
G37*
%TD.AperFunction*%
%TD*%
%TA.AperFunction,Conductor*%
%TO.N,/OP_OUT*%
G36*
X84102465Y-63853427D02*
G01*
X84105436Y-63858464D01*
X84279612Y-64463594D01*
X84278607Y-64472492D01*
X84275088Y-64476407D01*
X83819945Y-64795775D01*
X83811205Y-64797722D01*
X83805601Y-64795073D01*
X83434690Y-64476407D01*
X83381965Y-64431108D01*
X83377923Y-64423118D01*
X83379578Y-64416182D01*
X83718586Y-63855645D01*
X83725799Y-63850339D01*
X83728597Y-63850000D01*
X84094192Y-63850000D01*
X84102465Y-63853427D01*
G37*
%TD.AperFunction*%
%TD*%
%TA.AperFunction,Conductor*%
%TO.N,/D33*%
G36*
X81652820Y-64351375D02*
G01*
X81983255Y-64792991D01*
X81985468Y-64801668D01*
X81983255Y-64807009D01*
X81652820Y-65248624D01*
X81645120Y-65253196D01*
X81637626Y-65251761D01*
X81030874Y-64903372D01*
X81025406Y-64896281D01*
X81025000Y-64893226D01*
X81025000Y-64706773D01*
X81028427Y-64698500D01*
X81030874Y-64696627D01*
X81637628Y-64348237D01*
X81646507Y-64347090D01*
X81652820Y-64351375D01*
G37*
%TD.AperFunction*%
%TD*%
%TA.AperFunction,Conductor*%
%TO.N,/D33*%
G36*
X78856452Y-64062654D02*
G01*
X78856943Y-64062871D01*
X80205310Y-64696839D01*
X80211339Y-64703460D01*
X80212032Y-64707427D01*
X80212032Y-64892977D01*
X80208605Y-64901250D01*
X80205836Y-64903302D01*
X78857224Y-65622196D01*
X78848311Y-65623063D01*
X78841395Y-65617375D01*
X78840915Y-65616360D01*
X78543796Y-64901250D01*
X78521441Y-64847446D01*
X78521433Y-64838492D01*
X78521442Y-64838469D01*
X78575888Y-64707427D01*
X78841159Y-64068968D01*
X78847497Y-64062645D01*
X78856452Y-64062654D01*
G37*
%TD.AperFunction*%
%TD*%
%TA.AperFunction,Conductor*%
%TO.N,/D32*%
G36*
X81752820Y-61851375D02*
G01*
X82083255Y-62292991D01*
X82085468Y-62301668D01*
X82083255Y-62307009D01*
X81752820Y-62748624D01*
X81745120Y-62753196D01*
X81737626Y-62751761D01*
X81130874Y-62403372D01*
X81125406Y-62396281D01*
X81125000Y-62393226D01*
X81125000Y-62206773D01*
X81128427Y-62198500D01*
X81130874Y-62196627D01*
X81737628Y-61848237D01*
X81746507Y-61847090D01*
X81752820Y-61851375D01*
G37*
%TD.AperFunction*%
%TD*%
%TA.AperFunction,Conductor*%
%TO.N,/D32*%
G36*
X78856350Y-61522899D02*
G01*
X78857065Y-61523225D01*
X80213493Y-62196774D01*
X80219378Y-62203523D01*
X80219989Y-62207253D01*
X80219989Y-62392774D01*
X80216562Y-62401047D01*
X80213529Y-62403235D01*
X78857085Y-63082632D01*
X78848153Y-63083273D01*
X78841384Y-63077411D01*
X78841040Y-63076660D01*
X78521442Y-62307447D01*
X78521433Y-62298492D01*
X78521442Y-62298469D01*
X78560891Y-62203523D01*
X78841057Y-61529213D01*
X78847395Y-61522890D01*
X78856350Y-61522899D01*
G37*
%TD.AperFunction*%
%TD*%
%TA.AperFunction,Conductor*%
%TO.N,GND*%
G36*
X103612988Y-81842003D02*
G01*
X103619086Y-81848225D01*
X103939112Y-82618469D01*
X103939121Y-82627424D01*
X103939112Y-82627447D01*
X103619086Y-83397690D01*
X103612747Y-83404015D01*
X103604036Y-83404104D01*
X102247433Y-82875860D01*
X102240967Y-82869664D01*
X102239978Y-82864957D01*
X102239978Y-82380958D01*
X102243405Y-82372685D01*
X102247433Y-82370055D01*
X103604036Y-81841811D01*
X103612988Y-81842003D01*
G37*
%TD.AperFunction*%
%TD*%
%TA.AperFunction,Conductor*%
%TO.N,GND*%
G36*
X100877026Y-82195563D02*
G01*
X101050661Y-82237443D01*
X101603544Y-82370797D01*
X101610782Y-82376068D01*
X101612500Y-82382171D01*
X101612500Y-82866403D01*
X101609073Y-82874676D01*
X101606909Y-82876381D01*
X100946081Y-83280978D01*
X100937236Y-83282376D01*
X100932570Y-83280061D01*
X100309048Y-82770708D01*
X100304809Y-82762820D01*
X100307389Y-82754245D01*
X100308195Y-82753356D01*
X100866034Y-82198640D01*
X100874316Y-82195237D01*
X100877026Y-82195563D01*
G37*
%TD.AperFunction*%
%TD*%
%TA.AperFunction,Conductor*%
%TO.N,/3V3*%
G36*
X103612988Y-84382003D02*
G01*
X103619086Y-84388225D01*
X103939112Y-85158469D01*
X103939121Y-85167424D01*
X103939112Y-85167447D01*
X103619086Y-85937690D01*
X103612747Y-85944015D01*
X103604036Y-85944104D01*
X102247433Y-85415860D01*
X102240967Y-85409664D01*
X102239978Y-85404957D01*
X102239978Y-84920958D01*
X102243405Y-84912685D01*
X102247433Y-84910055D01*
X103604036Y-84381811D01*
X103612988Y-84382003D01*
G37*
%TD.AperFunction*%
%TD*%
%TA.AperFunction,Conductor*%
%TO.N,/3V3*%
G36*
X101013034Y-84412922D02*
G01*
X101608294Y-84909450D01*
X101612452Y-84917380D01*
X101612500Y-84918434D01*
X101612500Y-85401424D01*
X101609073Y-85409697D01*
X101600968Y-85413123D01*
X100780681Y-85424918D01*
X100772360Y-85421610D01*
X100771422Y-85420584D01*
X100307432Y-84847907D01*
X100304887Y-84839322D01*
X100309158Y-84831451D01*
X100310433Y-84830553D01*
X100999467Y-84411907D01*
X101008315Y-84410541D01*
X101013034Y-84412922D01*
G37*
%TD.AperFunction*%
%TD*%
%TA.AperFunction,Conductor*%
%TO.N,/VIN*%
G36*
X72716646Y-84378556D02*
G01*
X72717372Y-84378888D01*
X74074401Y-85055367D01*
X74080275Y-85062124D01*
X74080880Y-85065837D01*
X74080880Y-85251356D01*
X74077453Y-85259629D01*
X74074400Y-85261827D01*
X72717377Y-85938303D01*
X72708444Y-85938927D01*
X72701686Y-85933052D01*
X72701352Y-85932321D01*
X72381745Y-85163086D01*
X72381736Y-85154131D01*
X72381745Y-85154108D01*
X72701352Y-84384871D01*
X72707691Y-84378547D01*
X72716646Y-84378556D01*
G37*
%TD.AperFunction*%
%TD*%
%TA.AperFunction,Conductor*%
%TO.N,/VIN*%
G36*
X78199771Y-84388499D02*
G01*
X78200093Y-84389206D01*
X78519711Y-85158469D01*
X78519720Y-85167424D01*
X78519711Y-85167447D01*
X78200117Y-85936650D01*
X78193778Y-85942975D01*
X78184823Y-85942966D01*
X78184063Y-85942617D01*
X76827895Y-85261835D01*
X76822039Y-85255061D01*
X76821444Y-85251379D01*
X76821444Y-85065856D01*
X76824871Y-85057583D01*
X76827946Y-85055374D01*
X78184094Y-84383211D01*
X78193027Y-84382608D01*
X78199771Y-84388499D01*
G37*
%TD.AperFunction*%
%TD*%
%TA.AperFunction,Conductor*%
%TO.N,/D13*%
G36*
X72716646Y-79298556D02*
G01*
X72717372Y-79298888D01*
X74074401Y-79975367D01*
X74080275Y-79982124D01*
X74080880Y-79985837D01*
X74080880Y-80171356D01*
X74077453Y-80179629D01*
X74074400Y-80181827D01*
X72717377Y-80858303D01*
X72708444Y-80858927D01*
X72701686Y-80853052D01*
X72701352Y-80852321D01*
X72381745Y-80083086D01*
X72381736Y-80074131D01*
X72381745Y-80074108D01*
X72701352Y-79304871D01*
X72707691Y-79298547D01*
X72716646Y-79298556D01*
G37*
%TD.AperFunction*%
%TD*%
%TA.AperFunction,Conductor*%
%TO.N,/D13*%
G36*
X78199771Y-79308499D02*
G01*
X78200093Y-79309206D01*
X78519711Y-80078469D01*
X78519720Y-80087424D01*
X78519711Y-80087447D01*
X78200117Y-80856650D01*
X78193778Y-80862975D01*
X78184823Y-80862966D01*
X78184063Y-80862617D01*
X76827895Y-80181835D01*
X76822039Y-80175061D01*
X76821444Y-80171379D01*
X76821444Y-79985856D01*
X76824871Y-79977583D01*
X76827946Y-79975374D01*
X78184094Y-79303211D01*
X78193027Y-79302608D01*
X78199771Y-79308499D01*
G37*
%TD.AperFunction*%
%TD*%
%TA.AperFunction,Conductor*%
%TO.N,/D12*%
G36*
X72716646Y-76758556D02*
G01*
X72717372Y-76758888D01*
X74074401Y-77435367D01*
X74080275Y-77442124D01*
X74080880Y-77445837D01*
X74080880Y-77631356D01*
X74077453Y-77639629D01*
X74074400Y-77641827D01*
X72717377Y-78318303D01*
X72708444Y-78318927D01*
X72701686Y-78313052D01*
X72701352Y-78312321D01*
X72381745Y-77543086D01*
X72381736Y-77534131D01*
X72381745Y-77534108D01*
X72701352Y-76764871D01*
X72707691Y-76758547D01*
X72716646Y-76758556D01*
G37*
%TD.AperFunction*%
%TD*%
%TA.AperFunction,Conductor*%
%TO.N,/D12*%
G36*
X78199771Y-76768499D02*
G01*
X78200093Y-76769206D01*
X78519711Y-77538469D01*
X78519720Y-77547424D01*
X78519711Y-77547447D01*
X78200117Y-78316650D01*
X78193778Y-78322975D01*
X78184823Y-78322966D01*
X78184063Y-78322617D01*
X76827895Y-77641835D01*
X76822039Y-77635061D01*
X76821444Y-77631379D01*
X76821444Y-77445856D01*
X76824871Y-77437583D01*
X76827946Y-77435374D01*
X78184094Y-76763211D01*
X78193027Y-76762608D01*
X78199771Y-76768499D01*
G37*
%TD.AperFunction*%
%TD*%
%TA.AperFunction,Conductor*%
%TO.N,/D14*%
G36*
X72716646Y-74218556D02*
G01*
X72717372Y-74218888D01*
X74074401Y-74895367D01*
X74080275Y-74902124D01*
X74080880Y-74905837D01*
X74080880Y-75091356D01*
X74077453Y-75099629D01*
X74074400Y-75101827D01*
X72717377Y-75778303D01*
X72708444Y-75778927D01*
X72701686Y-75773052D01*
X72701352Y-75772321D01*
X72381745Y-75003086D01*
X72381736Y-74994131D01*
X72381745Y-74994108D01*
X72701352Y-74224871D01*
X72707691Y-74218547D01*
X72716646Y-74218556D01*
G37*
%TD.AperFunction*%
%TD*%
%TA.AperFunction,Conductor*%
%TO.N,/D14*%
G36*
X78199771Y-74228499D02*
G01*
X78200093Y-74229206D01*
X78519711Y-74998469D01*
X78519720Y-75007424D01*
X78519711Y-75007447D01*
X78200117Y-75776650D01*
X78193778Y-75782975D01*
X78184823Y-75782966D01*
X78184063Y-75782617D01*
X76827895Y-75101835D01*
X76822039Y-75095061D01*
X76821444Y-75091379D01*
X76821444Y-74905856D01*
X76824871Y-74897583D01*
X76827946Y-74895374D01*
X78184094Y-74223211D01*
X78193027Y-74222608D01*
X78199771Y-74228499D01*
G37*
%TD.AperFunction*%
%TD*%
%TA.AperFunction,Conductor*%
%TO.N,/D27*%
G36*
X72716646Y-71678556D02*
G01*
X72717372Y-71678888D01*
X74074401Y-72355367D01*
X74080275Y-72362124D01*
X74080880Y-72365837D01*
X74080880Y-72551356D01*
X74077453Y-72559629D01*
X74074400Y-72561827D01*
X72717377Y-73238303D01*
X72708444Y-73238927D01*
X72701686Y-73233052D01*
X72701352Y-73232321D01*
X72381745Y-72463086D01*
X72381736Y-72454131D01*
X72381745Y-72454108D01*
X72701352Y-71684871D01*
X72707691Y-71678547D01*
X72716646Y-71678556D01*
G37*
%TD.AperFunction*%
%TD*%
%TA.AperFunction,Conductor*%
%TO.N,/D27*%
G36*
X78199771Y-71688499D02*
G01*
X78200093Y-71689206D01*
X78519711Y-72458469D01*
X78519720Y-72467424D01*
X78519711Y-72467447D01*
X78200117Y-73236650D01*
X78193778Y-73242975D01*
X78184823Y-73242966D01*
X78184063Y-73242617D01*
X76827895Y-72561835D01*
X76822039Y-72555061D01*
X76821444Y-72551379D01*
X76821444Y-72365856D01*
X76824871Y-72357583D01*
X76827946Y-72355374D01*
X78184094Y-71683211D01*
X78193027Y-71682608D01*
X78199771Y-71688499D01*
G37*
%TD.AperFunction*%
%TD*%
%TA.AperFunction,Conductor*%
%TO.N,/D26*%
G36*
X72716646Y-69138556D02*
G01*
X72717372Y-69138888D01*
X74074401Y-69815367D01*
X74080275Y-69822124D01*
X74080880Y-69825837D01*
X74080880Y-70011356D01*
X74077453Y-70019629D01*
X74074400Y-70021827D01*
X72717377Y-70698303D01*
X72708444Y-70698927D01*
X72701686Y-70693052D01*
X72701352Y-70692321D01*
X72381745Y-69923086D01*
X72381736Y-69914131D01*
X72381745Y-69914108D01*
X72701352Y-69144871D01*
X72707691Y-69138547D01*
X72716646Y-69138556D01*
G37*
%TD.AperFunction*%
%TD*%
%TA.AperFunction,Conductor*%
%TO.N,/D26*%
G36*
X78199771Y-69148499D02*
G01*
X78200093Y-69149206D01*
X78519711Y-69918469D01*
X78519720Y-69927424D01*
X78519711Y-69927447D01*
X78200117Y-70696650D01*
X78193778Y-70702975D01*
X78184823Y-70702966D01*
X78184063Y-70702617D01*
X76827895Y-70021835D01*
X76822039Y-70015061D01*
X76821444Y-70011379D01*
X76821444Y-69825856D01*
X76824871Y-69817583D01*
X76827946Y-69815374D01*
X78184094Y-69143211D01*
X78193027Y-69142608D01*
X78199771Y-69148499D01*
G37*
%TD.AperFunction*%
%TD*%
%TA.AperFunction,Conductor*%
%TO.N,/D25*%
G36*
X72716646Y-66598556D02*
G01*
X72717372Y-66598888D01*
X74074401Y-67275367D01*
X74080275Y-67282124D01*
X74080880Y-67285837D01*
X74080880Y-67471356D01*
X74077453Y-67479629D01*
X74074400Y-67481827D01*
X72717377Y-68158303D01*
X72708444Y-68158927D01*
X72701686Y-68153052D01*
X72701352Y-68152321D01*
X72381745Y-67383086D01*
X72381736Y-67374131D01*
X72381745Y-67374108D01*
X72701352Y-66604871D01*
X72707691Y-66598547D01*
X72716646Y-66598556D01*
G37*
%TD.AperFunction*%
%TD*%
%TA.AperFunction,Conductor*%
%TO.N,/D25*%
G36*
X78199771Y-66608499D02*
G01*
X78200093Y-66609206D01*
X78519711Y-67378469D01*
X78519720Y-67387424D01*
X78519711Y-67387447D01*
X78200117Y-68156650D01*
X78193778Y-68162975D01*
X78184823Y-68162966D01*
X78184063Y-68162617D01*
X76827895Y-67481835D01*
X76822039Y-67475061D01*
X76821444Y-67471379D01*
X76821444Y-67285856D01*
X76824871Y-67277583D01*
X76827946Y-67275374D01*
X78184094Y-66603211D01*
X78193027Y-66602608D01*
X78199771Y-66608499D01*
G37*
%TD.AperFunction*%
%TD*%
%TA.AperFunction,Conductor*%
%TO.N,/D33*%
G36*
X72716646Y-64058556D02*
G01*
X72717372Y-64058888D01*
X74074401Y-64735367D01*
X74080275Y-64742124D01*
X74080880Y-64745837D01*
X74080880Y-64931356D01*
X74077453Y-64939629D01*
X74074400Y-64941827D01*
X72717377Y-65618303D01*
X72708444Y-65618927D01*
X72701686Y-65613052D01*
X72701352Y-65612321D01*
X72381745Y-64843086D01*
X72381736Y-64834131D01*
X72381745Y-64834108D01*
X72701352Y-64064871D01*
X72707691Y-64058547D01*
X72716646Y-64058556D01*
G37*
%TD.AperFunction*%
%TD*%
%TA.AperFunction,Conductor*%
%TO.N,/D33*%
G36*
X78199771Y-64068499D02*
G01*
X78200093Y-64069206D01*
X78519711Y-64838469D01*
X78519720Y-64847424D01*
X78519711Y-64847447D01*
X78200117Y-65616650D01*
X78193778Y-65622975D01*
X78184823Y-65622966D01*
X78184063Y-65622617D01*
X76827895Y-64941835D01*
X76822039Y-64935061D01*
X76821444Y-64931379D01*
X76821444Y-64745856D01*
X76824871Y-64737583D01*
X76827946Y-64735374D01*
X78184094Y-64063211D01*
X78193027Y-64062608D01*
X78199771Y-64068499D01*
G37*
%TD.AperFunction*%
%TD*%
%TA.AperFunction,Conductor*%
%TO.N,/D32*%
G36*
X72716646Y-61518556D02*
G01*
X72717372Y-61518888D01*
X74074401Y-62195367D01*
X74080275Y-62202124D01*
X74080880Y-62205837D01*
X74080880Y-62391356D01*
X74077453Y-62399629D01*
X74074400Y-62401827D01*
X72717377Y-63078303D01*
X72708444Y-63078927D01*
X72701686Y-63073052D01*
X72701352Y-63072321D01*
X72381745Y-62303086D01*
X72381736Y-62294131D01*
X72381745Y-62294108D01*
X72701352Y-61524871D01*
X72707691Y-61518547D01*
X72716646Y-61518556D01*
G37*
%TD.AperFunction*%
%TD*%
%TA.AperFunction,Conductor*%
%TO.N,/D32*%
G36*
X78199771Y-61528499D02*
G01*
X78200093Y-61529206D01*
X78519711Y-62298469D01*
X78519720Y-62307424D01*
X78519711Y-62307447D01*
X78200117Y-63076650D01*
X78193778Y-63082975D01*
X78184823Y-63082966D01*
X78184063Y-63082617D01*
X76827895Y-62401835D01*
X76822039Y-62395061D01*
X76821444Y-62391379D01*
X76821444Y-62205856D01*
X76824871Y-62197583D01*
X76827946Y-62195374D01*
X78184094Y-61523211D01*
X78193027Y-61522608D01*
X78199771Y-61528499D01*
G37*
%TD.AperFunction*%
%TD*%
%TA.AperFunction,Conductor*%
%TO.N,/D35*%
G36*
X72716646Y-58978556D02*
G01*
X72717372Y-58978888D01*
X74074401Y-59655367D01*
X74080275Y-59662124D01*
X74080880Y-59665837D01*
X74080880Y-59851356D01*
X74077453Y-59859629D01*
X74074400Y-59861827D01*
X72717377Y-60538303D01*
X72708444Y-60538927D01*
X72701686Y-60533052D01*
X72701352Y-60532321D01*
X72381745Y-59763086D01*
X72381736Y-59754131D01*
X72381745Y-59754108D01*
X72701352Y-58984871D01*
X72707691Y-58978547D01*
X72716646Y-58978556D01*
G37*
%TD.AperFunction*%
%TD*%
%TA.AperFunction,Conductor*%
%TO.N,/D35*%
G36*
X78199771Y-58988499D02*
G01*
X78200093Y-58989206D01*
X78519711Y-59758469D01*
X78519720Y-59767424D01*
X78519711Y-59767447D01*
X78200117Y-60536650D01*
X78193778Y-60542975D01*
X78184823Y-60542966D01*
X78184063Y-60542617D01*
X76827895Y-59861835D01*
X76822039Y-59855061D01*
X76821444Y-59851379D01*
X76821444Y-59665856D01*
X76824871Y-59657583D01*
X76827946Y-59655374D01*
X78184094Y-58983211D01*
X78193027Y-58982608D01*
X78199771Y-58988499D01*
G37*
%TD.AperFunction*%
%TD*%
%TA.AperFunction,Conductor*%
%TO.N,/D34*%
G36*
X72716646Y-56438556D02*
G01*
X72717372Y-56438888D01*
X74074401Y-57115367D01*
X74080275Y-57122124D01*
X74080880Y-57125837D01*
X74080880Y-57311356D01*
X74077453Y-57319629D01*
X74074400Y-57321827D01*
X72717377Y-57998303D01*
X72708444Y-57998927D01*
X72701686Y-57993052D01*
X72701352Y-57992321D01*
X72381745Y-57223086D01*
X72381736Y-57214131D01*
X72381745Y-57214108D01*
X72701352Y-56444871D01*
X72707691Y-56438547D01*
X72716646Y-56438556D01*
G37*
%TD.AperFunction*%
%TD*%
%TA.AperFunction,Conductor*%
%TO.N,/D34*%
G36*
X78199771Y-56448499D02*
G01*
X78200093Y-56449206D01*
X78519711Y-57218469D01*
X78519720Y-57227424D01*
X78519711Y-57227447D01*
X78200117Y-57996650D01*
X78193778Y-58002975D01*
X78184823Y-58002966D01*
X78184063Y-58002617D01*
X76827895Y-57321835D01*
X76822039Y-57315061D01*
X76821444Y-57311379D01*
X76821444Y-57125856D01*
X76824871Y-57117583D01*
X76827946Y-57115374D01*
X78184094Y-56443211D01*
X78193027Y-56442608D01*
X78199771Y-56448499D01*
G37*
%TD.AperFunction*%
%TD*%
%TA.AperFunction,Conductor*%
%TO.N,/VN*%
G36*
X72716646Y-53898556D02*
G01*
X72717372Y-53898888D01*
X74074401Y-54575367D01*
X74080275Y-54582124D01*
X74080880Y-54585837D01*
X74080880Y-54771356D01*
X74077453Y-54779629D01*
X74074400Y-54781827D01*
X72717377Y-55458303D01*
X72708444Y-55458927D01*
X72701686Y-55453052D01*
X72701352Y-55452321D01*
X72381745Y-54683086D01*
X72381736Y-54674131D01*
X72381745Y-54674108D01*
X72701352Y-53904871D01*
X72707691Y-53898547D01*
X72716646Y-53898556D01*
G37*
%TD.AperFunction*%
%TD*%
%TA.AperFunction,Conductor*%
%TO.N,/VN*%
G36*
X78199771Y-53908499D02*
G01*
X78200093Y-53909206D01*
X78519711Y-54678469D01*
X78519720Y-54687424D01*
X78519711Y-54687447D01*
X78200117Y-55456650D01*
X78193778Y-55462975D01*
X78184823Y-55462966D01*
X78184063Y-55462617D01*
X76827895Y-54781835D01*
X76822039Y-54775061D01*
X76821444Y-54771379D01*
X76821444Y-54585856D01*
X76824871Y-54577583D01*
X76827946Y-54575374D01*
X78184094Y-53903211D01*
X78193027Y-53902608D01*
X78199771Y-53908499D01*
G37*
%TD.AperFunction*%
%TD*%
%TA.AperFunction,Conductor*%
%TO.N,/VP*%
G36*
X72716646Y-51358556D02*
G01*
X72717372Y-51358888D01*
X74074401Y-52035367D01*
X74080275Y-52042124D01*
X74080880Y-52045837D01*
X74080880Y-52231356D01*
X74077453Y-52239629D01*
X74074400Y-52241827D01*
X72717377Y-52918303D01*
X72708444Y-52918927D01*
X72701686Y-52913052D01*
X72701352Y-52912321D01*
X72381745Y-52143086D01*
X72381736Y-52134131D01*
X72381745Y-52134108D01*
X72701352Y-51364871D01*
X72707691Y-51358547D01*
X72716646Y-51358556D01*
G37*
%TD.AperFunction*%
%TD*%
%TA.AperFunction,Conductor*%
%TO.N,/VP*%
G36*
X78199771Y-51368499D02*
G01*
X78200093Y-51369206D01*
X78519711Y-52138469D01*
X78519720Y-52147424D01*
X78519711Y-52147447D01*
X78200117Y-52916650D01*
X78193778Y-52922975D01*
X78184823Y-52922966D01*
X78184063Y-52922617D01*
X76827895Y-52241835D01*
X76822039Y-52235061D01*
X76821444Y-52231379D01*
X76821444Y-52045856D01*
X76824871Y-52037583D01*
X76827946Y-52035374D01*
X78184094Y-51363211D01*
X78193027Y-51362608D01*
X78199771Y-51368499D01*
G37*
%TD.AperFunction*%
%TD*%
%TA.AperFunction,Conductor*%
%TO.N,/EN*%
G36*
X73239115Y-48755863D02*
G01*
X74076921Y-49495104D01*
X74080857Y-49503146D01*
X74080880Y-49503876D01*
X74080880Y-49693317D01*
X74077453Y-49701590D01*
X74076921Y-49702090D01*
X73239116Y-50441329D01*
X73230645Y-50444233D01*
X73223108Y-50440834D01*
X72388166Y-49606873D01*
X72384735Y-49598604D01*
X72388156Y-49590330D01*
X73223110Y-48756357D01*
X73231382Y-48752937D01*
X73239115Y-48755863D01*
G37*
%TD.AperFunction*%
%TD*%
%TA.AperFunction,Conductor*%
%TO.N,/EN*%
G36*
X77678326Y-48760698D02*
G01*
X78513278Y-49594669D01*
X78516710Y-49602939D01*
X78513288Y-49611214D01*
X78513268Y-49611235D01*
X77678360Y-50443023D01*
X77670080Y-50446434D01*
X77662348Y-50443496D01*
X76824523Y-49702088D01*
X76820599Y-49694039D01*
X76820577Y-49693326D01*
X76820577Y-49503897D01*
X76824004Y-49495624D01*
X76824561Y-49495102D01*
X77662343Y-48760180D01*
X77670822Y-48757301D01*
X77678326Y-48760698D01*
G37*
%TD.AperFunction*%
%TD*%
%TA.AperFunction,Conductor*%
%TO.N,Net-(Q1-C)*%
G36*
X93908265Y-113169778D02*
G01*
X94322376Y-113584565D01*
X94505622Y-113768111D01*
X94509042Y-113776387D01*
X94506977Y-113783015D01*
X94093988Y-114382438D01*
X94086472Y-114387307D01*
X94084353Y-114387500D01*
X93715647Y-114387500D01*
X93707374Y-114384073D01*
X93706012Y-114382438D01*
X93293022Y-113783015D01*
X93291150Y-113774258D01*
X93294376Y-113768112D01*
X93891720Y-113169792D01*
X93899990Y-113166359D01*
X93908265Y-113169778D01*
G37*
%TD.AperFunction*%
%TD*%
%TA.AperFunction,Conductor*%
%TO.N,/5V*%
G36*
X101877965Y-106951511D02*
G01*
X102442148Y-107239115D01*
X102447962Y-107245926D01*
X102447258Y-107254853D01*
X102441785Y-107260140D01*
X101840311Y-107541034D01*
X101833813Y-107542030D01*
X101435153Y-107488854D01*
X101427406Y-107484364D01*
X101425000Y-107477257D01*
X101425000Y-106998266D01*
X101428427Y-106989993D01*
X101435728Y-106986606D01*
X101871683Y-106950276D01*
X101877965Y-106951511D01*
G37*
%TD.AperFunction*%
%TD*%
%TA.AperFunction,Conductor*%
%TO.N,/5V*%
G36*
X95425059Y-106645996D02*
G01*
X95425140Y-106646032D01*
X95625530Y-106735788D01*
X96180584Y-106984402D01*
X96186732Y-106990911D01*
X96187500Y-106995079D01*
X96187500Y-107479920D01*
X96184073Y-107488193D01*
X96180583Y-107490598D01*
X95425140Y-107828967D01*
X95416189Y-107829221D01*
X95416106Y-107829189D01*
X94462009Y-107457080D01*
X93926946Y-107248399D01*
X93920484Y-107242202D01*
X93920298Y-107233249D01*
X93926496Y-107226786D01*
X93926932Y-107226606D01*
X95416106Y-106645810D01*
X95425059Y-106645996D01*
G37*
%TD.AperFunction*%
%TD*%
M02*
