M48
; DRILL file {KiCad 8.0.1} date 2024-04-26T12:20:57-0700
; FORMAT={-:-/ absolute / metric / decimal}
; #@! TF.CreationDate,2024-04-26T12:20:57-07:00
; #@! TF.GenerationSoftware,Kicad,Pcbnew,8.0.1
; #@! TF.FileFunction,MixedPlating,1,2
FMAT,2
METRIC
; #@! TA.AperFunction,Plated,PTH,ViaDrill
T1C0.300
; #@! TA.AperFunction,Plated,PTH,ComponentDrill
T2C1.000
; #@! TA.AperFunction,Plated,PTH,ComponentDrill
T3C1.300
; #@! TA.AperFunction,NonPlated,NPTH,ComponentDrill
T4C2.200
%
G90
G05
T1
X75.4Y-90.6
X76.0Y-63.6
X78.6Y-139.1
X78.8Y-123.6
X80.4Y-105.6
X81.3Y-101.4
X82.1Y-94.6
X88.1Y-112.3
X89.0Y-98.3
X89.9Y-68.3
X90.6Y-99.9
X95.3Y-131.2
X96.0Y-116.0
X98.5Y-95.6
X99.4Y-98.3
X100.0Y-108.4
X100.1Y-106.1
X100.2Y-137.7
X106.0Y-92.1
X106.2Y-110.6
X106.3Y-107.2
X106.7Y-102.6
X107.1Y-71.3
X108.8Y-126.4
T2
X72.381Y-49.599
X72.381Y-52.139
X72.381Y-54.679
X72.381Y-57.219
X72.381Y-59.759
X72.381Y-62.299
X72.381Y-64.839
X72.381Y-67.379
X72.381Y-69.919
X72.381Y-72.459
X72.381Y-74.999
X72.381Y-77.539
X72.381Y-80.079
X72.381Y-82.619
X72.381Y-85.159
X72.381Y-87.699
X73.0Y-100.025
X73.0Y-102.565
X73.1Y-110.12
X73.1Y-112.66
X73.1Y-115.2
X73.4Y-130.425
X73.4Y-132.965
X78.521Y-49.603
X78.521Y-52.143
X78.521Y-54.683
X78.521Y-57.223
X78.521Y-59.763
X78.521Y-62.303
X78.521Y-64.843
X78.521Y-67.383
X78.521Y-69.923
X78.521Y-72.463
X78.521Y-75.003
X78.521Y-77.543
X78.521Y-80.083
X78.521Y-82.623
X78.521Y-85.163
X78.521Y-87.703
X103.94Y-49.603
X103.94Y-52.143
X103.94Y-54.683
X103.94Y-57.223
X103.94Y-59.763
X103.94Y-62.303
X103.94Y-64.843
X103.94Y-67.383
X103.94Y-69.923
X103.94Y-72.463
X103.94Y-75.003
X103.94Y-77.543
X103.94Y-80.083
X103.94Y-82.623
X103.94Y-85.163
X103.94Y-87.703
X110.2Y-95.66
X110.2Y-98.2
X110.2Y-106.56
X110.2Y-109.1
X110.3Y-49.6
X110.3Y-52.14
X110.3Y-54.68
X110.3Y-57.22
X110.3Y-59.76
X110.3Y-62.3
X110.3Y-64.84
X110.3Y-67.38
X110.3Y-69.92
X110.3Y-72.46
X110.3Y-75.0
X110.3Y-77.54
X110.3Y-80.08
X110.3Y-82.62
X110.3Y-85.16
X110.3Y-87.7
T3
X86.7Y-121.6
X91.7Y-121.6
X97.3Y-121.6
X102.3Y-121.6
T4
X72.4Y-43.9
X72.4Y-139.7
X110.2Y-43.9
X110.2Y-139.7
M30
