%TF.GenerationSoftware,KiCad,Pcbnew,8.0.1*%
%TF.CreationDate,2024-04-26T12:21:13-07:00*%
%TF.ProjectId,Sendes,53656e64-6573-42e6-9b69-6361645f7063,rev?*%
%TF.SameCoordinates,Original*%
%TF.FileFunction,Legend,Top*%
%TF.FilePolarity,Positive*%
%FSLAX46Y46*%
G04 Gerber Fmt 4.6, Leading zero omitted, Abs format (unit mm)*
G04 Created by KiCad (PCBNEW 8.0.1) date 2024-04-26 12:21:13*
%MOMM*%
%LPD*%
G01*
G04 APERTURE LIST*
%ADD10C,0.200000*%
%ADD11C,0.250000*%
%ADD12C,0.150000*%
%ADD13C,0.120000*%
%ADD14C,0.152400*%
G04 APERTURE END LIST*
D10*
X112469673Y-109086266D02*
X113231578Y-109086266D01*
X112369673Y-106286266D02*
X113131578Y-106286266D01*
X112750625Y-106667219D02*
X112750625Y-105905314D01*
X108067219Y-109430326D02*
X107067219Y-109430326D01*
X107067219Y-109430326D02*
X108067219Y-108858898D01*
X108067219Y-108858898D02*
X107067219Y-108858898D01*
X107781504Y-108430326D02*
X107781504Y-107954136D01*
X108067219Y-108525564D02*
X107067219Y-108192231D01*
X107067219Y-108192231D02*
X108067219Y-107858898D01*
X108067219Y-107525564D02*
X107067219Y-107525564D01*
X107067219Y-107525564D02*
X108067219Y-106954136D01*
X108067219Y-106954136D02*
X107067219Y-106954136D01*
X107067219Y-106287469D02*
X107067219Y-106096993D01*
X107067219Y-106096993D02*
X107114838Y-106001755D01*
X107114838Y-106001755D02*
X107210076Y-105906517D01*
X107210076Y-105906517D02*
X107400552Y-105858898D01*
X107400552Y-105858898D02*
X107733885Y-105858898D01*
X107733885Y-105858898D02*
X107924361Y-105906517D01*
X107924361Y-105906517D02*
X108019600Y-106001755D01*
X108019600Y-106001755D02*
X108067219Y-106096993D01*
X108067219Y-106096993D02*
X108067219Y-106287469D01*
X108067219Y-106287469D02*
X108019600Y-106382707D01*
X108019600Y-106382707D02*
X107924361Y-106477945D01*
X107924361Y-106477945D02*
X107733885Y-106525564D01*
X107733885Y-106525564D02*
X107400552Y-106525564D01*
X107400552Y-106525564D02*
X107210076Y-106477945D01*
X107210076Y-106477945D02*
X107114838Y-106382707D01*
X107114838Y-106382707D02*
X107067219Y-106287469D01*
X71167219Y-134630326D02*
X70167219Y-134630326D01*
X70167219Y-134630326D02*
X71167219Y-134058898D01*
X71167219Y-134058898D02*
X70167219Y-134058898D01*
X70643409Y-133582707D02*
X70643409Y-133249374D01*
X71167219Y-133106517D02*
X71167219Y-133582707D01*
X71167219Y-133582707D02*
X70167219Y-133582707D01*
X70167219Y-133582707D02*
X70167219Y-133106517D01*
X70214838Y-132154136D02*
X70167219Y-132249374D01*
X70167219Y-132249374D02*
X70167219Y-132392231D01*
X70167219Y-132392231D02*
X70214838Y-132535088D01*
X70214838Y-132535088D02*
X70310076Y-132630326D01*
X70310076Y-132630326D02*
X70405314Y-132677945D01*
X70405314Y-132677945D02*
X70595790Y-132725564D01*
X70595790Y-132725564D02*
X70738647Y-132725564D01*
X70738647Y-132725564D02*
X70929123Y-132677945D01*
X70929123Y-132677945D02*
X71024361Y-132630326D01*
X71024361Y-132630326D02*
X71119600Y-132535088D01*
X71119600Y-132535088D02*
X71167219Y-132392231D01*
X71167219Y-132392231D02*
X71167219Y-132296993D01*
X71167219Y-132296993D02*
X71119600Y-132154136D01*
X71119600Y-132154136D02*
X71071980Y-132106517D01*
X71071980Y-132106517D02*
X70738647Y-132106517D01*
X70738647Y-132106517D02*
X70738647Y-132296993D01*
X71267219Y-130330326D02*
X70267219Y-130330326D01*
X70267219Y-130330326D02*
X70267219Y-129949374D01*
X70267219Y-129949374D02*
X70314838Y-129854136D01*
X70314838Y-129854136D02*
X70362457Y-129806517D01*
X70362457Y-129806517D02*
X70457695Y-129758898D01*
X70457695Y-129758898D02*
X70600552Y-129758898D01*
X70600552Y-129758898D02*
X70695790Y-129806517D01*
X70695790Y-129806517D02*
X70743409Y-129854136D01*
X70743409Y-129854136D02*
X70791028Y-129949374D01*
X70791028Y-129949374D02*
X70791028Y-130330326D01*
X70267219Y-129139850D02*
X70267219Y-128949374D01*
X70267219Y-128949374D02*
X70314838Y-128854136D01*
X70314838Y-128854136D02*
X70410076Y-128758898D01*
X70410076Y-128758898D02*
X70600552Y-128711279D01*
X70600552Y-128711279D02*
X70933885Y-128711279D01*
X70933885Y-128711279D02*
X71124361Y-128758898D01*
X71124361Y-128758898D02*
X71219600Y-128854136D01*
X71219600Y-128854136D02*
X71267219Y-128949374D01*
X71267219Y-128949374D02*
X71267219Y-129139850D01*
X71267219Y-129139850D02*
X71219600Y-129235088D01*
X71219600Y-129235088D02*
X71124361Y-129330326D01*
X71124361Y-129330326D02*
X70933885Y-129377945D01*
X70933885Y-129377945D02*
X70600552Y-129377945D01*
X70600552Y-129377945D02*
X70410076Y-129330326D01*
X70410076Y-129330326D02*
X70314838Y-129235088D01*
X70314838Y-129235088D02*
X70267219Y-129139850D01*
X71219600Y-128330326D02*
X71267219Y-128187469D01*
X71267219Y-128187469D02*
X71267219Y-127949374D01*
X71267219Y-127949374D02*
X71219600Y-127854136D01*
X71219600Y-127854136D02*
X71171980Y-127806517D01*
X71171980Y-127806517D02*
X71076742Y-127758898D01*
X71076742Y-127758898D02*
X70981504Y-127758898D01*
X70981504Y-127758898D02*
X70886266Y-127806517D01*
X70886266Y-127806517D02*
X70838647Y-127854136D01*
X70838647Y-127854136D02*
X70791028Y-127949374D01*
X70791028Y-127949374D02*
X70743409Y-128139850D01*
X70743409Y-128139850D02*
X70695790Y-128235088D01*
X70695790Y-128235088D02*
X70648171Y-128282707D01*
X70648171Y-128282707D02*
X70552933Y-128330326D01*
X70552933Y-128330326D02*
X70457695Y-128330326D01*
X70457695Y-128330326D02*
X70362457Y-128282707D01*
X70362457Y-128282707D02*
X70314838Y-128235088D01*
X70314838Y-128235088D02*
X70267219Y-128139850D01*
X70267219Y-128139850D02*
X70267219Y-127901755D01*
X70267219Y-127901755D02*
X70314838Y-127758898D01*
D11*
X71521615Y-119003428D02*
X71521615Y-117503428D01*
X71521615Y-117503428D02*
X72093044Y-117503428D01*
X72093044Y-117503428D02*
X72235901Y-117574857D01*
X72235901Y-117574857D02*
X72307330Y-117646285D01*
X72307330Y-117646285D02*
X72378758Y-117789142D01*
X72378758Y-117789142D02*
X72378758Y-118003428D01*
X72378758Y-118003428D02*
X72307330Y-118146285D01*
X72307330Y-118146285D02*
X72235901Y-118217714D01*
X72235901Y-118217714D02*
X72093044Y-118289142D01*
X72093044Y-118289142D02*
X71521615Y-118289142D01*
X72878758Y-117503428D02*
X73235901Y-119003428D01*
X73235901Y-119003428D02*
X73521615Y-117932000D01*
X73521615Y-117932000D02*
X73807330Y-119003428D01*
X73807330Y-119003428D02*
X74164473Y-117503428D01*
X75593044Y-119003428D02*
X75093044Y-118289142D01*
X74735901Y-119003428D02*
X74735901Y-117503428D01*
X74735901Y-117503428D02*
X75307330Y-117503428D01*
X75307330Y-117503428D02*
X75450187Y-117574857D01*
X75450187Y-117574857D02*
X75521616Y-117646285D01*
X75521616Y-117646285D02*
X75593044Y-117789142D01*
X75593044Y-117789142D02*
X75593044Y-118003428D01*
X75593044Y-118003428D02*
X75521616Y-118146285D01*
X75521616Y-118146285D02*
X75450187Y-118217714D01*
X75450187Y-118217714D02*
X75307330Y-118289142D01*
X75307330Y-118289142D02*
X74735901Y-118289142D01*
D10*
X83926816Y-44967219D02*
X84498244Y-44967219D01*
X84212530Y-45967219D02*
X84212530Y-44967219D01*
X84974435Y-45967219D02*
X84879197Y-45919600D01*
X84879197Y-45919600D02*
X84831578Y-45871980D01*
X84831578Y-45871980D02*
X84783959Y-45776742D01*
X84783959Y-45776742D02*
X84783959Y-45491028D01*
X84783959Y-45491028D02*
X84831578Y-45395790D01*
X84831578Y-45395790D02*
X84879197Y-45348171D01*
X84879197Y-45348171D02*
X84974435Y-45300552D01*
X84974435Y-45300552D02*
X85117292Y-45300552D01*
X85117292Y-45300552D02*
X85212530Y-45348171D01*
X85212530Y-45348171D02*
X85260149Y-45395790D01*
X85260149Y-45395790D02*
X85307768Y-45491028D01*
X85307768Y-45491028D02*
X85307768Y-45776742D01*
X85307768Y-45776742D02*
X85260149Y-45871980D01*
X85260149Y-45871980D02*
X85212530Y-45919600D01*
X85212530Y-45919600D02*
X85117292Y-45967219D01*
X85117292Y-45967219D02*
X84974435Y-45967219D01*
X85736340Y-45300552D02*
X85736340Y-46300552D01*
X85736340Y-45348171D02*
X85831578Y-45300552D01*
X85831578Y-45300552D02*
X86022054Y-45300552D01*
X86022054Y-45300552D02*
X86117292Y-45348171D01*
X86117292Y-45348171D02*
X86164911Y-45395790D01*
X86164911Y-45395790D02*
X86212530Y-45491028D01*
X86212530Y-45491028D02*
X86212530Y-45776742D01*
X86212530Y-45776742D02*
X86164911Y-45871980D01*
X86164911Y-45871980D02*
X86117292Y-45919600D01*
X86117292Y-45919600D02*
X86022054Y-45967219D01*
X86022054Y-45967219D02*
X85831578Y-45967219D01*
X85831578Y-45967219D02*
X85736340Y-45919600D01*
X88117292Y-44919600D02*
X87260150Y-46205314D01*
X89164912Y-45681504D02*
X89641102Y-45681504D01*
X89069674Y-45967219D02*
X89403007Y-44967219D01*
X89403007Y-44967219D02*
X89736340Y-45967219D01*
X90069674Y-45300552D02*
X90069674Y-45967219D01*
X90069674Y-45395790D02*
X90117293Y-45348171D01*
X90117293Y-45348171D02*
X90212531Y-45300552D01*
X90212531Y-45300552D02*
X90355388Y-45300552D01*
X90355388Y-45300552D02*
X90450626Y-45348171D01*
X90450626Y-45348171D02*
X90498245Y-45443409D01*
X90498245Y-45443409D02*
X90498245Y-45967219D01*
X90831579Y-45300552D02*
X91212531Y-45300552D01*
X90974436Y-44967219D02*
X90974436Y-45824361D01*
X90974436Y-45824361D02*
X91022055Y-45919600D01*
X91022055Y-45919600D02*
X91117293Y-45967219D01*
X91117293Y-45967219D02*
X91212531Y-45967219D01*
X91926817Y-45919600D02*
X91831579Y-45967219D01*
X91831579Y-45967219D02*
X91641103Y-45967219D01*
X91641103Y-45967219D02*
X91545865Y-45919600D01*
X91545865Y-45919600D02*
X91498246Y-45824361D01*
X91498246Y-45824361D02*
X91498246Y-45443409D01*
X91498246Y-45443409D02*
X91545865Y-45348171D01*
X91545865Y-45348171D02*
X91641103Y-45300552D01*
X91641103Y-45300552D02*
X91831579Y-45300552D01*
X91831579Y-45300552D02*
X91926817Y-45348171D01*
X91926817Y-45348171D02*
X91974436Y-45443409D01*
X91974436Y-45443409D02*
X91974436Y-45538647D01*
X91974436Y-45538647D02*
X91498246Y-45633885D01*
X92403008Y-45300552D02*
X92403008Y-45967219D01*
X92403008Y-45395790D02*
X92450627Y-45348171D01*
X92450627Y-45348171D02*
X92545865Y-45300552D01*
X92545865Y-45300552D02*
X92688722Y-45300552D01*
X92688722Y-45300552D02*
X92783960Y-45348171D01*
X92783960Y-45348171D02*
X92831579Y-45443409D01*
X92831579Y-45443409D02*
X92831579Y-45967219D01*
X93307770Y-45300552D02*
X93307770Y-45967219D01*
X93307770Y-45395790D02*
X93355389Y-45348171D01*
X93355389Y-45348171D02*
X93450627Y-45300552D01*
X93450627Y-45300552D02*
X93593484Y-45300552D01*
X93593484Y-45300552D02*
X93688722Y-45348171D01*
X93688722Y-45348171D02*
X93736341Y-45443409D01*
X93736341Y-45443409D02*
X93736341Y-45967219D01*
X94641103Y-45967219D02*
X94641103Y-45443409D01*
X94641103Y-45443409D02*
X94593484Y-45348171D01*
X94593484Y-45348171D02*
X94498246Y-45300552D01*
X94498246Y-45300552D02*
X94307770Y-45300552D01*
X94307770Y-45300552D02*
X94212532Y-45348171D01*
X94641103Y-45919600D02*
X94545865Y-45967219D01*
X94545865Y-45967219D02*
X94307770Y-45967219D01*
X94307770Y-45967219D02*
X94212532Y-45919600D01*
X94212532Y-45919600D02*
X94164913Y-45824361D01*
X94164913Y-45824361D02*
X94164913Y-45729123D01*
X94164913Y-45729123D02*
X94212532Y-45633885D01*
X94212532Y-45633885D02*
X94307770Y-45586266D01*
X94307770Y-45586266D02*
X94545865Y-45586266D01*
X94545865Y-45586266D02*
X94641103Y-45538647D01*
X95831580Y-45919600D02*
X95974437Y-45967219D01*
X95974437Y-45967219D02*
X96212532Y-45967219D01*
X96212532Y-45967219D02*
X96307770Y-45919600D01*
X96307770Y-45919600D02*
X96355389Y-45871980D01*
X96355389Y-45871980D02*
X96403008Y-45776742D01*
X96403008Y-45776742D02*
X96403008Y-45681504D01*
X96403008Y-45681504D02*
X96355389Y-45586266D01*
X96355389Y-45586266D02*
X96307770Y-45538647D01*
X96307770Y-45538647D02*
X96212532Y-45491028D01*
X96212532Y-45491028D02*
X96022056Y-45443409D01*
X96022056Y-45443409D02*
X95926818Y-45395790D01*
X95926818Y-45395790D02*
X95879199Y-45348171D01*
X95879199Y-45348171D02*
X95831580Y-45252933D01*
X95831580Y-45252933D02*
X95831580Y-45157695D01*
X95831580Y-45157695D02*
X95879199Y-45062457D01*
X95879199Y-45062457D02*
X95926818Y-45014838D01*
X95926818Y-45014838D02*
X96022056Y-44967219D01*
X96022056Y-44967219D02*
X96260151Y-44967219D01*
X96260151Y-44967219D02*
X96403008Y-45014838D01*
X96831580Y-45967219D02*
X96831580Y-45300552D01*
X96831580Y-44967219D02*
X96783961Y-45014838D01*
X96783961Y-45014838D02*
X96831580Y-45062457D01*
X96831580Y-45062457D02*
X96879199Y-45014838D01*
X96879199Y-45014838D02*
X96831580Y-44967219D01*
X96831580Y-44967219D02*
X96831580Y-45062457D01*
X97736341Y-45967219D02*
X97736341Y-44967219D01*
X97736341Y-45919600D02*
X97641103Y-45967219D01*
X97641103Y-45967219D02*
X97450627Y-45967219D01*
X97450627Y-45967219D02*
X97355389Y-45919600D01*
X97355389Y-45919600D02*
X97307770Y-45871980D01*
X97307770Y-45871980D02*
X97260151Y-45776742D01*
X97260151Y-45776742D02*
X97260151Y-45491028D01*
X97260151Y-45491028D02*
X97307770Y-45395790D01*
X97307770Y-45395790D02*
X97355389Y-45348171D01*
X97355389Y-45348171D02*
X97450627Y-45300552D01*
X97450627Y-45300552D02*
X97641103Y-45300552D01*
X97641103Y-45300552D02*
X97736341Y-45348171D01*
X98593484Y-45919600D02*
X98498246Y-45967219D01*
X98498246Y-45967219D02*
X98307770Y-45967219D01*
X98307770Y-45967219D02*
X98212532Y-45919600D01*
X98212532Y-45919600D02*
X98164913Y-45824361D01*
X98164913Y-45824361D02*
X98164913Y-45443409D01*
X98164913Y-45443409D02*
X98212532Y-45348171D01*
X98212532Y-45348171D02*
X98307770Y-45300552D01*
X98307770Y-45300552D02*
X98498246Y-45300552D01*
X98498246Y-45300552D02*
X98593484Y-45348171D01*
X98593484Y-45348171D02*
X98641103Y-45443409D01*
X98641103Y-45443409D02*
X98641103Y-45538647D01*
X98641103Y-45538647D02*
X98164913Y-45633885D01*
X106874435Y-87367219D02*
X107541101Y-88367219D01*
X107541101Y-87367219D02*
X106874435Y-88367219D01*
X75174435Y-87467219D02*
X75841101Y-88467219D01*
X75841101Y-87467219D02*
X75174435Y-88467219D01*
X72550625Y-135086623D02*
X73264911Y-135086623D01*
X72907768Y-136336623D02*
X72907768Y-135086623D01*
X73562530Y-136336623D02*
X74217292Y-135503290D01*
X73562530Y-135503290D02*
X74217292Y-136336623D01*
X109940969Y-125067351D02*
X109845731Y-125019732D01*
X109845731Y-125019732D02*
X109702874Y-125019732D01*
X109702874Y-125019732D02*
X109560017Y-125067351D01*
X109560017Y-125067351D02*
X109464779Y-125162589D01*
X109464779Y-125162589D02*
X109417160Y-125257827D01*
X109417160Y-125257827D02*
X109369541Y-125448303D01*
X109369541Y-125448303D02*
X109369541Y-125591160D01*
X109369541Y-125591160D02*
X109417160Y-125781636D01*
X109417160Y-125781636D02*
X109464779Y-125876874D01*
X109464779Y-125876874D02*
X109560017Y-125972113D01*
X109560017Y-125972113D02*
X109702874Y-126019732D01*
X109702874Y-126019732D02*
X109798112Y-126019732D01*
X109798112Y-126019732D02*
X109940969Y-125972113D01*
X109940969Y-125972113D02*
X109988588Y-125924493D01*
X109988588Y-125924493D02*
X109988588Y-125591160D01*
X109988588Y-125591160D02*
X109798112Y-125591160D01*
X110417160Y-126019732D02*
X110417160Y-125019732D01*
X110417160Y-125019732D02*
X110988588Y-126019732D01*
X110988588Y-126019732D02*
X110988588Y-125019732D01*
X111464779Y-126019732D02*
X111464779Y-125019732D01*
X111464779Y-125019732D02*
X111702874Y-125019732D01*
X111702874Y-125019732D02*
X111845731Y-125067351D01*
X111845731Y-125067351D02*
X111940969Y-125162589D01*
X111940969Y-125162589D02*
X111988588Y-125257827D01*
X111988588Y-125257827D02*
X112036207Y-125448303D01*
X112036207Y-125448303D02*
X112036207Y-125591160D01*
X112036207Y-125591160D02*
X111988588Y-125781636D01*
X111988588Y-125781636D02*
X111940969Y-125876874D01*
X111940969Y-125876874D02*
X111845731Y-125972113D01*
X111845731Y-125972113D02*
X111702874Y-126019732D01*
X111702874Y-126019732D02*
X111464779Y-126019732D01*
X104493482Y-133514838D02*
X104398244Y-133467219D01*
X104398244Y-133467219D02*
X104255387Y-133467219D01*
X104255387Y-133467219D02*
X104112530Y-133514838D01*
X104112530Y-133514838D02*
X104017292Y-133610076D01*
X104017292Y-133610076D02*
X103969673Y-133705314D01*
X103969673Y-133705314D02*
X103922054Y-133895790D01*
X103922054Y-133895790D02*
X103922054Y-134038647D01*
X103922054Y-134038647D02*
X103969673Y-134229123D01*
X103969673Y-134229123D02*
X104017292Y-134324361D01*
X104017292Y-134324361D02*
X104112530Y-134419600D01*
X104112530Y-134419600D02*
X104255387Y-134467219D01*
X104255387Y-134467219D02*
X104350625Y-134467219D01*
X104350625Y-134467219D02*
X104493482Y-134419600D01*
X104493482Y-134419600D02*
X104541101Y-134371980D01*
X104541101Y-134371980D02*
X104541101Y-134038647D01*
X104541101Y-134038647D02*
X104350625Y-134038647D01*
X104969673Y-134467219D02*
X104969673Y-133467219D01*
X104969673Y-133467219D02*
X105541101Y-134467219D01*
X105541101Y-134467219D02*
X105541101Y-133467219D01*
X106017292Y-134467219D02*
X106017292Y-133467219D01*
X106017292Y-133467219D02*
X106255387Y-133467219D01*
X106255387Y-133467219D02*
X106398244Y-133514838D01*
X106398244Y-133514838D02*
X106493482Y-133610076D01*
X106493482Y-133610076D02*
X106541101Y-133705314D01*
X106541101Y-133705314D02*
X106588720Y-133895790D01*
X106588720Y-133895790D02*
X106588720Y-134038647D01*
X106588720Y-134038647D02*
X106541101Y-134229123D01*
X106541101Y-134229123D02*
X106493482Y-134324361D01*
X106493482Y-134324361D02*
X106398244Y-134419600D01*
X106398244Y-134419600D02*
X106255387Y-134467219D01*
X106255387Y-134467219D02*
X106017292Y-134467219D01*
X77193482Y-137214838D02*
X77098244Y-137167219D01*
X77098244Y-137167219D02*
X76955387Y-137167219D01*
X76955387Y-137167219D02*
X76812530Y-137214838D01*
X76812530Y-137214838D02*
X76717292Y-137310076D01*
X76717292Y-137310076D02*
X76669673Y-137405314D01*
X76669673Y-137405314D02*
X76622054Y-137595790D01*
X76622054Y-137595790D02*
X76622054Y-137738647D01*
X76622054Y-137738647D02*
X76669673Y-137929123D01*
X76669673Y-137929123D02*
X76717292Y-138024361D01*
X76717292Y-138024361D02*
X76812530Y-138119600D01*
X76812530Y-138119600D02*
X76955387Y-138167219D01*
X76955387Y-138167219D02*
X77050625Y-138167219D01*
X77050625Y-138167219D02*
X77193482Y-138119600D01*
X77193482Y-138119600D02*
X77241101Y-138071980D01*
X77241101Y-138071980D02*
X77241101Y-137738647D01*
X77241101Y-137738647D02*
X77050625Y-137738647D01*
X77669673Y-138167219D02*
X77669673Y-137167219D01*
X77669673Y-137167219D02*
X78241101Y-138167219D01*
X78241101Y-138167219D02*
X78241101Y-137167219D01*
X78717292Y-138167219D02*
X78717292Y-137167219D01*
X78717292Y-137167219D02*
X78955387Y-137167219D01*
X78955387Y-137167219D02*
X79098244Y-137214838D01*
X79098244Y-137214838D02*
X79193482Y-137310076D01*
X79193482Y-137310076D02*
X79241101Y-137405314D01*
X79241101Y-137405314D02*
X79288720Y-137595790D01*
X79288720Y-137595790D02*
X79288720Y-137738647D01*
X79288720Y-137738647D02*
X79241101Y-137929123D01*
X79241101Y-137929123D02*
X79193482Y-138024361D01*
X79193482Y-138024361D02*
X79098244Y-138119600D01*
X79098244Y-138119600D02*
X78955387Y-138167219D01*
X78955387Y-138167219D02*
X78717292Y-138167219D01*
X77293482Y-124114838D02*
X77198244Y-124067219D01*
X77198244Y-124067219D02*
X77055387Y-124067219D01*
X77055387Y-124067219D02*
X76912530Y-124114838D01*
X76912530Y-124114838D02*
X76817292Y-124210076D01*
X76817292Y-124210076D02*
X76769673Y-124305314D01*
X76769673Y-124305314D02*
X76722054Y-124495790D01*
X76722054Y-124495790D02*
X76722054Y-124638647D01*
X76722054Y-124638647D02*
X76769673Y-124829123D01*
X76769673Y-124829123D02*
X76817292Y-124924361D01*
X76817292Y-124924361D02*
X76912530Y-125019600D01*
X76912530Y-125019600D02*
X77055387Y-125067219D01*
X77055387Y-125067219D02*
X77150625Y-125067219D01*
X77150625Y-125067219D02*
X77293482Y-125019600D01*
X77293482Y-125019600D02*
X77341101Y-124971980D01*
X77341101Y-124971980D02*
X77341101Y-124638647D01*
X77341101Y-124638647D02*
X77150625Y-124638647D01*
X77769673Y-125067219D02*
X77769673Y-124067219D01*
X77769673Y-124067219D02*
X78341101Y-125067219D01*
X78341101Y-125067219D02*
X78341101Y-124067219D01*
X78817292Y-125067219D02*
X78817292Y-124067219D01*
X78817292Y-124067219D02*
X79055387Y-124067219D01*
X79055387Y-124067219D02*
X79198244Y-124114838D01*
X79198244Y-124114838D02*
X79293482Y-124210076D01*
X79293482Y-124210076D02*
X79341101Y-124305314D01*
X79341101Y-124305314D02*
X79388720Y-124495790D01*
X79388720Y-124495790D02*
X79388720Y-124638647D01*
X79388720Y-124638647D02*
X79341101Y-124829123D01*
X79341101Y-124829123D02*
X79293482Y-124924361D01*
X79293482Y-124924361D02*
X79198244Y-125019600D01*
X79198244Y-125019600D02*
X79055387Y-125067219D01*
X79055387Y-125067219D02*
X78817292Y-125067219D01*
X76345863Y-114867219D02*
X75869673Y-114867219D01*
X75869673Y-114867219D02*
X75822054Y-115343409D01*
X75822054Y-115343409D02*
X75869673Y-115295790D01*
X75869673Y-115295790D02*
X75964911Y-115248171D01*
X75964911Y-115248171D02*
X76203006Y-115248171D01*
X76203006Y-115248171D02*
X76298244Y-115295790D01*
X76298244Y-115295790D02*
X76345863Y-115343409D01*
X76345863Y-115343409D02*
X76393482Y-115438647D01*
X76393482Y-115438647D02*
X76393482Y-115676742D01*
X76393482Y-115676742D02*
X76345863Y-115771980D01*
X76345863Y-115771980D02*
X76298244Y-115819600D01*
X76298244Y-115819600D02*
X76203006Y-115867219D01*
X76203006Y-115867219D02*
X75964911Y-115867219D01*
X75964911Y-115867219D02*
X75869673Y-115819600D01*
X75869673Y-115819600D02*
X75822054Y-115771980D01*
X76679197Y-114867219D02*
X77012530Y-115867219D01*
X77012530Y-115867219D02*
X77345863Y-114867219D01*
X75674435Y-112167219D02*
X76293482Y-112167219D01*
X76293482Y-112167219D02*
X75960149Y-112548171D01*
X75960149Y-112548171D02*
X76103006Y-112548171D01*
X76103006Y-112548171D02*
X76198244Y-112595790D01*
X76198244Y-112595790D02*
X76245863Y-112643409D01*
X76245863Y-112643409D02*
X76293482Y-112738647D01*
X76293482Y-112738647D02*
X76293482Y-112976742D01*
X76293482Y-112976742D02*
X76245863Y-113071980D01*
X76245863Y-113071980D02*
X76198244Y-113119600D01*
X76198244Y-113119600D02*
X76103006Y-113167219D01*
X76103006Y-113167219D02*
X75817292Y-113167219D01*
X75817292Y-113167219D02*
X75722054Y-113119600D01*
X75722054Y-113119600D02*
X75674435Y-113071980D01*
X76579197Y-112167219D02*
X76912530Y-113167219D01*
X76912530Y-113167219D02*
X77245863Y-112167219D01*
X77483959Y-112167219D02*
X78103006Y-112167219D01*
X78103006Y-112167219D02*
X77769673Y-112548171D01*
X77769673Y-112548171D02*
X77912530Y-112548171D01*
X77912530Y-112548171D02*
X78007768Y-112595790D01*
X78007768Y-112595790D02*
X78055387Y-112643409D01*
X78055387Y-112643409D02*
X78103006Y-112738647D01*
X78103006Y-112738647D02*
X78103006Y-112976742D01*
X78103006Y-112976742D02*
X78055387Y-113071980D01*
X78055387Y-113071980D02*
X78007768Y-113119600D01*
X78007768Y-113119600D02*
X77912530Y-113167219D01*
X77912530Y-113167219D02*
X77626816Y-113167219D01*
X77626816Y-113167219D02*
X77531578Y-113119600D01*
X77531578Y-113119600D02*
X77483959Y-113071980D01*
X76193482Y-109514838D02*
X76098244Y-109467219D01*
X76098244Y-109467219D02*
X75955387Y-109467219D01*
X75955387Y-109467219D02*
X75812530Y-109514838D01*
X75812530Y-109514838D02*
X75717292Y-109610076D01*
X75717292Y-109610076D02*
X75669673Y-109705314D01*
X75669673Y-109705314D02*
X75622054Y-109895790D01*
X75622054Y-109895790D02*
X75622054Y-110038647D01*
X75622054Y-110038647D02*
X75669673Y-110229123D01*
X75669673Y-110229123D02*
X75717292Y-110324361D01*
X75717292Y-110324361D02*
X75812530Y-110419600D01*
X75812530Y-110419600D02*
X75955387Y-110467219D01*
X75955387Y-110467219D02*
X76050625Y-110467219D01*
X76050625Y-110467219D02*
X76193482Y-110419600D01*
X76193482Y-110419600D02*
X76241101Y-110371980D01*
X76241101Y-110371980D02*
X76241101Y-110038647D01*
X76241101Y-110038647D02*
X76050625Y-110038647D01*
X76669673Y-110467219D02*
X76669673Y-109467219D01*
X76669673Y-109467219D02*
X77241101Y-110467219D01*
X77241101Y-110467219D02*
X77241101Y-109467219D01*
X77717292Y-110467219D02*
X77717292Y-109467219D01*
X77717292Y-109467219D02*
X77955387Y-109467219D01*
X77955387Y-109467219D02*
X78098244Y-109514838D01*
X78098244Y-109514838D02*
X78193482Y-109610076D01*
X78193482Y-109610076D02*
X78241101Y-109705314D01*
X78241101Y-109705314D02*
X78288720Y-109895790D01*
X78288720Y-109895790D02*
X78288720Y-110038647D01*
X78288720Y-110038647D02*
X78241101Y-110229123D01*
X78241101Y-110229123D02*
X78193482Y-110324361D01*
X78193482Y-110324361D02*
X78098244Y-110419600D01*
X78098244Y-110419600D02*
X77955387Y-110467219D01*
X77955387Y-110467219D02*
X77717292Y-110467219D01*
X73041101Y-105767219D02*
X72707768Y-105291028D01*
X72469673Y-105767219D02*
X72469673Y-104767219D01*
X72469673Y-104767219D02*
X72850625Y-104767219D01*
X72850625Y-104767219D02*
X72945863Y-104814838D01*
X72945863Y-104814838D02*
X72993482Y-104862457D01*
X72993482Y-104862457D02*
X73041101Y-104957695D01*
X73041101Y-104957695D02*
X73041101Y-105100552D01*
X73041101Y-105100552D02*
X72993482Y-105195790D01*
X72993482Y-105195790D02*
X72945863Y-105243409D01*
X72945863Y-105243409D02*
X72850625Y-105291028D01*
X72850625Y-105291028D02*
X72469673Y-105291028D01*
X73374435Y-105767219D02*
X73898244Y-105100552D01*
X73374435Y-105100552D02*
X73898244Y-105767219D01*
X73343409Y-95296993D02*
X73391028Y-95154136D01*
X73391028Y-95154136D02*
X73438647Y-95106517D01*
X73438647Y-95106517D02*
X73533885Y-95058898D01*
X73533885Y-95058898D02*
X73676742Y-95058898D01*
X73676742Y-95058898D02*
X73771980Y-95106517D01*
X73771980Y-95106517D02*
X73819600Y-95154136D01*
X73819600Y-95154136D02*
X73867219Y-95249374D01*
X73867219Y-95249374D02*
X73867219Y-95630326D01*
X73867219Y-95630326D02*
X72867219Y-95630326D01*
X72867219Y-95630326D02*
X72867219Y-95296993D01*
X72867219Y-95296993D02*
X72914838Y-95201755D01*
X72914838Y-95201755D02*
X72962457Y-95154136D01*
X72962457Y-95154136D02*
X73057695Y-95106517D01*
X73057695Y-95106517D02*
X73152933Y-95106517D01*
X73152933Y-95106517D02*
X73248171Y-95154136D01*
X73248171Y-95154136D02*
X73295790Y-95201755D01*
X73295790Y-95201755D02*
X73343409Y-95296993D01*
X73343409Y-95296993D02*
X73343409Y-95630326D01*
X73200552Y-94725564D02*
X73867219Y-94487469D01*
X73200552Y-94249374D02*
X73867219Y-94487469D01*
X73867219Y-94487469D02*
X74105314Y-94582707D01*
X74105314Y-94582707D02*
X74152933Y-94630326D01*
X74152933Y-94630326D02*
X74200552Y-94725564D01*
X73200552Y-93868421D02*
X74200552Y-93868421D01*
X73248171Y-93868421D02*
X73200552Y-93773183D01*
X73200552Y-93773183D02*
X73200552Y-93582707D01*
X73200552Y-93582707D02*
X73248171Y-93487469D01*
X73248171Y-93487469D02*
X73295790Y-93439850D01*
X73295790Y-93439850D02*
X73391028Y-93392231D01*
X73391028Y-93392231D02*
X73676742Y-93392231D01*
X73676742Y-93392231D02*
X73771980Y-93439850D01*
X73771980Y-93439850D02*
X73819600Y-93487469D01*
X73819600Y-93487469D02*
X73867219Y-93582707D01*
X73867219Y-93582707D02*
X73867219Y-93773183D01*
X73867219Y-93773183D02*
X73819600Y-93868421D01*
X73867219Y-92535088D02*
X73343409Y-92535088D01*
X73343409Y-92535088D02*
X73248171Y-92582707D01*
X73248171Y-92582707D02*
X73200552Y-92677945D01*
X73200552Y-92677945D02*
X73200552Y-92868421D01*
X73200552Y-92868421D02*
X73248171Y-92963659D01*
X73819600Y-92535088D02*
X73867219Y-92630326D01*
X73867219Y-92630326D02*
X73867219Y-92868421D01*
X73867219Y-92868421D02*
X73819600Y-92963659D01*
X73819600Y-92963659D02*
X73724361Y-93011278D01*
X73724361Y-93011278D02*
X73629123Y-93011278D01*
X73629123Y-93011278D02*
X73533885Y-92963659D01*
X73533885Y-92963659D02*
X73486266Y-92868421D01*
X73486266Y-92868421D02*
X73486266Y-92630326D01*
X73486266Y-92630326D02*
X73438647Y-92535088D01*
X73819600Y-92106516D02*
X73867219Y-92011278D01*
X73867219Y-92011278D02*
X73867219Y-91820802D01*
X73867219Y-91820802D02*
X73819600Y-91725564D01*
X73819600Y-91725564D02*
X73724361Y-91677945D01*
X73724361Y-91677945D02*
X73676742Y-91677945D01*
X73676742Y-91677945D02*
X73581504Y-91725564D01*
X73581504Y-91725564D02*
X73533885Y-91820802D01*
X73533885Y-91820802D02*
X73533885Y-91963659D01*
X73533885Y-91963659D02*
X73486266Y-92058897D01*
X73486266Y-92058897D02*
X73391028Y-92106516D01*
X73391028Y-92106516D02*
X73343409Y-92106516D01*
X73343409Y-92106516D02*
X73248171Y-92058897D01*
X73248171Y-92058897D02*
X73200552Y-91963659D01*
X73200552Y-91963659D02*
X73200552Y-91820802D01*
X73200552Y-91820802D02*
X73248171Y-91725564D01*
X73819600Y-91296992D02*
X73867219Y-91201754D01*
X73867219Y-91201754D02*
X73867219Y-91011278D01*
X73867219Y-91011278D02*
X73819600Y-90916040D01*
X73819600Y-90916040D02*
X73724361Y-90868421D01*
X73724361Y-90868421D02*
X73676742Y-90868421D01*
X73676742Y-90868421D02*
X73581504Y-90916040D01*
X73581504Y-90916040D02*
X73533885Y-91011278D01*
X73533885Y-91011278D02*
X73533885Y-91154135D01*
X73533885Y-91154135D02*
X73486266Y-91249373D01*
X73486266Y-91249373D02*
X73391028Y-91296992D01*
X73391028Y-91296992D02*
X73343409Y-91296992D01*
X73343409Y-91296992D02*
X73248171Y-91249373D01*
X73248171Y-91249373D02*
X73200552Y-91154135D01*
X73200552Y-91154135D02*
X73200552Y-91011278D01*
X73200552Y-91011278D02*
X73248171Y-90916040D01*
X89019673Y-69997219D02*
X89019673Y-68997219D01*
X89019673Y-68997219D02*
X89400625Y-68997219D01*
X89400625Y-68997219D02*
X89495863Y-69044838D01*
X89495863Y-69044838D02*
X89543482Y-69092457D01*
X89543482Y-69092457D02*
X89591101Y-69187695D01*
X89591101Y-69187695D02*
X89591101Y-69330552D01*
X89591101Y-69330552D02*
X89543482Y-69425790D01*
X89543482Y-69425790D02*
X89495863Y-69473409D01*
X89495863Y-69473409D02*
X89400625Y-69521028D01*
X89400625Y-69521028D02*
X89019673Y-69521028D01*
X90019673Y-69997219D02*
X90019673Y-68997219D01*
X90019673Y-68997219D02*
X90257768Y-68997219D01*
X90257768Y-68997219D02*
X90400625Y-69044838D01*
X90400625Y-69044838D02*
X90495863Y-69140076D01*
X90495863Y-69140076D02*
X90543482Y-69235314D01*
X90543482Y-69235314D02*
X90591101Y-69425790D01*
X90591101Y-69425790D02*
X90591101Y-69568647D01*
X90591101Y-69568647D02*
X90543482Y-69759123D01*
X90543482Y-69759123D02*
X90495863Y-69854361D01*
X90495863Y-69854361D02*
X90400625Y-69949600D01*
X90400625Y-69949600D02*
X90257768Y-69997219D01*
X90257768Y-69997219D02*
X90019673Y-69997219D01*
X91591101Y-69997219D02*
X91257768Y-69521028D01*
X91019673Y-69997219D02*
X91019673Y-68997219D01*
X91019673Y-68997219D02*
X91400625Y-68997219D01*
X91400625Y-68997219D02*
X91495863Y-69044838D01*
X91495863Y-69044838D02*
X91543482Y-69092457D01*
X91543482Y-69092457D02*
X91591101Y-69187695D01*
X91591101Y-69187695D02*
X91591101Y-69330552D01*
X91591101Y-69330552D02*
X91543482Y-69425790D01*
X91543482Y-69425790D02*
X91495863Y-69473409D01*
X91495863Y-69473409D02*
X91400625Y-69521028D01*
X91400625Y-69521028D02*
X91019673Y-69521028D01*
X85443482Y-64444838D02*
X85348244Y-64397219D01*
X85348244Y-64397219D02*
X85205387Y-64397219D01*
X85205387Y-64397219D02*
X85062530Y-64444838D01*
X85062530Y-64444838D02*
X84967292Y-64540076D01*
X84967292Y-64540076D02*
X84919673Y-64635314D01*
X84919673Y-64635314D02*
X84872054Y-64825790D01*
X84872054Y-64825790D02*
X84872054Y-64968647D01*
X84872054Y-64968647D02*
X84919673Y-65159123D01*
X84919673Y-65159123D02*
X84967292Y-65254361D01*
X84967292Y-65254361D02*
X85062530Y-65349600D01*
X85062530Y-65349600D02*
X85205387Y-65397219D01*
X85205387Y-65397219D02*
X85300625Y-65397219D01*
X85300625Y-65397219D02*
X85443482Y-65349600D01*
X85443482Y-65349600D02*
X85491101Y-65301980D01*
X85491101Y-65301980D02*
X85491101Y-64968647D01*
X85491101Y-64968647D02*
X85300625Y-64968647D01*
X85919673Y-65397219D02*
X85919673Y-64397219D01*
X85919673Y-64397219D02*
X86300625Y-64397219D01*
X86300625Y-64397219D02*
X86395863Y-64444838D01*
X86395863Y-64444838D02*
X86443482Y-64492457D01*
X86443482Y-64492457D02*
X86491101Y-64587695D01*
X86491101Y-64587695D02*
X86491101Y-64730552D01*
X86491101Y-64730552D02*
X86443482Y-64825790D01*
X86443482Y-64825790D02*
X86395863Y-64873409D01*
X86395863Y-64873409D02*
X86300625Y-64921028D01*
X86300625Y-64921028D02*
X85919673Y-64921028D01*
X86919673Y-65397219D02*
X86919673Y-64397219D01*
X87586339Y-64397219D02*
X87776815Y-64397219D01*
X87776815Y-64397219D02*
X87872053Y-64444838D01*
X87872053Y-64444838D02*
X87967291Y-64540076D01*
X87967291Y-64540076D02*
X88014910Y-64730552D01*
X88014910Y-64730552D02*
X88014910Y-65063885D01*
X88014910Y-65063885D02*
X87967291Y-65254361D01*
X87967291Y-65254361D02*
X87872053Y-65349600D01*
X87872053Y-65349600D02*
X87776815Y-65397219D01*
X87776815Y-65397219D02*
X87586339Y-65397219D01*
X87586339Y-65397219D02*
X87491101Y-65349600D01*
X87491101Y-65349600D02*
X87395863Y-65254361D01*
X87395863Y-65254361D02*
X87348244Y-65063885D01*
X87348244Y-65063885D02*
X87348244Y-64730552D01*
X87348244Y-64730552D02*
X87395863Y-64540076D01*
X87395863Y-64540076D02*
X87491101Y-64444838D01*
X87491101Y-64444838D02*
X87586339Y-64397219D01*
X88348244Y-64397219D02*
X88967291Y-64397219D01*
X88967291Y-64397219D02*
X88633958Y-64778171D01*
X88633958Y-64778171D02*
X88776815Y-64778171D01*
X88776815Y-64778171D02*
X88872053Y-64825790D01*
X88872053Y-64825790D02*
X88919672Y-64873409D01*
X88919672Y-64873409D02*
X88967291Y-64968647D01*
X88967291Y-64968647D02*
X88967291Y-65206742D01*
X88967291Y-65206742D02*
X88919672Y-65301980D01*
X88919672Y-65301980D02*
X88872053Y-65349600D01*
X88872053Y-65349600D02*
X88776815Y-65397219D01*
X88776815Y-65397219D02*
X88491101Y-65397219D01*
X88491101Y-65397219D02*
X88395863Y-65349600D01*
X88395863Y-65349600D02*
X88348244Y-65301980D01*
X89300625Y-64397219D02*
X89919672Y-64397219D01*
X89919672Y-64397219D02*
X89586339Y-64778171D01*
X89586339Y-64778171D02*
X89729196Y-64778171D01*
X89729196Y-64778171D02*
X89824434Y-64825790D01*
X89824434Y-64825790D02*
X89872053Y-64873409D01*
X89872053Y-64873409D02*
X89919672Y-64968647D01*
X89919672Y-64968647D02*
X89919672Y-65206742D01*
X89919672Y-65206742D02*
X89872053Y-65301980D01*
X89872053Y-65301980D02*
X89824434Y-65349600D01*
X89824434Y-65349600D02*
X89729196Y-65397219D01*
X89729196Y-65397219D02*
X89443482Y-65397219D01*
X89443482Y-65397219D02*
X89348244Y-65349600D01*
X89348244Y-65349600D02*
X89300625Y-65301980D01*
X85693482Y-61814838D02*
X85598244Y-61767219D01*
X85598244Y-61767219D02*
X85455387Y-61767219D01*
X85455387Y-61767219D02*
X85312530Y-61814838D01*
X85312530Y-61814838D02*
X85217292Y-61910076D01*
X85217292Y-61910076D02*
X85169673Y-62005314D01*
X85169673Y-62005314D02*
X85122054Y-62195790D01*
X85122054Y-62195790D02*
X85122054Y-62338647D01*
X85122054Y-62338647D02*
X85169673Y-62529123D01*
X85169673Y-62529123D02*
X85217292Y-62624361D01*
X85217292Y-62624361D02*
X85312530Y-62719600D01*
X85312530Y-62719600D02*
X85455387Y-62767219D01*
X85455387Y-62767219D02*
X85550625Y-62767219D01*
X85550625Y-62767219D02*
X85693482Y-62719600D01*
X85693482Y-62719600D02*
X85741101Y-62671980D01*
X85741101Y-62671980D02*
X85741101Y-62338647D01*
X85741101Y-62338647D02*
X85550625Y-62338647D01*
X86169673Y-62767219D02*
X86169673Y-61767219D01*
X86169673Y-61767219D02*
X86550625Y-61767219D01*
X86550625Y-61767219D02*
X86645863Y-61814838D01*
X86645863Y-61814838D02*
X86693482Y-61862457D01*
X86693482Y-61862457D02*
X86741101Y-61957695D01*
X86741101Y-61957695D02*
X86741101Y-62100552D01*
X86741101Y-62100552D02*
X86693482Y-62195790D01*
X86693482Y-62195790D02*
X86645863Y-62243409D01*
X86645863Y-62243409D02*
X86550625Y-62291028D01*
X86550625Y-62291028D02*
X86169673Y-62291028D01*
X87169673Y-62767219D02*
X87169673Y-61767219D01*
X87836339Y-61767219D02*
X88026815Y-61767219D01*
X88026815Y-61767219D02*
X88122053Y-61814838D01*
X88122053Y-61814838D02*
X88217291Y-61910076D01*
X88217291Y-61910076D02*
X88264910Y-62100552D01*
X88264910Y-62100552D02*
X88264910Y-62433885D01*
X88264910Y-62433885D02*
X88217291Y-62624361D01*
X88217291Y-62624361D02*
X88122053Y-62719600D01*
X88122053Y-62719600D02*
X88026815Y-62767219D01*
X88026815Y-62767219D02*
X87836339Y-62767219D01*
X87836339Y-62767219D02*
X87741101Y-62719600D01*
X87741101Y-62719600D02*
X87645863Y-62624361D01*
X87645863Y-62624361D02*
X87598244Y-62433885D01*
X87598244Y-62433885D02*
X87598244Y-62100552D01*
X87598244Y-62100552D02*
X87645863Y-61910076D01*
X87645863Y-61910076D02*
X87741101Y-61814838D01*
X87741101Y-61814838D02*
X87836339Y-61767219D01*
X88598244Y-61767219D02*
X89217291Y-61767219D01*
X89217291Y-61767219D02*
X88883958Y-62148171D01*
X88883958Y-62148171D02*
X89026815Y-62148171D01*
X89026815Y-62148171D02*
X89122053Y-62195790D01*
X89122053Y-62195790D02*
X89169672Y-62243409D01*
X89169672Y-62243409D02*
X89217291Y-62338647D01*
X89217291Y-62338647D02*
X89217291Y-62576742D01*
X89217291Y-62576742D02*
X89169672Y-62671980D01*
X89169672Y-62671980D02*
X89122053Y-62719600D01*
X89122053Y-62719600D02*
X89026815Y-62767219D01*
X89026815Y-62767219D02*
X88741101Y-62767219D01*
X88741101Y-62767219D02*
X88645863Y-62719600D01*
X88645863Y-62719600D02*
X88598244Y-62671980D01*
X89598244Y-61862457D02*
X89645863Y-61814838D01*
X89645863Y-61814838D02*
X89741101Y-61767219D01*
X89741101Y-61767219D02*
X89979196Y-61767219D01*
X89979196Y-61767219D02*
X90074434Y-61814838D01*
X90074434Y-61814838D02*
X90122053Y-61862457D01*
X90122053Y-61862457D02*
X90169672Y-61957695D01*
X90169672Y-61957695D02*
X90169672Y-62052933D01*
X90169672Y-62052933D02*
X90122053Y-62195790D01*
X90122053Y-62195790D02*
X89550625Y-62767219D01*
X89550625Y-62767219D02*
X90169672Y-62767219D01*
X75869673Y-103186266D02*
X76631578Y-103186266D01*
X75869673Y-100086266D02*
X76631578Y-100086266D01*
X76250625Y-100467219D02*
X76250625Y-99705314D01*
X105421652Y-104362569D02*
X105421652Y-103362569D01*
X105421652Y-103362569D02*
X105802604Y-103362569D01*
X105802604Y-103362569D02*
X105897842Y-103410188D01*
X105897842Y-103410188D02*
X105945461Y-103457807D01*
X105945461Y-103457807D02*
X105993080Y-103553045D01*
X105993080Y-103553045D02*
X105993080Y-103695902D01*
X105993080Y-103695902D02*
X105945461Y-103791140D01*
X105945461Y-103791140D02*
X105897842Y-103838759D01*
X105897842Y-103838759D02*
X105802604Y-103886378D01*
X105802604Y-103886378D02*
X105421652Y-103886378D01*
X106421652Y-104362569D02*
X106421652Y-103362569D01*
X106421652Y-103362569D02*
X106659747Y-103362569D01*
X106659747Y-103362569D02*
X106802604Y-103410188D01*
X106802604Y-103410188D02*
X106897842Y-103505426D01*
X106897842Y-103505426D02*
X106945461Y-103600664D01*
X106945461Y-103600664D02*
X106993080Y-103791140D01*
X106993080Y-103791140D02*
X106993080Y-103933997D01*
X106993080Y-103933997D02*
X106945461Y-104124473D01*
X106945461Y-104124473D02*
X106897842Y-104219711D01*
X106897842Y-104219711D02*
X106802604Y-104314950D01*
X106802604Y-104314950D02*
X106659747Y-104362569D01*
X106659747Y-104362569D02*
X106421652Y-104362569D01*
X107993080Y-104362569D02*
X107659747Y-103886378D01*
X107421652Y-104362569D02*
X107421652Y-103362569D01*
X107421652Y-103362569D02*
X107802604Y-103362569D01*
X107802604Y-103362569D02*
X107897842Y-103410188D01*
X107897842Y-103410188D02*
X107945461Y-103457807D01*
X107945461Y-103457807D02*
X107993080Y-103553045D01*
X107993080Y-103553045D02*
X107993080Y-103695902D01*
X107993080Y-103695902D02*
X107945461Y-103791140D01*
X107945461Y-103791140D02*
X107897842Y-103838759D01*
X107897842Y-103838759D02*
X107802604Y-103886378D01*
X107802604Y-103886378D02*
X107421652Y-103886378D01*
X109869673Y-100946266D02*
X110631578Y-100946266D01*
X110530326Y-93073733D02*
X109768422Y-93073733D01*
X110149374Y-92692780D02*
X110149374Y-93454685D01*
X113132780Y-94076816D02*
X112132780Y-94410149D01*
X112132780Y-94410149D02*
X113132780Y-94743482D01*
X112132780Y-95076816D02*
X113132780Y-95076816D01*
X112656590Y-95886339D02*
X112608971Y-96029196D01*
X112608971Y-96029196D02*
X112561352Y-96076815D01*
X112561352Y-96076815D02*
X112466114Y-96124434D01*
X112466114Y-96124434D02*
X112323257Y-96124434D01*
X112323257Y-96124434D02*
X112228019Y-96076815D01*
X112228019Y-96076815D02*
X112180400Y-96029196D01*
X112180400Y-96029196D02*
X112132780Y-95933958D01*
X112132780Y-95933958D02*
X112132780Y-95553006D01*
X112132780Y-95553006D02*
X113132780Y-95553006D01*
X113132780Y-95553006D02*
X113132780Y-95886339D01*
X113132780Y-95886339D02*
X113085161Y-95981577D01*
X113085161Y-95981577D02*
X113037542Y-96029196D01*
X113037542Y-96029196D02*
X112942304Y-96076815D01*
X112942304Y-96076815D02*
X112847066Y-96076815D01*
X112847066Y-96076815D02*
X112751828Y-96029196D01*
X112751828Y-96029196D02*
X112704209Y-95981577D01*
X112704209Y-95981577D02*
X112656590Y-95886339D01*
X112656590Y-95886339D02*
X112656590Y-95553006D01*
X112132780Y-97124434D02*
X112608971Y-96791101D01*
X112132780Y-96553006D02*
X113132780Y-96553006D01*
X113132780Y-96553006D02*
X113132780Y-96933958D01*
X113132780Y-96933958D02*
X113085161Y-97029196D01*
X113085161Y-97029196D02*
X113037542Y-97076815D01*
X113037542Y-97076815D02*
X112942304Y-97124434D01*
X112942304Y-97124434D02*
X112799447Y-97124434D01*
X112799447Y-97124434D02*
X112704209Y-97076815D01*
X112704209Y-97076815D02*
X112656590Y-97029196D01*
X112656590Y-97029196D02*
X112608971Y-96933958D01*
X112608971Y-96933958D02*
X112608971Y-96553006D01*
D12*
X109866666Y-103684819D02*
X109866666Y-104399104D01*
X109866666Y-104399104D02*
X109819047Y-104541961D01*
X109819047Y-104541961D02*
X109723809Y-104637200D01*
X109723809Y-104637200D02*
X109580952Y-104684819D01*
X109580952Y-104684819D02*
X109485714Y-104684819D01*
X110771428Y-103684819D02*
X110580952Y-103684819D01*
X110580952Y-103684819D02*
X110485714Y-103732438D01*
X110485714Y-103732438D02*
X110438095Y-103780057D01*
X110438095Y-103780057D02*
X110342857Y-103922914D01*
X110342857Y-103922914D02*
X110295238Y-104113390D01*
X110295238Y-104113390D02*
X110295238Y-104494342D01*
X110295238Y-104494342D02*
X110342857Y-104589580D01*
X110342857Y-104589580D02*
X110390476Y-104637200D01*
X110390476Y-104637200D02*
X110485714Y-104684819D01*
X110485714Y-104684819D02*
X110676190Y-104684819D01*
X110676190Y-104684819D02*
X110771428Y-104637200D01*
X110771428Y-104637200D02*
X110819047Y-104589580D01*
X110819047Y-104589580D02*
X110866666Y-104494342D01*
X110866666Y-104494342D02*
X110866666Y-104256247D01*
X110866666Y-104256247D02*
X110819047Y-104161009D01*
X110819047Y-104161009D02*
X110771428Y-104113390D01*
X110771428Y-104113390D02*
X110676190Y-104065771D01*
X110676190Y-104065771D02*
X110485714Y-104065771D01*
X110485714Y-104065771D02*
X110390476Y-104113390D01*
X110390476Y-104113390D02*
X110342857Y-104161009D01*
X110342857Y-104161009D02*
X110295238Y-104256247D01*
X109438095Y-136954819D02*
X109438095Y-135954819D01*
X109438095Y-136431009D02*
X110009523Y-136431009D01*
X110009523Y-136954819D02*
X110009523Y-135954819D01*
X110914285Y-136288152D02*
X110914285Y-136954819D01*
X110676190Y-135907200D02*
X110438095Y-136621485D01*
X110438095Y-136621485D02*
X111057142Y-136621485D01*
X75038095Y-141154819D02*
X75038095Y-140154819D01*
X75038095Y-140631009D02*
X75609523Y-140631009D01*
X75609523Y-141154819D02*
X75609523Y-140154819D01*
X75990476Y-140154819D02*
X76609523Y-140154819D01*
X76609523Y-140154819D02*
X76276190Y-140535771D01*
X76276190Y-140535771D02*
X76419047Y-140535771D01*
X76419047Y-140535771D02*
X76514285Y-140583390D01*
X76514285Y-140583390D02*
X76561904Y-140631009D01*
X76561904Y-140631009D02*
X76609523Y-140726247D01*
X76609523Y-140726247D02*
X76609523Y-140964342D01*
X76609523Y-140964342D02*
X76561904Y-141059580D01*
X76561904Y-141059580D02*
X76514285Y-141107200D01*
X76514285Y-141107200D02*
X76419047Y-141154819D01*
X76419047Y-141154819D02*
X76133333Y-141154819D01*
X76133333Y-141154819D02*
X76038095Y-141107200D01*
X76038095Y-141107200D02*
X75990476Y-141059580D01*
X109438095Y-41154819D02*
X109438095Y-40154819D01*
X109438095Y-40631009D02*
X110009523Y-40631009D01*
X110009523Y-41154819D02*
X110009523Y-40154819D01*
X110438095Y-40250057D02*
X110485714Y-40202438D01*
X110485714Y-40202438D02*
X110580952Y-40154819D01*
X110580952Y-40154819D02*
X110819047Y-40154819D01*
X110819047Y-40154819D02*
X110914285Y-40202438D01*
X110914285Y-40202438D02*
X110961904Y-40250057D01*
X110961904Y-40250057D02*
X111009523Y-40345295D01*
X111009523Y-40345295D02*
X111009523Y-40440533D01*
X111009523Y-40440533D02*
X110961904Y-40583390D01*
X110961904Y-40583390D02*
X110390476Y-41154819D01*
X110390476Y-41154819D02*
X111009523Y-41154819D01*
X71638095Y-41154819D02*
X71638095Y-40154819D01*
X71638095Y-40631009D02*
X72209523Y-40631009D01*
X72209523Y-41154819D02*
X72209523Y-40154819D01*
X73209523Y-41154819D02*
X72638095Y-41154819D01*
X72923809Y-41154819D02*
X72923809Y-40154819D01*
X72923809Y-40154819D02*
X72828571Y-40297676D01*
X72828571Y-40297676D02*
X72733333Y-40392914D01*
X72733333Y-40392914D02*
X72638095Y-40440533D01*
X81590476Y-65684819D02*
X81590476Y-66399104D01*
X81590476Y-66399104D02*
X81542857Y-66541961D01*
X81542857Y-66541961D02*
X81447619Y-66637200D01*
X81447619Y-66637200D02*
X81304762Y-66684819D01*
X81304762Y-66684819D02*
X81209524Y-66684819D01*
X82066667Y-66684819D02*
X82066667Y-65684819D01*
X82066667Y-65684819D02*
X82447619Y-65684819D01*
X82447619Y-65684819D02*
X82542857Y-65732438D01*
X82542857Y-65732438D02*
X82590476Y-65780057D01*
X82590476Y-65780057D02*
X82638095Y-65875295D01*
X82638095Y-65875295D02*
X82638095Y-66018152D01*
X82638095Y-66018152D02*
X82590476Y-66113390D01*
X82590476Y-66113390D02*
X82542857Y-66161009D01*
X82542857Y-66161009D02*
X82447619Y-66208628D01*
X82447619Y-66208628D02*
X82066667Y-66208628D01*
X83590476Y-66684819D02*
X83019048Y-66684819D01*
X83304762Y-66684819D02*
X83304762Y-65684819D01*
X83304762Y-65684819D02*
X83209524Y-65827676D01*
X83209524Y-65827676D02*
X83114286Y-65922914D01*
X83114286Y-65922914D02*
X83019048Y-65970533D01*
X84542857Y-66684819D02*
X83971429Y-66684819D01*
X84257143Y-66684819D02*
X84257143Y-65684819D01*
X84257143Y-65684819D02*
X84161905Y-65827676D01*
X84161905Y-65827676D02*
X84066667Y-65922914D01*
X84066667Y-65922914D02*
X83971429Y-65970533D01*
X81790476Y-60354819D02*
X81790476Y-61069104D01*
X81790476Y-61069104D02*
X81742857Y-61211961D01*
X81742857Y-61211961D02*
X81647619Y-61307200D01*
X81647619Y-61307200D02*
X81504762Y-61354819D01*
X81504762Y-61354819D02*
X81409524Y-61354819D01*
X82266667Y-61354819D02*
X82266667Y-60354819D01*
X82266667Y-60354819D02*
X82647619Y-60354819D01*
X82647619Y-60354819D02*
X82742857Y-60402438D01*
X82742857Y-60402438D02*
X82790476Y-60450057D01*
X82790476Y-60450057D02*
X82838095Y-60545295D01*
X82838095Y-60545295D02*
X82838095Y-60688152D01*
X82838095Y-60688152D02*
X82790476Y-60783390D01*
X82790476Y-60783390D02*
X82742857Y-60831009D01*
X82742857Y-60831009D02*
X82647619Y-60878628D01*
X82647619Y-60878628D02*
X82266667Y-60878628D01*
X83790476Y-61354819D02*
X83219048Y-61354819D01*
X83504762Y-61354819D02*
X83504762Y-60354819D01*
X83504762Y-60354819D02*
X83409524Y-60497676D01*
X83409524Y-60497676D02*
X83314286Y-60592914D01*
X83314286Y-60592914D02*
X83219048Y-60640533D01*
X84409524Y-60354819D02*
X84504762Y-60354819D01*
X84504762Y-60354819D02*
X84600000Y-60402438D01*
X84600000Y-60402438D02*
X84647619Y-60450057D01*
X84647619Y-60450057D02*
X84695238Y-60545295D01*
X84695238Y-60545295D02*
X84742857Y-60735771D01*
X84742857Y-60735771D02*
X84742857Y-60973866D01*
X84742857Y-60973866D02*
X84695238Y-61164342D01*
X84695238Y-61164342D02*
X84647619Y-61259580D01*
X84647619Y-61259580D02*
X84600000Y-61307200D01*
X84600000Y-61307200D02*
X84504762Y-61354819D01*
X84504762Y-61354819D02*
X84409524Y-61354819D01*
X84409524Y-61354819D02*
X84314286Y-61307200D01*
X84314286Y-61307200D02*
X84266667Y-61259580D01*
X84266667Y-61259580D02*
X84219048Y-61164342D01*
X84219048Y-61164342D02*
X84171429Y-60973866D01*
X84171429Y-60973866D02*
X84171429Y-60735771D01*
X84171429Y-60735771D02*
X84219048Y-60545295D01*
X84219048Y-60545295D02*
X84266667Y-60450057D01*
X84266667Y-60450057D02*
X84314286Y-60402438D01*
X84314286Y-60402438D02*
X84409524Y-60354819D01*
X85788695Y-97250120D02*
X85788695Y-98059643D01*
X85788695Y-98059643D02*
X85836314Y-98154881D01*
X85836314Y-98154881D02*
X85883933Y-98202501D01*
X85883933Y-98202501D02*
X85979171Y-98250120D01*
X85979171Y-98250120D02*
X86169647Y-98250120D01*
X86169647Y-98250120D02*
X86264885Y-98202501D01*
X86264885Y-98202501D02*
X86312504Y-98154881D01*
X86312504Y-98154881D02*
X86360123Y-98059643D01*
X86360123Y-98059643D02*
X86360123Y-97250120D01*
X86788695Y-97345358D02*
X86836314Y-97297739D01*
X86836314Y-97297739D02*
X86931552Y-97250120D01*
X86931552Y-97250120D02*
X87169647Y-97250120D01*
X87169647Y-97250120D02*
X87264885Y-97297739D01*
X87264885Y-97297739D02*
X87312504Y-97345358D01*
X87312504Y-97345358D02*
X87360123Y-97440596D01*
X87360123Y-97440596D02*
X87360123Y-97535834D01*
X87360123Y-97535834D02*
X87312504Y-97678691D01*
X87312504Y-97678691D02*
X86741076Y-98250120D01*
X86741076Y-98250120D02*
X87360123Y-98250120D01*
X85800000Y-96354819D02*
X85800000Y-96592914D01*
X85561905Y-96497676D02*
X85800000Y-96592914D01*
X85800000Y-96592914D02*
X86038095Y-96497676D01*
X85657143Y-96783390D02*
X85800000Y-96592914D01*
X85800000Y-96592914D02*
X85942857Y-96783390D01*
X85300000Y-98154819D02*
X85300000Y-98392914D01*
X85061905Y-98297676D02*
X85300000Y-98392914D01*
X85300000Y-98392914D02*
X85538095Y-98297676D01*
X85157143Y-98583390D02*
X85300000Y-98392914D01*
X85300000Y-98392914D02*
X85442857Y-98583390D01*
X83224819Y-96766666D02*
X82748628Y-97099999D01*
X83224819Y-97338094D02*
X82224819Y-97338094D01*
X82224819Y-97338094D02*
X82224819Y-96957142D01*
X82224819Y-96957142D02*
X82272438Y-96861904D01*
X82272438Y-96861904D02*
X82320057Y-96814285D01*
X82320057Y-96814285D02*
X82415295Y-96766666D01*
X82415295Y-96766666D02*
X82558152Y-96766666D01*
X82558152Y-96766666D02*
X82653390Y-96814285D01*
X82653390Y-96814285D02*
X82701009Y-96861904D01*
X82701009Y-96861904D02*
X82748628Y-96957142D01*
X82748628Y-96957142D02*
X82748628Y-97338094D01*
X82224819Y-95909523D02*
X82224819Y-96099999D01*
X82224819Y-96099999D02*
X82272438Y-96195237D01*
X82272438Y-96195237D02*
X82320057Y-96242856D01*
X82320057Y-96242856D02*
X82462914Y-96338094D01*
X82462914Y-96338094D02*
X82653390Y-96385713D01*
X82653390Y-96385713D02*
X83034342Y-96385713D01*
X83034342Y-96385713D02*
X83129580Y-96338094D01*
X83129580Y-96338094D02*
X83177200Y-96290475D01*
X83177200Y-96290475D02*
X83224819Y-96195237D01*
X83224819Y-96195237D02*
X83224819Y-96004761D01*
X83224819Y-96004761D02*
X83177200Y-95909523D01*
X83177200Y-95909523D02*
X83129580Y-95861904D01*
X83129580Y-95861904D02*
X83034342Y-95814285D01*
X83034342Y-95814285D02*
X82796247Y-95814285D01*
X82796247Y-95814285D02*
X82701009Y-95861904D01*
X82701009Y-95861904D02*
X82653390Y-95909523D01*
X82653390Y-95909523D02*
X82605771Y-96004761D01*
X82605771Y-96004761D02*
X82605771Y-96195237D01*
X82605771Y-96195237D02*
X82653390Y-96290475D01*
X82653390Y-96290475D02*
X82701009Y-96338094D01*
X82701009Y-96338094D02*
X82796247Y-96385713D01*
X86284819Y-104166666D02*
X85808628Y-104499999D01*
X86284819Y-104738094D02*
X85284819Y-104738094D01*
X85284819Y-104738094D02*
X85284819Y-104357142D01*
X85284819Y-104357142D02*
X85332438Y-104261904D01*
X85332438Y-104261904D02*
X85380057Y-104214285D01*
X85380057Y-104214285D02*
X85475295Y-104166666D01*
X85475295Y-104166666D02*
X85618152Y-104166666D01*
X85618152Y-104166666D02*
X85713390Y-104214285D01*
X85713390Y-104214285D02*
X85761009Y-104261904D01*
X85761009Y-104261904D02*
X85808628Y-104357142D01*
X85808628Y-104357142D02*
X85808628Y-104738094D01*
X85284819Y-103833332D02*
X85284819Y-103214285D01*
X85284819Y-103214285D02*
X85665771Y-103547618D01*
X85665771Y-103547618D02*
X85665771Y-103404761D01*
X85665771Y-103404761D02*
X85713390Y-103309523D01*
X85713390Y-103309523D02*
X85761009Y-103261904D01*
X85761009Y-103261904D02*
X85856247Y-103214285D01*
X85856247Y-103214285D02*
X86094342Y-103214285D01*
X86094342Y-103214285D02*
X86189580Y-103261904D01*
X86189580Y-103261904D02*
X86237200Y-103309523D01*
X86237200Y-103309523D02*
X86284819Y-103404761D01*
X86284819Y-103404761D02*
X86284819Y-103690475D01*
X86284819Y-103690475D02*
X86237200Y-103785713D01*
X86237200Y-103785713D02*
X86189580Y-103833332D01*
X91054819Y-102466666D02*
X90578628Y-102799999D01*
X91054819Y-103038094D02*
X90054819Y-103038094D01*
X90054819Y-103038094D02*
X90054819Y-102657142D01*
X90054819Y-102657142D02*
X90102438Y-102561904D01*
X90102438Y-102561904D02*
X90150057Y-102514285D01*
X90150057Y-102514285D02*
X90245295Y-102466666D01*
X90245295Y-102466666D02*
X90388152Y-102466666D01*
X90388152Y-102466666D02*
X90483390Y-102514285D01*
X90483390Y-102514285D02*
X90531009Y-102561904D01*
X90531009Y-102561904D02*
X90578628Y-102657142D01*
X90578628Y-102657142D02*
X90578628Y-103038094D01*
X91054819Y-101514285D02*
X91054819Y-102085713D01*
X91054819Y-101799999D02*
X90054819Y-101799999D01*
X90054819Y-101799999D02*
X90197676Y-101895237D01*
X90197676Y-101895237D02*
X90292914Y-101990475D01*
X90292914Y-101990475D02*
X90340533Y-102085713D01*
X86166666Y-70284819D02*
X86166666Y-70999104D01*
X86166666Y-70999104D02*
X86119047Y-71141961D01*
X86119047Y-71141961D02*
X86023809Y-71237200D01*
X86023809Y-71237200D02*
X85880952Y-71284819D01*
X85880952Y-71284819D02*
X85785714Y-71284819D01*
X86642857Y-71284819D02*
X86642857Y-70284819D01*
X86642857Y-70284819D02*
X87023809Y-70284819D01*
X87023809Y-70284819D02*
X87119047Y-70332438D01*
X87119047Y-70332438D02*
X87166666Y-70380057D01*
X87166666Y-70380057D02*
X87214285Y-70475295D01*
X87214285Y-70475295D02*
X87214285Y-70618152D01*
X87214285Y-70618152D02*
X87166666Y-70713390D01*
X87166666Y-70713390D02*
X87119047Y-70761009D01*
X87119047Y-70761009D02*
X87023809Y-70808628D01*
X87023809Y-70808628D02*
X86642857Y-70808628D01*
X87690476Y-71284819D02*
X87880952Y-71284819D01*
X87880952Y-71284819D02*
X87976190Y-71237200D01*
X87976190Y-71237200D02*
X88023809Y-71189580D01*
X88023809Y-71189580D02*
X88119047Y-71046723D01*
X88119047Y-71046723D02*
X88166666Y-70856247D01*
X88166666Y-70856247D02*
X88166666Y-70475295D01*
X88166666Y-70475295D02*
X88119047Y-70380057D01*
X88119047Y-70380057D02*
X88071428Y-70332438D01*
X88071428Y-70332438D02*
X87976190Y-70284819D01*
X87976190Y-70284819D02*
X87785714Y-70284819D01*
X87785714Y-70284819D02*
X87690476Y-70332438D01*
X87690476Y-70332438D02*
X87642857Y-70380057D01*
X87642857Y-70380057D02*
X87595238Y-70475295D01*
X87595238Y-70475295D02*
X87595238Y-70713390D01*
X87595238Y-70713390D02*
X87642857Y-70808628D01*
X87642857Y-70808628D02*
X87690476Y-70856247D01*
X87690476Y-70856247D02*
X87785714Y-70903866D01*
X87785714Y-70903866D02*
X87976190Y-70903866D01*
X87976190Y-70903866D02*
X88071428Y-70856247D01*
X88071428Y-70856247D02*
X88119047Y-70808628D01*
X88119047Y-70808628D02*
X88166666Y-70713390D01*
X101866666Y-96054819D02*
X101866666Y-96769104D01*
X101866666Y-96769104D02*
X101819047Y-96911961D01*
X101819047Y-96911961D02*
X101723809Y-97007200D01*
X101723809Y-97007200D02*
X101580952Y-97054819D01*
X101580952Y-97054819D02*
X101485714Y-97054819D01*
X102342857Y-97054819D02*
X102342857Y-96054819D01*
X102342857Y-96054819D02*
X102723809Y-96054819D01*
X102723809Y-96054819D02*
X102819047Y-96102438D01*
X102819047Y-96102438D02*
X102866666Y-96150057D01*
X102866666Y-96150057D02*
X102914285Y-96245295D01*
X102914285Y-96245295D02*
X102914285Y-96388152D01*
X102914285Y-96388152D02*
X102866666Y-96483390D01*
X102866666Y-96483390D02*
X102819047Y-96531009D01*
X102819047Y-96531009D02*
X102723809Y-96578628D01*
X102723809Y-96578628D02*
X102342857Y-96578628D01*
X103485714Y-96483390D02*
X103390476Y-96435771D01*
X103390476Y-96435771D02*
X103342857Y-96388152D01*
X103342857Y-96388152D02*
X103295238Y-96292914D01*
X103295238Y-96292914D02*
X103295238Y-96245295D01*
X103295238Y-96245295D02*
X103342857Y-96150057D01*
X103342857Y-96150057D02*
X103390476Y-96102438D01*
X103390476Y-96102438D02*
X103485714Y-96054819D01*
X103485714Y-96054819D02*
X103676190Y-96054819D01*
X103676190Y-96054819D02*
X103771428Y-96102438D01*
X103771428Y-96102438D02*
X103819047Y-96150057D01*
X103819047Y-96150057D02*
X103866666Y-96245295D01*
X103866666Y-96245295D02*
X103866666Y-96292914D01*
X103866666Y-96292914D02*
X103819047Y-96388152D01*
X103819047Y-96388152D02*
X103771428Y-96435771D01*
X103771428Y-96435771D02*
X103676190Y-96483390D01*
X103676190Y-96483390D02*
X103485714Y-96483390D01*
X103485714Y-96483390D02*
X103390476Y-96531009D01*
X103390476Y-96531009D02*
X103342857Y-96578628D01*
X103342857Y-96578628D02*
X103295238Y-96673866D01*
X103295238Y-96673866D02*
X103295238Y-96864342D01*
X103295238Y-96864342D02*
X103342857Y-96959580D01*
X103342857Y-96959580D02*
X103390476Y-97007200D01*
X103390476Y-97007200D02*
X103485714Y-97054819D01*
X103485714Y-97054819D02*
X103676190Y-97054819D01*
X103676190Y-97054819D02*
X103771428Y-97007200D01*
X103771428Y-97007200D02*
X103819047Y-96959580D01*
X103819047Y-96959580D02*
X103866666Y-96864342D01*
X103866666Y-96864342D02*
X103866666Y-96673866D01*
X103866666Y-96673866D02*
X103819047Y-96578628D01*
X103819047Y-96578628D02*
X103771428Y-96531009D01*
X103771428Y-96531009D02*
X103676190Y-96483390D01*
X102618645Y-101750169D02*
X102618645Y-102464454D01*
X102618645Y-102464454D02*
X102571026Y-102607311D01*
X102571026Y-102607311D02*
X102475788Y-102702550D01*
X102475788Y-102702550D02*
X102332931Y-102750169D01*
X102332931Y-102750169D02*
X102237693Y-102750169D01*
X103094836Y-102750169D02*
X103094836Y-101750169D01*
X103094836Y-101750169D02*
X103475788Y-101750169D01*
X103475788Y-101750169D02*
X103571026Y-101797788D01*
X103571026Y-101797788D02*
X103618645Y-101845407D01*
X103618645Y-101845407D02*
X103666264Y-101940645D01*
X103666264Y-101940645D02*
X103666264Y-102083502D01*
X103666264Y-102083502D02*
X103618645Y-102178740D01*
X103618645Y-102178740D02*
X103571026Y-102226359D01*
X103571026Y-102226359D02*
X103475788Y-102273978D01*
X103475788Y-102273978D02*
X103094836Y-102273978D01*
X103999598Y-101750169D02*
X104666264Y-101750169D01*
X104666264Y-101750169D02*
X104237693Y-102750169D01*
X75884819Y-95733333D02*
X76599104Y-95733333D01*
X76599104Y-95733333D02*
X76741961Y-95780952D01*
X76741961Y-95780952D02*
X76837200Y-95876190D01*
X76837200Y-95876190D02*
X76884819Y-96019047D01*
X76884819Y-96019047D02*
X76884819Y-96114285D01*
X76884819Y-95257142D02*
X75884819Y-95257142D01*
X75884819Y-95257142D02*
X75884819Y-94876190D01*
X75884819Y-94876190D02*
X75932438Y-94780952D01*
X75932438Y-94780952D02*
X75980057Y-94733333D01*
X75980057Y-94733333D02*
X76075295Y-94685714D01*
X76075295Y-94685714D02*
X76218152Y-94685714D01*
X76218152Y-94685714D02*
X76313390Y-94733333D01*
X76313390Y-94733333D02*
X76361009Y-94780952D01*
X76361009Y-94780952D02*
X76408628Y-94876190D01*
X76408628Y-94876190D02*
X76408628Y-95257142D01*
X75884819Y-93828571D02*
X75884819Y-94019047D01*
X75884819Y-94019047D02*
X75932438Y-94114285D01*
X75932438Y-94114285D02*
X75980057Y-94161904D01*
X75980057Y-94161904D02*
X76122914Y-94257142D01*
X76122914Y-94257142D02*
X76313390Y-94304761D01*
X76313390Y-94304761D02*
X76694342Y-94304761D01*
X76694342Y-94304761D02*
X76789580Y-94257142D01*
X76789580Y-94257142D02*
X76837200Y-94209523D01*
X76837200Y-94209523D02*
X76884819Y-94114285D01*
X76884819Y-94114285D02*
X76884819Y-93923809D01*
X76884819Y-93923809D02*
X76837200Y-93828571D01*
X76837200Y-93828571D02*
X76789580Y-93780952D01*
X76789580Y-93780952D02*
X76694342Y-93733333D01*
X76694342Y-93733333D02*
X76456247Y-93733333D01*
X76456247Y-93733333D02*
X76361009Y-93780952D01*
X76361009Y-93780952D02*
X76313390Y-93828571D01*
X76313390Y-93828571D02*
X76265771Y-93923809D01*
X76265771Y-93923809D02*
X76265771Y-94114285D01*
X76265771Y-94114285D02*
X76313390Y-94209523D01*
X76313390Y-94209523D02*
X76361009Y-94257142D01*
X76361009Y-94257142D02*
X76456247Y-94304761D01*
X77866666Y-103854819D02*
X77866666Y-104569104D01*
X77866666Y-104569104D02*
X77819047Y-104711961D01*
X77819047Y-104711961D02*
X77723809Y-104807200D01*
X77723809Y-104807200D02*
X77580952Y-104854819D01*
X77580952Y-104854819D02*
X77485714Y-104854819D01*
X78342857Y-104854819D02*
X78342857Y-103854819D01*
X78342857Y-103854819D02*
X78723809Y-103854819D01*
X78723809Y-103854819D02*
X78819047Y-103902438D01*
X78819047Y-103902438D02*
X78866666Y-103950057D01*
X78866666Y-103950057D02*
X78914285Y-104045295D01*
X78914285Y-104045295D02*
X78914285Y-104188152D01*
X78914285Y-104188152D02*
X78866666Y-104283390D01*
X78866666Y-104283390D02*
X78819047Y-104331009D01*
X78819047Y-104331009D02*
X78723809Y-104378628D01*
X78723809Y-104378628D02*
X78342857Y-104378628D01*
X79819047Y-103854819D02*
X79342857Y-103854819D01*
X79342857Y-103854819D02*
X79295238Y-104331009D01*
X79295238Y-104331009D02*
X79342857Y-104283390D01*
X79342857Y-104283390D02*
X79438095Y-104235771D01*
X79438095Y-104235771D02*
X79676190Y-104235771D01*
X79676190Y-104235771D02*
X79771428Y-104283390D01*
X79771428Y-104283390D02*
X79819047Y-104331009D01*
X79819047Y-104331009D02*
X79866666Y-104426247D01*
X79866666Y-104426247D02*
X79866666Y-104664342D01*
X79866666Y-104664342D02*
X79819047Y-104759580D01*
X79819047Y-104759580D02*
X79771428Y-104807200D01*
X79771428Y-104807200D02*
X79676190Y-104854819D01*
X79676190Y-104854819D02*
X79438095Y-104854819D01*
X79438095Y-104854819D02*
X79342857Y-104807200D01*
X79342857Y-104807200D02*
X79295238Y-104759580D01*
X77866666Y-98124819D02*
X77866666Y-98839104D01*
X77866666Y-98839104D02*
X77819047Y-98981961D01*
X77819047Y-98981961D02*
X77723809Y-99077200D01*
X77723809Y-99077200D02*
X77580952Y-99124819D01*
X77580952Y-99124819D02*
X77485714Y-99124819D01*
X78342857Y-99124819D02*
X78342857Y-98124819D01*
X78342857Y-98124819D02*
X78723809Y-98124819D01*
X78723809Y-98124819D02*
X78819047Y-98172438D01*
X78819047Y-98172438D02*
X78866666Y-98220057D01*
X78866666Y-98220057D02*
X78914285Y-98315295D01*
X78914285Y-98315295D02*
X78914285Y-98458152D01*
X78914285Y-98458152D02*
X78866666Y-98553390D01*
X78866666Y-98553390D02*
X78819047Y-98601009D01*
X78819047Y-98601009D02*
X78723809Y-98648628D01*
X78723809Y-98648628D02*
X78342857Y-98648628D01*
X79771428Y-98458152D02*
X79771428Y-99124819D01*
X79533333Y-98077200D02*
X79295238Y-98791485D01*
X79295238Y-98791485D02*
X79914285Y-98791485D01*
X101866666Y-98354819D02*
X101866666Y-99069104D01*
X101866666Y-99069104D02*
X101819047Y-99211961D01*
X101819047Y-99211961D02*
X101723809Y-99307200D01*
X101723809Y-99307200D02*
X101580952Y-99354819D01*
X101580952Y-99354819D02*
X101485714Y-99354819D01*
X102342857Y-99354819D02*
X102342857Y-98354819D01*
X102342857Y-98354819D02*
X102723809Y-98354819D01*
X102723809Y-98354819D02*
X102819047Y-98402438D01*
X102819047Y-98402438D02*
X102866666Y-98450057D01*
X102866666Y-98450057D02*
X102914285Y-98545295D01*
X102914285Y-98545295D02*
X102914285Y-98688152D01*
X102914285Y-98688152D02*
X102866666Y-98783390D01*
X102866666Y-98783390D02*
X102819047Y-98831009D01*
X102819047Y-98831009D02*
X102723809Y-98878628D01*
X102723809Y-98878628D02*
X102342857Y-98878628D01*
X103247619Y-98354819D02*
X103866666Y-98354819D01*
X103866666Y-98354819D02*
X103533333Y-98735771D01*
X103533333Y-98735771D02*
X103676190Y-98735771D01*
X103676190Y-98735771D02*
X103771428Y-98783390D01*
X103771428Y-98783390D02*
X103819047Y-98831009D01*
X103819047Y-98831009D02*
X103866666Y-98926247D01*
X103866666Y-98926247D02*
X103866666Y-99164342D01*
X103866666Y-99164342D02*
X103819047Y-99259580D01*
X103819047Y-99259580D02*
X103771428Y-99307200D01*
X103771428Y-99307200D02*
X103676190Y-99354819D01*
X103676190Y-99354819D02*
X103390476Y-99354819D01*
X103390476Y-99354819D02*
X103295238Y-99307200D01*
X103295238Y-99307200D02*
X103247619Y-99259580D01*
X101866666Y-93754819D02*
X101866666Y-94469104D01*
X101866666Y-94469104D02*
X101819047Y-94611961D01*
X101819047Y-94611961D02*
X101723809Y-94707200D01*
X101723809Y-94707200D02*
X101580952Y-94754819D01*
X101580952Y-94754819D02*
X101485714Y-94754819D01*
X102342857Y-94754819D02*
X102342857Y-93754819D01*
X102342857Y-93754819D02*
X102723809Y-93754819D01*
X102723809Y-93754819D02*
X102819047Y-93802438D01*
X102819047Y-93802438D02*
X102866666Y-93850057D01*
X102866666Y-93850057D02*
X102914285Y-93945295D01*
X102914285Y-93945295D02*
X102914285Y-94088152D01*
X102914285Y-94088152D02*
X102866666Y-94183390D01*
X102866666Y-94183390D02*
X102819047Y-94231009D01*
X102819047Y-94231009D02*
X102723809Y-94278628D01*
X102723809Y-94278628D02*
X102342857Y-94278628D01*
X103295238Y-93850057D02*
X103342857Y-93802438D01*
X103342857Y-93802438D02*
X103438095Y-93754819D01*
X103438095Y-93754819D02*
X103676190Y-93754819D01*
X103676190Y-93754819D02*
X103771428Y-93802438D01*
X103771428Y-93802438D02*
X103819047Y-93850057D01*
X103819047Y-93850057D02*
X103866666Y-93945295D01*
X103866666Y-93945295D02*
X103866666Y-94040533D01*
X103866666Y-94040533D02*
X103819047Y-94183390D01*
X103819047Y-94183390D02*
X103247619Y-94754819D01*
X103247619Y-94754819D02*
X103866666Y-94754819D01*
X98276798Y-103828683D02*
X98991083Y-103828683D01*
X98991083Y-103828683D02*
X99133940Y-103876302D01*
X99133940Y-103876302D02*
X99229179Y-103971540D01*
X99229179Y-103971540D02*
X99276798Y-104114397D01*
X99276798Y-104114397D02*
X99276798Y-104209635D01*
X99276798Y-103352492D02*
X98276798Y-103352492D01*
X98276798Y-103352492D02*
X98276798Y-102971540D01*
X98276798Y-102971540D02*
X98324417Y-102876302D01*
X98324417Y-102876302D02*
X98372036Y-102828683D01*
X98372036Y-102828683D02*
X98467274Y-102781064D01*
X98467274Y-102781064D02*
X98610131Y-102781064D01*
X98610131Y-102781064D02*
X98705369Y-102828683D01*
X98705369Y-102828683D02*
X98752988Y-102876302D01*
X98752988Y-102876302D02*
X98800607Y-102971540D01*
X98800607Y-102971540D02*
X98800607Y-103352492D01*
X99276798Y-101828683D02*
X99276798Y-102400111D01*
X99276798Y-102114397D02*
X98276798Y-102114397D01*
X98276798Y-102114397D02*
X98419655Y-102209635D01*
X98419655Y-102209635D02*
X98514893Y-102304873D01*
X98514893Y-102304873D02*
X98562512Y-102400111D01*
X71571356Y-46723416D02*
X71571356Y-47437701D01*
X71571356Y-47437701D02*
X71523737Y-47580558D01*
X71523737Y-47580558D02*
X71428499Y-47675797D01*
X71428499Y-47675797D02*
X71285642Y-47723416D01*
X71285642Y-47723416D02*
X71190404Y-47723416D01*
X72571356Y-47723416D02*
X71999928Y-47723416D01*
X72285642Y-47723416D02*
X72285642Y-46723416D01*
X72285642Y-46723416D02*
X72190404Y-46866273D01*
X72190404Y-46866273D02*
X72095166Y-46961511D01*
X72095166Y-46961511D02*
X71999928Y-47009130D01*
X73523737Y-47723416D02*
X72952309Y-47723416D01*
X73238023Y-47723416D02*
X73238023Y-46723416D01*
X73238023Y-46723416D02*
X73142785Y-46866273D01*
X73142785Y-46866273D02*
X73047547Y-46961511D01*
X73047547Y-46961511D02*
X72952309Y-47009130D01*
X109490476Y-46724819D02*
X109490476Y-47439104D01*
X109490476Y-47439104D02*
X109442857Y-47581961D01*
X109442857Y-47581961D02*
X109347619Y-47677200D01*
X109347619Y-47677200D02*
X109204762Y-47724819D01*
X109204762Y-47724819D02*
X109109524Y-47724819D01*
X110490476Y-47724819D02*
X109919048Y-47724819D01*
X110204762Y-47724819D02*
X110204762Y-46724819D01*
X110204762Y-46724819D02*
X110109524Y-46867676D01*
X110109524Y-46867676D02*
X110014286Y-46962914D01*
X110014286Y-46962914D02*
X109919048Y-47010533D01*
X111109524Y-46724819D02*
X111204762Y-46724819D01*
X111204762Y-46724819D02*
X111300000Y-46772438D01*
X111300000Y-46772438D02*
X111347619Y-46820057D01*
X111347619Y-46820057D02*
X111395238Y-46915295D01*
X111395238Y-46915295D02*
X111442857Y-47105771D01*
X111442857Y-47105771D02*
X111442857Y-47343866D01*
X111442857Y-47343866D02*
X111395238Y-47534342D01*
X111395238Y-47534342D02*
X111347619Y-47629580D01*
X111347619Y-47629580D02*
X111300000Y-47677200D01*
X111300000Y-47677200D02*
X111204762Y-47724819D01*
X111204762Y-47724819D02*
X111109524Y-47724819D01*
X111109524Y-47724819D02*
X111014286Y-47677200D01*
X111014286Y-47677200D02*
X110966667Y-47629580D01*
X110966667Y-47629580D02*
X110919048Y-47534342D01*
X110919048Y-47534342D02*
X110871429Y-47343866D01*
X110871429Y-47343866D02*
X110871429Y-47105771D01*
X110871429Y-47105771D02*
X110919048Y-46915295D01*
X110919048Y-46915295D02*
X110966667Y-46820057D01*
X110966667Y-46820057D02*
X111014286Y-46772438D01*
X111014286Y-46772438D02*
X111109524Y-46724819D01*
X72666666Y-107154819D02*
X72666666Y-107869104D01*
X72666666Y-107869104D02*
X72619047Y-108011961D01*
X72619047Y-108011961D02*
X72523809Y-108107200D01*
X72523809Y-108107200D02*
X72380952Y-108154819D01*
X72380952Y-108154819D02*
X72285714Y-108154819D01*
X73190476Y-108154819D02*
X73380952Y-108154819D01*
X73380952Y-108154819D02*
X73476190Y-108107200D01*
X73476190Y-108107200D02*
X73523809Y-108059580D01*
X73523809Y-108059580D02*
X73619047Y-107916723D01*
X73619047Y-107916723D02*
X73666666Y-107726247D01*
X73666666Y-107726247D02*
X73666666Y-107345295D01*
X73666666Y-107345295D02*
X73619047Y-107250057D01*
X73619047Y-107250057D02*
X73571428Y-107202438D01*
X73571428Y-107202438D02*
X73476190Y-107154819D01*
X73476190Y-107154819D02*
X73285714Y-107154819D01*
X73285714Y-107154819D02*
X73190476Y-107202438D01*
X73190476Y-107202438D02*
X73142857Y-107250057D01*
X73142857Y-107250057D02*
X73095238Y-107345295D01*
X73095238Y-107345295D02*
X73095238Y-107583390D01*
X73095238Y-107583390D02*
X73142857Y-107678628D01*
X73142857Y-107678628D02*
X73190476Y-107726247D01*
X73190476Y-107726247D02*
X73285714Y-107773866D01*
X73285714Y-107773866D02*
X73476190Y-107773866D01*
X73476190Y-107773866D02*
X73571428Y-107726247D01*
X73571428Y-107726247D02*
X73619047Y-107678628D01*
X73619047Y-107678628D02*
X73666666Y-107583390D01*
X72666666Y-97149819D02*
X72666666Y-97864104D01*
X72666666Y-97864104D02*
X72619047Y-98006961D01*
X72619047Y-98006961D02*
X72523809Y-98102200D01*
X72523809Y-98102200D02*
X72380952Y-98149819D01*
X72380952Y-98149819D02*
X72285714Y-98149819D01*
X73619047Y-97149819D02*
X73142857Y-97149819D01*
X73142857Y-97149819D02*
X73095238Y-97626009D01*
X73095238Y-97626009D02*
X73142857Y-97578390D01*
X73142857Y-97578390D02*
X73238095Y-97530771D01*
X73238095Y-97530771D02*
X73476190Y-97530771D01*
X73476190Y-97530771D02*
X73571428Y-97578390D01*
X73571428Y-97578390D02*
X73619047Y-97626009D01*
X73619047Y-97626009D02*
X73666666Y-97721247D01*
X73666666Y-97721247D02*
X73666666Y-97959342D01*
X73666666Y-97959342D02*
X73619047Y-98054580D01*
X73619047Y-98054580D02*
X73571428Y-98102200D01*
X73571428Y-98102200D02*
X73476190Y-98149819D01*
X73476190Y-98149819D02*
X73238095Y-98149819D01*
X73238095Y-98149819D02*
X73142857Y-98102200D01*
X73142857Y-98102200D02*
X73095238Y-98054580D01*
X73066666Y-127549819D02*
X73066666Y-128264104D01*
X73066666Y-128264104D02*
X73019047Y-128406961D01*
X73019047Y-128406961D02*
X72923809Y-128502200D01*
X72923809Y-128502200D02*
X72780952Y-128549819D01*
X72780952Y-128549819D02*
X72685714Y-128549819D01*
X73971428Y-127883152D02*
X73971428Y-128549819D01*
X73733333Y-127502200D02*
X73495238Y-128216485D01*
X73495238Y-128216485D02*
X74114285Y-128216485D01*
X112154819Y-99733333D02*
X112869104Y-99733333D01*
X112869104Y-99733333D02*
X113011961Y-99780952D01*
X113011961Y-99780952D02*
X113107200Y-99876190D01*
X113107200Y-99876190D02*
X113154819Y-100019047D01*
X113154819Y-100019047D02*
X113154819Y-100114285D01*
X112154819Y-99352380D02*
X112154819Y-98733333D01*
X112154819Y-98733333D02*
X112535771Y-99066666D01*
X112535771Y-99066666D02*
X112535771Y-98923809D01*
X112535771Y-98923809D02*
X112583390Y-98828571D01*
X112583390Y-98828571D02*
X112631009Y-98780952D01*
X112631009Y-98780952D02*
X112726247Y-98733333D01*
X112726247Y-98733333D02*
X112964342Y-98733333D01*
X112964342Y-98733333D02*
X113059580Y-98780952D01*
X113059580Y-98780952D02*
X113107200Y-98828571D01*
X113107200Y-98828571D02*
X113154819Y-98923809D01*
X113154819Y-98923809D02*
X113154819Y-99209523D01*
X113154819Y-99209523D02*
X113107200Y-99304761D01*
X113107200Y-99304761D02*
X113059580Y-99352380D01*
X103606644Y-46727777D02*
X103606644Y-47442062D01*
X103606644Y-47442062D02*
X103559025Y-47584919D01*
X103559025Y-47584919D02*
X103463787Y-47680158D01*
X103463787Y-47680158D02*
X103320930Y-47727777D01*
X103320930Y-47727777D02*
X103225692Y-47727777D01*
X104035216Y-46823015D02*
X104082835Y-46775396D01*
X104082835Y-46775396D02*
X104178073Y-46727777D01*
X104178073Y-46727777D02*
X104416168Y-46727777D01*
X104416168Y-46727777D02*
X104511406Y-46775396D01*
X104511406Y-46775396D02*
X104559025Y-46823015D01*
X104559025Y-46823015D02*
X104606644Y-46918253D01*
X104606644Y-46918253D02*
X104606644Y-47013491D01*
X104606644Y-47013491D02*
X104559025Y-47156348D01*
X104559025Y-47156348D02*
X103987597Y-47727777D01*
X103987597Y-47727777D02*
X104606644Y-47727777D01*
X78187243Y-46727777D02*
X78187243Y-47442062D01*
X78187243Y-47442062D02*
X78139624Y-47584919D01*
X78139624Y-47584919D02*
X78044386Y-47680158D01*
X78044386Y-47680158D02*
X77901529Y-47727777D01*
X77901529Y-47727777D02*
X77806291Y-47727777D01*
X79187243Y-47727777D02*
X78615815Y-47727777D01*
X78901529Y-47727777D02*
X78901529Y-46727777D01*
X78901529Y-46727777D02*
X78806291Y-46870634D01*
X78806291Y-46870634D02*
X78711053Y-46965872D01*
X78711053Y-46965872D02*
X78615815Y-47013491D01*
X91139580Y-108966666D02*
X91187200Y-109014285D01*
X91187200Y-109014285D02*
X91234819Y-109157142D01*
X91234819Y-109157142D02*
X91234819Y-109252380D01*
X91234819Y-109252380D02*
X91187200Y-109395237D01*
X91187200Y-109395237D02*
X91091961Y-109490475D01*
X91091961Y-109490475D02*
X90996723Y-109538094D01*
X90996723Y-109538094D02*
X90806247Y-109585713D01*
X90806247Y-109585713D02*
X90663390Y-109585713D01*
X90663390Y-109585713D02*
X90472914Y-109538094D01*
X90472914Y-109538094D02*
X90377676Y-109490475D01*
X90377676Y-109490475D02*
X90282438Y-109395237D01*
X90282438Y-109395237D02*
X90234819Y-109252380D01*
X90234819Y-109252380D02*
X90234819Y-109157142D01*
X90234819Y-109157142D02*
X90282438Y-109014285D01*
X90282438Y-109014285D02*
X90330057Y-108966666D01*
X90330057Y-108585713D02*
X90282438Y-108538094D01*
X90282438Y-108538094D02*
X90234819Y-108442856D01*
X90234819Y-108442856D02*
X90234819Y-108204761D01*
X90234819Y-108204761D02*
X90282438Y-108109523D01*
X90282438Y-108109523D02*
X90330057Y-108061904D01*
X90330057Y-108061904D02*
X90425295Y-108014285D01*
X90425295Y-108014285D02*
X90520533Y-108014285D01*
X90520533Y-108014285D02*
X90663390Y-108061904D01*
X90663390Y-108061904D02*
X91234819Y-108633332D01*
X91234819Y-108633332D02*
X91234819Y-108014285D01*
X98659580Y-83866666D02*
X98707200Y-83914285D01*
X98707200Y-83914285D02*
X98754819Y-84057142D01*
X98754819Y-84057142D02*
X98754819Y-84152380D01*
X98754819Y-84152380D02*
X98707200Y-84295237D01*
X98707200Y-84295237D02*
X98611961Y-84390475D01*
X98611961Y-84390475D02*
X98516723Y-84438094D01*
X98516723Y-84438094D02*
X98326247Y-84485713D01*
X98326247Y-84485713D02*
X98183390Y-84485713D01*
X98183390Y-84485713D02*
X97992914Y-84438094D01*
X97992914Y-84438094D02*
X97897676Y-84390475D01*
X97897676Y-84390475D02*
X97802438Y-84295237D01*
X97802438Y-84295237D02*
X97754819Y-84152380D01*
X97754819Y-84152380D02*
X97754819Y-84057142D01*
X97754819Y-84057142D02*
X97802438Y-83914285D01*
X97802438Y-83914285D02*
X97850057Y-83866666D01*
X98754819Y-82914285D02*
X98754819Y-83485713D01*
X98754819Y-83199999D02*
X97754819Y-83199999D01*
X97754819Y-83199999D02*
X97897676Y-83295237D01*
X97897676Y-83295237D02*
X97992914Y-83390475D01*
X97992914Y-83390475D02*
X98040533Y-83485713D01*
X96333333Y-117854819D02*
X95857143Y-117854819D01*
X95857143Y-117854819D02*
X95857143Y-116854819D01*
X96619048Y-116950057D02*
X96666667Y-116902438D01*
X96666667Y-116902438D02*
X96761905Y-116854819D01*
X96761905Y-116854819D02*
X97000000Y-116854819D01*
X97000000Y-116854819D02*
X97095238Y-116902438D01*
X97095238Y-116902438D02*
X97142857Y-116950057D01*
X97142857Y-116950057D02*
X97190476Y-117045295D01*
X97190476Y-117045295D02*
X97190476Y-117140533D01*
X97190476Y-117140533D02*
X97142857Y-117283390D01*
X97142857Y-117283390D02*
X96571429Y-117854819D01*
X96571429Y-117854819D02*
X97190476Y-117854819D01*
X104561905Y-128154818D02*
X104561905Y-127154818D01*
X104561905Y-127154818D02*
X104800000Y-127154818D01*
X104800000Y-127154818D02*
X104942857Y-127202437D01*
X104942857Y-127202437D02*
X105038095Y-127297675D01*
X105038095Y-127297675D02*
X105085714Y-127392913D01*
X105085714Y-127392913D02*
X105133333Y-127583389D01*
X105133333Y-127583389D02*
X105133333Y-127726246D01*
X105133333Y-127726246D02*
X105085714Y-127916722D01*
X105085714Y-127916722D02*
X105038095Y-128011960D01*
X105038095Y-128011960D02*
X104942857Y-128107199D01*
X104942857Y-128107199D02*
X104800000Y-128154818D01*
X104800000Y-128154818D02*
X104561905Y-128154818D01*
X105466667Y-127154818D02*
X106085714Y-127154818D01*
X106085714Y-127154818D02*
X105752381Y-127535770D01*
X105752381Y-127535770D02*
X105895238Y-127535770D01*
X105895238Y-127535770D02*
X105990476Y-127583389D01*
X105990476Y-127583389D02*
X106038095Y-127631008D01*
X106038095Y-127631008D02*
X106085714Y-127726246D01*
X106085714Y-127726246D02*
X106085714Y-127964341D01*
X106085714Y-127964341D02*
X106038095Y-128059579D01*
X106038095Y-128059579D02*
X105990476Y-128107199D01*
X105990476Y-128107199D02*
X105895238Y-128154818D01*
X105895238Y-128154818D02*
X105609524Y-128154818D01*
X105609524Y-128154818D02*
X105514286Y-128107199D01*
X105514286Y-128107199D02*
X105466667Y-128059579D01*
X83133334Y-131754818D02*
X82800001Y-131278627D01*
X82561906Y-131754818D02*
X82561906Y-130754818D01*
X82561906Y-130754818D02*
X82942858Y-130754818D01*
X82942858Y-130754818D02*
X83038096Y-130802437D01*
X83038096Y-130802437D02*
X83085715Y-130850056D01*
X83085715Y-130850056D02*
X83133334Y-130945294D01*
X83133334Y-130945294D02*
X83133334Y-131088151D01*
X83133334Y-131088151D02*
X83085715Y-131183389D01*
X83085715Y-131183389D02*
X83038096Y-131231008D01*
X83038096Y-131231008D02*
X82942858Y-131278627D01*
X82942858Y-131278627D02*
X82561906Y-131278627D01*
X84038096Y-130754818D02*
X83561906Y-130754818D01*
X83561906Y-130754818D02*
X83514287Y-131231008D01*
X83514287Y-131231008D02*
X83561906Y-131183389D01*
X83561906Y-131183389D02*
X83657144Y-131135770D01*
X83657144Y-131135770D02*
X83895239Y-131135770D01*
X83895239Y-131135770D02*
X83990477Y-131183389D01*
X83990477Y-131183389D02*
X84038096Y-131231008D01*
X84038096Y-131231008D02*
X84085715Y-131326246D01*
X84085715Y-131326246D02*
X84085715Y-131564341D01*
X84085715Y-131564341D02*
X84038096Y-131659579D01*
X84038096Y-131659579D02*
X83990477Y-131707199D01*
X83990477Y-131707199D02*
X83895239Y-131754818D01*
X83895239Y-131754818D02*
X83657144Y-131754818D01*
X83657144Y-131754818D02*
X83561906Y-131707199D01*
X83561906Y-131707199D02*
X83514287Y-131659579D01*
X90304761Y-133150057D02*
X90209523Y-133102438D01*
X90209523Y-133102438D02*
X90114285Y-133007200D01*
X90114285Y-133007200D02*
X89971428Y-132864342D01*
X89971428Y-132864342D02*
X89876190Y-132816723D01*
X89876190Y-132816723D02*
X89780952Y-132816723D01*
X89828571Y-133054819D02*
X89733333Y-133007200D01*
X89733333Y-133007200D02*
X89638095Y-132911961D01*
X89638095Y-132911961D02*
X89590476Y-132721485D01*
X89590476Y-132721485D02*
X89590476Y-132388152D01*
X89590476Y-132388152D02*
X89638095Y-132197676D01*
X89638095Y-132197676D02*
X89733333Y-132102438D01*
X89733333Y-132102438D02*
X89828571Y-132054819D01*
X89828571Y-132054819D02*
X90019047Y-132054819D01*
X90019047Y-132054819D02*
X90114285Y-132102438D01*
X90114285Y-132102438D02*
X90209523Y-132197676D01*
X90209523Y-132197676D02*
X90257142Y-132388152D01*
X90257142Y-132388152D02*
X90257142Y-132721485D01*
X90257142Y-132721485D02*
X90209523Y-132911961D01*
X90209523Y-132911961D02*
X90114285Y-133007200D01*
X90114285Y-133007200D02*
X90019047Y-133054819D01*
X90019047Y-133054819D02*
X89828571Y-133054819D01*
X91209523Y-133054819D02*
X90638095Y-133054819D01*
X90923809Y-133054819D02*
X90923809Y-132054819D01*
X90923809Y-132054819D02*
X90828571Y-132197676D01*
X90828571Y-132197676D02*
X90733333Y-132292914D01*
X90733333Y-132292914D02*
X90638095Y-132340533D01*
X110174819Y-123738094D02*
X109174819Y-123738094D01*
X109174819Y-123738094D02*
X109174819Y-123499999D01*
X109174819Y-123499999D02*
X109222438Y-123357142D01*
X109222438Y-123357142D02*
X109317676Y-123261904D01*
X109317676Y-123261904D02*
X109412914Y-123214285D01*
X109412914Y-123214285D02*
X109603390Y-123166666D01*
X109603390Y-123166666D02*
X109746247Y-123166666D01*
X109746247Y-123166666D02*
X109936723Y-123214285D01*
X109936723Y-123214285D02*
X110031961Y-123261904D01*
X110031961Y-123261904D02*
X110127200Y-123357142D01*
X110127200Y-123357142D02*
X110174819Y-123499999D01*
X110174819Y-123499999D02*
X110174819Y-123738094D01*
X109270057Y-122785713D02*
X109222438Y-122738094D01*
X109222438Y-122738094D02*
X109174819Y-122642856D01*
X109174819Y-122642856D02*
X109174819Y-122404761D01*
X109174819Y-122404761D02*
X109222438Y-122309523D01*
X109222438Y-122309523D02*
X109270057Y-122261904D01*
X109270057Y-122261904D02*
X109365295Y-122214285D01*
X109365295Y-122214285D02*
X109460533Y-122214285D01*
X109460533Y-122214285D02*
X109603390Y-122261904D01*
X109603390Y-122261904D02*
X110174819Y-122833332D01*
X110174819Y-122833332D02*
X110174819Y-122214285D01*
X79361905Y-128154819D02*
X79361905Y-127154819D01*
X79361905Y-127154819D02*
X79600000Y-127154819D01*
X79600000Y-127154819D02*
X79742857Y-127202438D01*
X79742857Y-127202438D02*
X79838095Y-127297676D01*
X79838095Y-127297676D02*
X79885714Y-127392914D01*
X79885714Y-127392914D02*
X79933333Y-127583390D01*
X79933333Y-127583390D02*
X79933333Y-127726247D01*
X79933333Y-127726247D02*
X79885714Y-127916723D01*
X79885714Y-127916723D02*
X79838095Y-128011961D01*
X79838095Y-128011961D02*
X79742857Y-128107200D01*
X79742857Y-128107200D02*
X79600000Y-128154819D01*
X79600000Y-128154819D02*
X79361905Y-128154819D01*
X80790476Y-127488152D02*
X80790476Y-128154819D01*
X80552381Y-127107200D02*
X80314286Y-127821485D01*
X80314286Y-127821485D02*
X80933333Y-127821485D01*
X80354820Y-134538093D02*
X79354820Y-134538093D01*
X79354820Y-134538093D02*
X79354820Y-134299998D01*
X79354820Y-134299998D02*
X79402439Y-134157141D01*
X79402439Y-134157141D02*
X79497677Y-134061903D01*
X79497677Y-134061903D02*
X79592915Y-134014284D01*
X79592915Y-134014284D02*
X79783391Y-133966665D01*
X79783391Y-133966665D02*
X79926248Y-133966665D01*
X79926248Y-133966665D02*
X80116724Y-134014284D01*
X80116724Y-134014284D02*
X80211962Y-134061903D01*
X80211962Y-134061903D02*
X80307201Y-134157141D01*
X80307201Y-134157141D02*
X80354820Y-134299998D01*
X80354820Y-134299998D02*
X80354820Y-134538093D01*
X79354820Y-133061903D02*
X79354820Y-133538093D01*
X79354820Y-133538093D02*
X79831010Y-133585712D01*
X79831010Y-133585712D02*
X79783391Y-133538093D01*
X79783391Y-133538093D02*
X79735772Y-133442855D01*
X79735772Y-133442855D02*
X79735772Y-133204760D01*
X79735772Y-133204760D02*
X79783391Y-133109522D01*
X79783391Y-133109522D02*
X79831010Y-133061903D01*
X79831010Y-133061903D02*
X79926248Y-133014284D01*
X79926248Y-133014284D02*
X80164343Y-133014284D01*
X80164343Y-133014284D02*
X80259581Y-133061903D01*
X80259581Y-133061903D02*
X80307201Y-133109522D01*
X80307201Y-133109522D02*
X80354820Y-133204760D01*
X80354820Y-133204760D02*
X80354820Y-133442855D01*
X80354820Y-133442855D02*
X80307201Y-133538093D01*
X80307201Y-133538093D02*
X80259581Y-133585712D01*
X85533333Y-117654819D02*
X85057143Y-117654819D01*
X85057143Y-117654819D02*
X85057143Y-116654819D01*
X85771429Y-116654819D02*
X86390476Y-116654819D01*
X86390476Y-116654819D02*
X86057143Y-117035771D01*
X86057143Y-117035771D02*
X86200000Y-117035771D01*
X86200000Y-117035771D02*
X86295238Y-117083390D01*
X86295238Y-117083390D02*
X86342857Y-117131009D01*
X86342857Y-117131009D02*
X86390476Y-117226247D01*
X86390476Y-117226247D02*
X86390476Y-117464342D01*
X86390476Y-117464342D02*
X86342857Y-117559580D01*
X86342857Y-117559580D02*
X86295238Y-117607200D01*
X86295238Y-117607200D02*
X86200000Y-117654819D01*
X86200000Y-117654819D02*
X85914286Y-117654819D01*
X85914286Y-117654819D02*
X85819048Y-117607200D01*
X85819048Y-117607200D02*
X85771429Y-117559580D01*
X96974819Y-110366666D02*
X96498628Y-110699999D01*
X96974819Y-110938094D02*
X95974819Y-110938094D01*
X95974819Y-110938094D02*
X95974819Y-110557142D01*
X95974819Y-110557142D02*
X96022438Y-110461904D01*
X96022438Y-110461904D02*
X96070057Y-110414285D01*
X96070057Y-110414285D02*
X96165295Y-110366666D01*
X96165295Y-110366666D02*
X96308152Y-110366666D01*
X96308152Y-110366666D02*
X96403390Y-110414285D01*
X96403390Y-110414285D02*
X96451009Y-110461904D01*
X96451009Y-110461904D02*
X96498628Y-110557142D01*
X96498628Y-110557142D02*
X96498628Y-110938094D01*
X96308152Y-109509523D02*
X96974819Y-109509523D01*
X95927200Y-109747618D02*
X96641485Y-109985713D01*
X96641485Y-109985713D02*
X96641485Y-109366666D01*
X97654819Y-132666666D02*
X97178628Y-132999999D01*
X97654819Y-133238094D02*
X96654819Y-133238094D01*
X96654819Y-133238094D02*
X96654819Y-132857142D01*
X96654819Y-132857142D02*
X96702438Y-132761904D01*
X96702438Y-132761904D02*
X96750057Y-132714285D01*
X96750057Y-132714285D02*
X96845295Y-132666666D01*
X96845295Y-132666666D02*
X96988152Y-132666666D01*
X96988152Y-132666666D02*
X97083390Y-132714285D01*
X97083390Y-132714285D02*
X97131009Y-132761904D01*
X97131009Y-132761904D02*
X97178628Y-132857142D01*
X97178628Y-132857142D02*
X97178628Y-133238094D01*
X96750057Y-132285713D02*
X96702438Y-132238094D01*
X96702438Y-132238094D02*
X96654819Y-132142856D01*
X96654819Y-132142856D02*
X96654819Y-131904761D01*
X96654819Y-131904761D02*
X96702438Y-131809523D01*
X96702438Y-131809523D02*
X96750057Y-131761904D01*
X96750057Y-131761904D02*
X96845295Y-131714285D01*
X96845295Y-131714285D02*
X96940533Y-131714285D01*
X96940533Y-131714285D02*
X97083390Y-131761904D01*
X97083390Y-131761904D02*
X97654819Y-132333332D01*
X97654819Y-132333332D02*
X97654819Y-131714285D01*
D13*
%TO.C,J6*%
X108870000Y-105230000D02*
X110200000Y-105230000D01*
X108870000Y-106560000D02*
X108870000Y-105230000D01*
X108870000Y-107830000D02*
X108870000Y-110430000D01*
X108870000Y-107830000D02*
X111530000Y-107830000D01*
X108870000Y-110430000D02*
X111530000Y-110430000D01*
X111530000Y-107830000D02*
X111530000Y-110430000D01*
%TO.C,JP11*%
X83154724Y-65322500D02*
X82645276Y-65322500D01*
X83154724Y-64277500D02*
X82645276Y-64277500D01*
%TO.C,JP10*%
X83254724Y-62822500D02*
X82745276Y-62822500D01*
X83254724Y-61777500D02*
X82745276Y-61777500D01*
D14*
%TO.C,U2*%
X85201829Y-101329501D02*
X85680971Y-101329501D01*
X86139900Y-100389460D02*
X86139900Y-100110542D01*
X85680971Y-99170501D02*
X85201829Y-99170501D01*
X85565860Y-99448732D02*
G75*
G02*
X85316940Y-99448732I-124460J278226D01*
G01*
D13*
%TO.C,R6*%
X83677500Y-96854724D02*
X83677500Y-96345276D01*
X84722500Y-96854724D02*
X84722500Y-96345276D01*
%TO.C,R3*%
X84922500Y-103745276D02*
X84922500Y-104254724D01*
X83877500Y-103745276D02*
X83877500Y-104254724D01*
%TO.C,R1*%
X89522500Y-101945276D02*
X89522500Y-102454724D01*
X88477500Y-101945276D02*
X88477500Y-102454724D01*
%TO.C,JP9*%
X87254724Y-69922500D02*
X86745276Y-69922500D01*
X87254724Y-68877500D02*
X86745276Y-68877500D01*
%TO.C,JP8*%
X105545276Y-96077500D02*
X106054724Y-96077500D01*
X105545276Y-97122500D02*
X106054724Y-97122500D01*
%TO.C,JP7*%
X103606703Y-104417850D02*
X103097255Y-104417850D01*
X103606703Y-103372850D02*
X103097255Y-103372850D01*
%TO.C,JP6*%
X74477500Y-94645276D02*
X74477500Y-95154724D01*
X75522500Y-94645276D02*
X75522500Y-95154724D01*
%TO.C,JP5*%
X78954724Y-102577500D02*
X78445276Y-102577500D01*
X78954724Y-103622500D02*
X78445276Y-103622500D01*
%TO.C,JP4*%
X78445276Y-100622500D02*
X78954724Y-100622500D01*
X78445276Y-99577500D02*
X78954724Y-99577500D01*
%TO.C,JP3*%
X106054724Y-99422500D02*
X105545276Y-99422500D01*
X106054724Y-98377500D02*
X105545276Y-98377500D01*
%TO.C,JP2*%
X106054724Y-94822500D02*
X105545276Y-94822500D01*
X106054724Y-93777500D02*
X105545276Y-93777500D01*
%TO.C,JP1*%
X99729479Y-103250074D02*
X99729479Y-102740626D01*
X100774479Y-103250074D02*
X100774479Y-102740626D01*
%TO.C,J11*%
X73710880Y-50868597D02*
X73710880Y-89028597D01*
X71050880Y-89028597D02*
X73710880Y-89028597D01*
X71050880Y-50868597D02*
X73710880Y-50868597D01*
X71050880Y-50868597D02*
X71050880Y-89028597D01*
X71050880Y-49598597D02*
X71050880Y-48268597D01*
X71050880Y-48268597D02*
X72380880Y-48268597D01*
%TO.C,J10*%
X108970000Y-48270000D02*
X110300000Y-48270000D01*
X108970000Y-49600000D02*
X108970000Y-48270000D01*
X108970000Y-50870000D02*
X108970000Y-89030000D01*
X108970000Y-50870000D02*
X111630000Y-50870000D01*
X108970000Y-89030000D02*
X111630000Y-89030000D01*
X111630000Y-50870000D02*
X111630000Y-89030000D01*
%TO.C,J9*%
X74430000Y-116530000D02*
X73100000Y-116530000D01*
X74430000Y-115200000D02*
X74430000Y-116530000D01*
X74430000Y-113930000D02*
X74430000Y-108790000D01*
X74430000Y-113930000D02*
X71770000Y-113930000D01*
X74430000Y-108790000D02*
X71770000Y-108790000D01*
X71770000Y-113930000D02*
X71770000Y-108790000D01*
%TO.C,J5*%
X74330000Y-101295000D02*
X74330000Y-103895000D01*
X71670000Y-103895000D02*
X74330000Y-103895000D01*
X71670000Y-101295000D02*
X74330000Y-101295000D01*
X71670000Y-101295000D02*
X71670000Y-103895000D01*
X71670000Y-100025000D02*
X71670000Y-98695000D01*
X71670000Y-98695000D02*
X73000000Y-98695000D01*
%TO.C,J4*%
X72070000Y-129095000D02*
X73400000Y-129095000D01*
X72070000Y-130425000D02*
X72070000Y-129095000D01*
X72070000Y-131695000D02*
X72070000Y-134295000D01*
X72070000Y-131695000D02*
X74730000Y-131695000D01*
X72070000Y-134295000D02*
X74730000Y-134295000D01*
X74730000Y-131695000D02*
X74730000Y-134295000D01*
%TO.C,J3*%
X111530000Y-99530000D02*
X110200000Y-99530000D01*
X111530000Y-98200000D02*
X111530000Y-99530000D01*
X111530000Y-96930000D02*
X111530000Y-94330000D01*
X111530000Y-96930000D02*
X108870000Y-96930000D01*
X111530000Y-94330000D02*
X108870000Y-94330000D01*
X108870000Y-96930000D02*
X108870000Y-94330000D01*
%TO.C,J2*%
X102609978Y-48272958D02*
X103939978Y-48272958D01*
X102609978Y-49602958D02*
X102609978Y-48272958D01*
X102609978Y-50872958D02*
X102609978Y-89032958D01*
X102609978Y-50872958D02*
X105269978Y-50872958D01*
X102609978Y-89032958D02*
X105269978Y-89032958D01*
X105269978Y-50872958D02*
X105269978Y-89032958D01*
%TO.C,J1*%
X77190577Y-48272958D02*
X78520577Y-48272958D01*
X77190577Y-49602958D02*
X77190577Y-48272958D01*
X77190577Y-50872958D02*
X77190577Y-89032958D01*
X77190577Y-50872958D02*
X79850577Y-50872958D01*
X77190577Y-89032958D02*
X79850577Y-89032958D01*
X79850577Y-50872958D02*
X79850577Y-89032958D01*
%TO.C,C2*%
X89835000Y-108538748D02*
X89835000Y-109061252D01*
X88365000Y-108538748D02*
X88365000Y-109061252D01*
%TO.C,C1*%
X101035000Y-83538748D02*
X101035000Y-84061252D01*
X99565000Y-83538748D02*
X99565000Y-84061252D01*
%TO.C,L2*%
X96095031Y-120040000D02*
G75*
G02*
X103504969Y-120040000I3704969J-1560001D01*
G01*
X103504969Y-123160000D02*
G75*
G02*
X96095031Y-123160000I-3704969J1560001D01*
G01*
%TO.C,D3*%
X104065000Y-128615000D02*
X104065000Y-132500000D01*
X106335000Y-128615000D02*
X104065000Y-128615000D01*
X106335000Y-132500000D02*
X106335000Y-128615000D01*
%TO.C,R5*%
X81590000Y-133722936D02*
X81590000Y-138077064D01*
X85010000Y-133722936D02*
X85010000Y-138077064D01*
%TO.C,Q2*%
X102237500Y-106690000D02*
X101997500Y-106360000D01*
X102477500Y-106360000D01*
X102237500Y-106690000D01*
G36*
X102237500Y-106690000D02*
G01*
X101997500Y-106360000D01*
X102477500Y-106360000D01*
X102237500Y-106690000D01*
G37*
X103400000Y-106640000D02*
X104050000Y-106640000D01*
X103400000Y-106640000D02*
X102750000Y-106640000D01*
X103400000Y-109760000D02*
X104050000Y-109760000D01*
X103400000Y-109760000D02*
X102750000Y-109760000D01*
%TO.C,Q1*%
X91802500Y-132040000D02*
X91322500Y-132040000D01*
X91562500Y-131710000D01*
X91802500Y-132040000D01*
G36*
X91802500Y-132040000D02*
G01*
X91322500Y-132040000D01*
X91562500Y-131710000D01*
X91802500Y-132040000D01*
G37*
X90400000Y-131760000D02*
X91050000Y-131760000D01*
X90400000Y-131760000D02*
X89750000Y-131760000D01*
X90400000Y-128640000D02*
X91050000Y-128640000D01*
X90400000Y-128640000D02*
X89750000Y-128640000D01*
%TO.C,D2*%
X106765000Y-120715000D02*
X106765000Y-124600000D01*
X109035000Y-120715000D02*
X106765000Y-120715000D01*
X109035000Y-124600000D02*
X109035000Y-120715000D01*
%TO.C,D4*%
X79035000Y-129985000D02*
X79035000Y-126100000D01*
X76765000Y-129985000D02*
X79035000Y-129985000D01*
X76765000Y-126100000D02*
X76765000Y-129985000D01*
%TO.C,D5*%
X76765000Y-132115000D02*
X76765000Y-136000000D01*
X79035000Y-132115000D02*
X76765000Y-132115000D01*
X79035000Y-136000000D02*
X79035000Y-132115000D01*
%TO.C,L3*%
X85495031Y-120040000D02*
G75*
G02*
X92904969Y-120040000I3704969J-1560001D01*
G01*
X92904969Y-123160000D02*
G75*
G02*
X85495031Y-123160000I-3704969J1560001D01*
G01*
%TO.C,R4*%
X92190000Y-108022936D02*
X92190000Y-112377064D01*
X95610000Y-108022936D02*
X95610000Y-112377064D01*
%TO.C,R2*%
X98190000Y-130222936D02*
X98190000Y-134577064D01*
X101610000Y-130222936D02*
X101610000Y-134577064D01*
%TD*%
M02*
